SplineFontDB: 3.2
FontName: Nunito-ExtraLightItalic
FullName: Nunito ExtraLight Italic
FamilyName: Nunito ExtraLight
Weight: Light
Copyright: Copyright 2014 The Nunito Project Authors (https://github.com/googlefonts/nunito)
Version: 3.602-ef
ItalicAngle: -9
UnderlinePosition: -94
UnderlineWidth: 28
Ascent: 800
Descent: 200
InvalidEm: 0
sfntRevision: 0x00039a1d
LayerCount: 2
Layer: 0 1 "Back" 1
Layer: 1 1 "Fore" 0
XUID: [1021 965 1680887925 12320171]
StyleMap: 0x0001
FSType: 0
OS2Version: 4
OS2_WeightWidthSlopeOnly: 0
OS2_UseTypoMetrics: 1
CreationTime: 1592915285
ModificationTime: 1719074696
PfmFamily: 81
TTFWeight: 250
TTFWidth: 5
LineGap: 0
VLineGap: 0
Panose: 0 0 0 0 0 0 0 0 0 0
OS2TypoAscent: 1011
OS2TypoAOffset: 0
OS2TypoDescent: -353
OS2TypoDOffset: 0
OS2TypoLinegap: 0
OS2WinAscent: 1077
OS2WinAOffset: 0
OS2WinDescent: 300
OS2WinDOffset: 0
HheadAscent: 1011
HheadAOffset: 0
HheadDescent: -353
HheadDOffset: 0
OS2SubXSize: 650
OS2SubYSize: 600
OS2SubXOff: 0
OS2SubYOff: 75
OS2SupXSize: 650
OS2SupYSize: 600
OS2SupXOff: 0
OS2SupYOff: 350
OS2StrikeYSize: 28
OS2StrikeYPos: 290
OS2CapHeight: 705
OS2XHeight: 484
OS2Vendor: 'NONE'
OS2CodePages: 20000197.00000000
OS2UnicodeRanges: a00002ff.5000204b.00000000.00000000
Lookup: 1 0 0 "'aalt' Access All Alternates lookup 0" { "'aalt' Access All Alternates lookup 0 subtable"  } ['aalt' ('DFLT' <'dflt' > 'cyrl' <'BSH ' 'CHU ' 'dflt' > 'latn' <'AZE ' 'CAT ' 'CRT ' 'KAZ ' 'MOL ' 'NLD ' 'ROM ' 'TAT ' 'TRK ' 'dflt' > ) ]
Lookup: 3 0 0 "'aalt' Access All Alternates lookup 1" { "'aalt' Access All Alternates lookup 1 subtable"  } ['aalt' ('DFLT' <'dflt' > 'cyrl' <'BSH ' 'CHU ' 'dflt' > 'latn' <'AZE ' 'CAT ' 'CRT ' 'KAZ ' 'MOL ' 'NLD ' 'ROM ' 'TAT ' 'TRK ' 'dflt' > ) ]

StartChar: .notdef
Encoding: 65536 -1 0
Width: 500
GlyphClass: 1
Flags: W
LayerCount: 2
Fore
SplineSet
50 -180 m 1,0,-1
 50 705 l 1,1,-1
 450 705 l 1,2,-1
 450 -180 l 1,3,-1
 50 -180 l 1,0,-1
100 -130 m 1,4,-1
 400 -130 l 1,5,-1
 400 655 l 1,6,-1
 100 655 l 1,7,-1
 100 -130 l 1,4,-1
EndSplineSet
EndChar

StartChar: A
Encoding: 65 65 1
Width: 716
GlyphClass: 2
Flags: W
AnchorPoint: "Anchor-3" 645 0 basechar 0
AnchorPoint: "Anchor-2" 337 0 basechar 0
AnchorPoint: "Anchor-0" 434 705 basechar 0
LayerCount: 2
Fore
SplineSet
29 -6 m 0,0,1
 21 -6 21 -6 15.5 -1.5 c 128,-1,2
 10 3 10 3 9 10.5 c 128,-1,3
 8 18 8 18 13 27 c 2,4,-1
 407 696 l 2,5,6
 412 704 412 704 418.5 707.5 c 128,-1,7
 425 711 425 711 433 711 c 0,8,9
 442 711 442 711 447.5 707 c 128,-1,10
 453 703 453 703 455 695 c 2,11,-1
 635 29 l 2,12,13
 639 16 639 16 637.5 8.5 c 128,-1,14
 636 1 636 1 631.5 -2.5 c 128,-1,15
 627 -6 627 -6 620 -6 c 0,16,17
 612 -6 612 -6 605 0 c 128,-1,18
 598 6 598 6 596 16 c 2,19,-1
 546 204 l 1,20,-1
 570 195 l 1,21,-1
 134 195 l 1,22,-1
 166 204 l 1,23,-1
 52 10 l 2,24,25
 48 2 48 2 42 -2 c 128,-1,26
 36 -6 36 -6 29 -6 c 0,0,1
425 648 m 1,27,-1
 180 228 l 1,28,-1
 157 234 l 1,29,-1
 559 234 l 1,30,-1
 539 228 l 1,31,-1
 427 648 l 1,32,-1
 425 648 l 1,27,-1
EndSplineSet
Substitution2: "Single Substitution lookup 29 subtable" ordfeminine
Substitution2: "'aalt' Access All Alternates lookup 0 subtable" ordfeminine
EndChar

StartChar: Aogonek
Encoding: 260 260 24
Width: 716
GlyphClass: 1
Flags: W
LayerCount: 2
Fore
SplineSet
615 -190 m 0,0,1
 572 -190 572 -190 549 -165.5 c 128,-1,2
 526 -141 526 -141 526 -103 c 0,3,4
 526 -62 526 -62 549 -30.5 c 128,-1,5
 572 1 572 1 605 20 c 1,6,-1
 602 3 l 1,7,8
 600 6 600 6 598.5 9.5 c 128,-1,9
 597 13 597 13 596 16 c 2,10,-1
 546 204 l 1,11,-1
 570 195 l 1,12,-1
 134 195 l 1,13,-1
 166 204 l 1,14,-1
 52 10 l 2,15,16
 48 2 48 2 42 -2 c 128,-1,17
 36 -6 36 -6 29 -6 c 0,18,19
 21 -6 21 -6 15.5 -1.5 c 128,-1,20
 10 3 10 3 9 10.5 c 128,-1,21
 8 18 8 18 13 27 c 2,22,-1
 407 696 l 2,23,24
 412 704 412 704 418.5 707.5 c 128,-1,25
 425 711 425 711 433 711 c 0,26,27
 442 711 442 711 447.5 707 c 128,-1,28
 453 703 453 703 455 695 c 2,29,-1
 635 29 l 2,30,31
 639 16 639 16 638 9 c 128,-1,32
 637 2 637 2 630 -3 c 0,33,34
 607 -18 607 -18 592.5 -34 c 128,-1,35
 578 -50 578 -50 571.5 -66 c 128,-1,36
 565 -82 565 -82 565 -99 c 0,37,38
 565 -124 565 -124 578.5 -139 c 128,-1,39
 592 -154 592 -154 620 -154 c 0,40,41
 629 -154 629 -154 638.5 -152.5 c 128,-1,42
 648 -151 648 -151 659 -147 c 0,43,44
 668 -144 668 -144 673 -147.5 c 128,-1,45
 678 -151 678 -151 679.5 -158 c 128,-1,46
 681 -165 681 -165 679 -171.5 c 128,-1,47
 677 -178 677 -178 671 -180 c 0,48,49
 658 -185 658 -185 642 -187.5 c 128,-1,50
 626 -190 626 -190 615 -190 c 0,0,1
425 648 m 1,51,-1
 180 228 l 1,52,-1
 157 234 l 1,53,-1
 559 234 l 1,54,-1
 539 228 l 1,55,-1
 427 648 l 1,56,-1
 425 648 l 1,51,-1
EndSplineSet
EndChar

StartChar: AE
Encoding: 198 198 28
Width: 971
GlyphClass: 2
Flags: W
AnchorPoint: "Anchor-2" 448 0 basechar 0
AnchorPoint: "Anchor-0" 544 705 basechar 0
LayerCount: 2
Fore
SplineSet
-5 -6 m 0,0,1
 -14 -6 -14 -6 -19 -1.5 c 128,-1,2
 -24 3 -24 3 -24 10.5 c 128,-1,3
 -24 18 -24 18 -18 25 c 2,4,-1
 485 692 l 2,5,6
 490 700 490 700 497 702.5 c 128,-1,7
 504 705 504 705 512 705 c 2,8,-1
 977 705 l 2,9,10
 987 705 987 705 992.5 701.5 c 128,-1,11
 998 698 998 698 998 690 c 0,12,13
 998 677 998 677 991 671.5 c 128,-1,14
 984 666 984 666 975 666 c 2,15,-1
 526 666 l 1,16,-1
 538 690 l 1,17,-1
 555 366 l 1,18,-1
 538 377 l 1,19,-1
 905 377 l 2,20,21
 915 377 915 377 920.5 373.5 c 128,-1,22
 926 370 926 370 926 362 c 0,23,24
 926 349 926 349 919 343.5 c 128,-1,25
 912 338 912 338 903 338 c 2,26,-1
 540 338 l 1,27,-1
 556 348 l 1,28,-1
 572 20 l 1,29,-1
 554 39 l 1,30,-1
 872 39 l 2,31,32
 882 39 882 39 887.5 35.5 c 128,-1,33
 893 32 893 32 893 24 c 0,34,35
 893 13 893 13 886.5 6.5 c 128,-1,36
 880 0 880 0 869 0 c 2,37,-1
 555 0 l 2,38,39
 535 0 535 0 533 21 c 2,40,-1
 524 207 l 1,41,-1
 542 195 l 1,42,-1
 147 195 l 1,43,-1
 168 207 l 1,44,-1
 21 11 l 2,45,46
 14 1 14 1 8 -2.5 c 128,-1,47
 2 -6 2 -6 -5 -6 c 0,0,1
499 648 m 1,48,-1
 181 224 l 1,49,-1
 173 234 l 1,50,-1
 530 234 l 1,51,-1
 523 225 l 1,52,-1
 501 648 l 1,53,-1
 499 648 l 1,48,-1
EndSplineSet
EndChar

StartChar: B
Encoding: 66 66 30
Width: 666
GlyphClass: 2
Flags: W
AnchorPoint: "Anchor-2" 300 0 basechar 0
AnchorPoint: "Anchor-0" 411 705 basechar 0
LayerCount: 2
Fore
SplineSet
85 0 m 2,0,1
 72 0 72 0 66 7 c 128,-1,2
 60 14 60 14 62 27 c 2,3,-1
 166 682 l 2,4,5
 168 694 168 694 175 699.5 c 128,-1,6
 182 705 182 705 193 705 c 2,7,-1
 417 705 l 2,8,9
 486 705 486 705 532.5 685.5 c 128,-1,10
 579 666 579 666 602 629 c 128,-1,11
 625 592 625 592 625 541 c 0,12,13
 625 461 625 461 575.5 410.5 c 128,-1,14
 526 360 526 360 443 349 c 1,15,-1
 443 363 l 1,16,17
 510 353 510 353 549 311 c 128,-1,18
 588 269 588 269 588 207 c 0,19,20
 588 104 588 104 526 52 c 128,-1,21
 464 0 464 0 346 0 c 2,22,-1
 85 0 l 2,0,1
107 39 m 1,23,-1
 350 39 l 2,24,25
 447 39 447 39 495.5 81.5 c 128,-1,26
 544 124 544 124 544 206 c 0,27,28
 544 271 544 271 501.5 304 c 128,-1,29
 459 337 459 337 379 337 c 2,30,-1
 154 337 l 1,31,-1
 107 39 l 1,23,-1
160 376 m 1,32,-1
 387 376 l 2,33,34
 476 376 476 376 528.5 418.5 c 128,-1,35
 581 461 581 461 581 540 c 0,36,37
 581 602 581 602 540 634 c 128,-1,38
 499 666 499 666 414 666 c 2,39,-1
 206 666 l 1,40,-1
 160 376 l 1,32,-1
EndSplineSet
EndChar

StartChar: uni0181
Encoding: 385 385 31
Width: 767
GlyphClass: 1
Flags: W
LayerCount: 2
Fore
SplineSet
187 0 m 2,0,1
 174 0 174 0 168 7 c 128,-1,2
 162 14 162 14 164 27 c 2,3,-1
 265 666 l 1,4,-1
 226 666 l 2,5,6
 165 666 165 666 132 640 c 128,-1,7
 99 614 99 614 88 548 c 2,8,-1
 84 523 l 2,9,10
 83 516 83 516 80 510.5 c 128,-1,11
 77 505 77 505 72.5 502.5 c 128,-1,12
 68 500 68 500 61 500 c 0,13,14
 55 500 55 500 51 503 c 128,-1,15
 47 506 47 506 45.5 512.5 c 128,-1,16
 44 519 44 519 45 527 c 2,17,-1
 49 551 l 2,18,19
 62 628 62 628 102.5 666.5 c 128,-1,20
 143 705 143 705 233 705 c 2,21,-1
 518 705 l 2,22,23
 587 705 587 705 633 685.5 c 128,-1,24
 679 666 679 666 702.5 629 c 128,-1,25
 726 592 726 592 726 541 c 0,26,27
 726 461 726 461 676.5 410.5 c 128,-1,28
 627 360 627 360 544 349 c 1,29,-1
 544 363 l 1,30,31
 611 353 611 353 650 311 c 128,-1,32
 689 269 689 269 689 207 c 0,33,34
 689 104 689 104 627 52 c 128,-1,35
 565 0 565 0 447 0 c 2,36,-1
 187 0 l 2,0,1
208 39 m 1,37,-1
 451 39 l 2,38,39
 548 39 548 39 596.5 81.5 c 128,-1,40
 645 124 645 124 645 206 c 0,41,42
 645 271 645 271 602.5 304 c 128,-1,43
 560 337 560 337 480 337 c 2,44,-1
 255 337 l 1,45,-1
 208 39 l 1,37,-1
261 376 m 1,46,-1
 488 376 l 2,47,48
 577 376 577 376 629.5 418.5 c 128,-1,49
 682 461 682 461 682 540 c 0,50,51
 682 602 682 602 641 634 c 128,-1,52
 600 666 600 666 515 666 c 2,53,-1
 307 666 l 1,54,-1
 261 376 l 1,46,-1
EndSplineSet
EndChar

StartChar: C
Encoding: 67 67 32
Width: 667
GlyphClass: 2
Flags: W
AnchorPoint: "Anchor-2" 364 0 basechar 0
AnchorPoint: "Anchor-0" 433 705 basechar 0
LayerCount: 2
Fore
SplineSet
373 -8 m 0,0,1
 286 -8 286 -8 220.5 25.5 c 128,-1,2
 155 59 155 59 119 128 c 128,-1,3
 83 197 83 197 83 305 c 0,4,5
 83 392 83 392 107.5 466.5 c 128,-1,6
 132 541 132 541 178 596 c 128,-1,7
 224 651 224 651 288.5 682 c 128,-1,8
 353 713 353 713 433 713 c 0,9,10
 500 713 500 713 556 691 c 128,-1,11
 612 669 612 669 652 629 c 0,12,13
 658 623 658 623 659.5 615.5 c 128,-1,14
 661 608 661 608 658 602 c 128,-1,15
 655 596 655 596 649.5 592.5 c 128,-1,16
 644 589 644 589 637 590 c 128,-1,17
 630 591 630 591 623 598 c 0,18,19
 584 637 584 637 537 654.5 c 128,-1,20
 490 672 490 672 430 672 c 0,21,22
 338 672 338 672 270 624.5 c 128,-1,23
 202 577 202 577 165 494 c 128,-1,24
 128 411 128 411 128 304 c 0,25,26
 128 207 128 207 158.5 147 c 128,-1,27
 189 87 189 87 244.5 60 c 128,-1,28
 300 33 300 33 376 33 c 0,29,30
 430 33 430 33 475.5 50 c 128,-1,31
 521 67 521 67 564 107 c 0,32,33
 571 114 571 114 578 114.5 c 128,-1,34
 585 115 585 115 590.5 111.5 c 128,-1,35
 596 108 596 108 598.5 102 c 128,-1,36
 601 96 601 96 599.5 88.5 c 128,-1,37
 598 81 598 81 591 75 c 0,38,39
 543 32 543 32 490.5 12 c 128,-1,40
 438 -8 438 -8 373 -8 c 0,0,1
EndSplineSet
EndChar

StartChar: D
Encoding: 68 68 39
Width: 725
GlyphClass: 2
Flags: W
AnchorPoint: "Anchor-5" 192 358 basechar 0
AnchorPoint: "Anchor-2" 325 0 basechar 0
AnchorPoint: "Anchor-0" 426 705 basechar 0
LayerCount: 2
Fore
SplineSet
85 0 m 2,0,1
 72 0 72 0 66 7 c 128,-1,2
 60 14 60 14 62 27 c 2,3,-1
 166 682 l 2,4,5
 168 694 168 694 175 699.5 c 128,-1,6
 182 705 182 705 193 705 c 2,7,-1
 360 705 l 2,8,9
 513 705 513 705 596 629.5 c 128,-1,10
 679 554 679 554 679 416 c 0,11,12
 679 331 679 331 656.5 256 c 128,-1,13
 634 181 634 181 586 123.5 c 128,-1,14
 538 66 538 66 463.5 33 c 128,-1,15
 389 0 389 0 284 0 c 2,16,-1
 85 0 l 2,0,1
106 39 m 1,17,-1
 286 39 l 2,18,19
 382 39 382 39 448.5 69 c 128,-1,20
 515 99 515 99 556 152 c 128,-1,21
 597 205 597 205 615.5 273 c 128,-1,22
 634 341 634 341 634 416 c 0,23,24
 634 538 634 538 565 602 c 128,-1,25
 496 666 496 666 359 666 c 2,26,-1
 206 666 l 1,27,-1
 106 39 l 1,17,-1
EndSplineSet
EndChar

StartChar: uni018A
Encoding: 394 394 45
Width: 826
GlyphClass: 1
Flags: W
LayerCount: 2
Fore
SplineSet
186 0 m 2,0,1
 173 0 173 0 167 7 c 128,-1,2
 161 14 161 14 163 27 c 2,3,-1
 265 666 l 1,4,-1
 227 666 l 2,5,6
 166 666 166 666 132.5 640 c 128,-1,7
 99 614 99 614 88 548 c 2,8,-1
 84 523 l 2,9,10
 83 516 83 516 80 510.5 c 128,-1,11
 77 505 77 505 72.5 502.5 c 128,-1,12
 68 500 68 500 61 500 c 0,13,14
 55 500 55 500 51 503 c 128,-1,15
 47 506 47 506 45.5 512.5 c 128,-1,16
 44 519 44 519 45 527 c 2,17,-1
 49 551 l 2,18,19
 62 628 62 628 102.5 666.5 c 128,-1,20
 143 705 143 705 233 705 c 2,21,-1
 461 705 l 2,22,23
 614 705 614 705 697 629.5 c 128,-1,24
 780 554 780 554 780 416 c 0,25,26
 780 331 780 331 757.5 256 c 128,-1,27
 735 181 735 181 687 123.5 c 128,-1,28
 639 66 639 66 564.5 33 c 128,-1,29
 490 0 490 0 385 0 c 2,30,-1
 186 0 l 2,0,1
207 39 m 1,31,-1
 387 39 l 2,32,33
 483 39 483 39 549.5 69 c 128,-1,34
 616 99 616 99 657 152 c 128,-1,35
 698 205 698 205 716.5 273 c 128,-1,36
 735 341 735 341 735 416 c 0,37,38
 735 538 735 538 666 602 c 128,-1,39
 597 666 597 666 460 666 c 2,40,-1
 306 666 l 1,41,-1
 207 39 l 1,31,-1
EndSplineSet
EndChar

StartChar: E
Encoding: 69 69 48
Width: 570
GlyphClass: 2
Flags: W
AnchorPoint: "Anchor-3" 449 0 basechar 0
AnchorPoint: "Anchor-2" 289 0 basechar 0
AnchorPoint: "Anchor-0" 396 705 basechar 0
LayerCount: 2
Fore
SplineSet
85 0 m 2,0,1
 72 0 72 0 66 7 c 128,-1,2
 60 14 60 14 62 27 c 2,3,-1
 166 682 l 2,4,5
 168 694 168 694 175 699.5 c 128,-1,6
 182 705 182 705 193 705 c 2,7,-1
 576 705 l 2,8,9
 586 705 586 705 591.5 701.5 c 128,-1,10
 597 698 597 698 597 690 c 0,11,12
 597 677 597 677 590 671.5 c 128,-1,13
 583 666 583 666 574 666 c 2,14,-1
 206 666 l 1,15,-1
 160 377 l 1,16,-1
 504 377 l 2,17,18
 514 377 514 377 519.5 373.5 c 128,-1,19
 525 370 525 370 525 362 c 0,20,21
 525 349 525 349 518 343.5 c 128,-1,22
 511 338 511 338 502 338 c 2,23,-1
 153 338 l 1,24,-1
 106 39 l 1,25,-1
 470 39 l 2,26,27
 480 39 480 39 485.5 35.5 c 128,-1,28
 491 32 491 32 491 24 c 0,29,30
 491 11 491 11 484 5.5 c 128,-1,31
 477 0 477 0 468 0 c 2,32,-1
 85 0 l 2,0,1
EndSplineSet
EndChar

StartChar: uni018F
Encoding: 399 399 72
Width: 751
GlyphClass: 2
Flags: W
AnchorPoint: "Anchor-2" 332 0 basechar 0
AnchorPoint: "Anchor-0" 444 705 basechar 0
LayerCount: 2
Fore
SplineSet
352 -8 m 0,0,1
 271 -8 271 -8 214.5 22 c 128,-1,2
 158 52 158 52 126 103 c 128,-1,3
 94 154 94 154 83.5 218 c 128,-1,4
 73 282 73 282 83 349 c 0,5,6
 85 364 85 364 90.5 370 c 128,-1,7
 96 376 96 376 108 376 c 2,8,-1
 672 376 l 1,9,-1
 666 337 l 1,10,-1
 113 337 l 1,11,-1
 127 353 l 1,12,13
 115 266 115 266 133 193 c 128,-1,14
 151 120 151 120 206 76.5 c 128,-1,15
 261 33 261 33 358 33 c 0,16,17
 456 33 456 33 523 83.5 c 128,-1,18
 590 134 590 134 624.5 221 c 128,-1,19
 659 308 659 308 659 416 c 0,20,21
 659 493 659 493 628 550.5 c 128,-1,22
 597 608 597 608 540 640 c 128,-1,23
 483 672 483 672 405 672 c 0,24,25
 329 672 329 672 272.5 654 c 128,-1,26
 216 636 216 636 170 596 c 0,27,28
 162 589 162 589 155 588.5 c 128,-1,29
 148 588 148 588 143 591.5 c 128,-1,30
 138 595 138 595 136 601.5 c 128,-1,31
 134 608 134 608 136.5 615 c 128,-1,32
 139 622 139 622 146 629 c 0,33,34
 194 673 194 673 262 693 c 128,-1,35
 330 713 330 713 412 713 c 0,36,37
 499 713 499 713 564.5 674.5 c 128,-1,38
 630 636 630 636 667 569 c 128,-1,39
 704 502 704 502 704 416 c 0,40,41
 704 321 704 321 680 243 c 128,-1,42
 656 165 656 165 610.5 109 c 128,-1,43
 565 53 565 53 500 22.5 c 128,-1,44
 435 -8 435 -8 352 -8 c 0,0,1
EndSplineSet
EndChar

StartChar: F
Encoding: 70 70 73
Width: 536
GlyphClass: 2
Flags: W
AnchorPoint: "Anchor-2" 255 0 basechar 0
AnchorPoint: "Anchor-0" 367 705 basechar 0
LayerCount: 2
Fore
SplineSet
82 -6 m 0,0,1
 69 -6 69 -6 64 1 c 128,-1,2
 59 8 59 8 61 21 c 2,3,-1
 166 682 l 2,4,5
 168 694 168 694 175 699.5 c 128,-1,6
 182 705 182 705 193 705 c 2,7,-1
 559 705 l 2,8,9
 570 705 570 705 575.5 701 c 128,-1,10
 581 697 581 697 581 689 c 0,11,12
 581 678 581 678 574.5 672 c 128,-1,13
 568 666 568 666 557 666 c 2,14,-1
 206 666 l 1,15,-1
 160 377 l 1,16,-1
 487 377 l 2,17,18
 498 377 498 377 503.5 373 c 128,-1,19
 509 369 509 369 509 361 c 0,20,21
 509 350 509 350 502.5 344 c 128,-1,22
 496 338 496 338 485 338 c 2,23,-1
 154 338 l 1,24,-1
 103 17 l 2,25,26
 99 -6 99 -6 82 -6 c 0,0,1
EndSplineSet
EndChar

StartChar: G
Encoding: 71 71 74
Width: 718
GlyphClass: 2
Flags: W
AnchorPoint: "Anchor-2" 372 0 basechar 0
AnchorPoint: "Anchor-0" 434 705 basechar 0
LayerCount: 2
Fore
SplineSet
384 -8 m 0,0,1
 287 -8 287 -8 219.5 26 c 128,-1,2
 152 60 152 60 117 126.5 c 128,-1,3
 82 193 82 193 82 289 c 256,4,5
 82 385 82 385 106.5 463 c 128,-1,6
 131 541 131 541 177 597 c 128,-1,7
 223 653 223 653 287.5 683 c 128,-1,8
 352 713 352 713 433 713 c 0,9,10
 501 713 501 713 559.5 692 c 128,-1,11
 618 671 618 671 655 630 c 0,12,13
 662 623 662 623 663 615 c 128,-1,14
 664 607 664 607 661.5 601 c 128,-1,15
 659 595 659 595 654 591.5 c 128,-1,16
 649 588 649 588 642 589 c 128,-1,17
 635 590 635 590 627 598 c 0,18,19
 590 637 590 637 541 654.5 c 128,-1,20
 492 672 492 672 430 672 c 0,21,22
 337 672 337 672 269 625.5 c 128,-1,23
 201 579 201 579 164 493 c 128,-1,24
 127 407 127 407 127 289 c 0,25,26
 127 159 127 159 192.5 96 c 128,-1,27
 258 33 258 33 386 33 c 0,28,29
 443 33 443 33 488 43 c 128,-1,30
 533 53 533 53 573 68 c 1,31,-1
 555 35 l 1,32,-1
 600 316 l 1,33,-1
 425 316 l 2,34,35
 415 316 415 316 409 320.5 c 128,-1,36
 403 325 403 325 403 333 c 0,37,38
 403 344 403 344 410 349.5 c 128,-1,39
 417 355 417 355 427 355 c 2,40,-1
 621 355 l 2,41,42
 632 355 632 355 638 348.5 c 128,-1,43
 644 342 644 342 642 330 c 2,44,-1
 598 50 l 2,45,46
 597 40 597 40 593.5 35 c 128,-1,47
 590 30 590 30 583 27 c 0,48,49
 547 11 547 11 493 1.5 c 128,-1,50
 439 -8 439 -8 384 -8 c 0,0,1
EndSplineSet
EndChar

StartChar: H
Encoding: 72 72 81
Width: 751
GlyphClass: 2
Flags: W
AnchorPoint: "Anchor-5" 424 546 basechar 0
AnchorPoint: "Anchor-2" 342 0 basechar 0
AnchorPoint: "Anchor-0" 448 705 basechar 0
LayerCount: 2
Fore
SplineSet
78 -6 m 0,0,1
 68 -6 68 -6 63.5 0.5 c 128,-1,2
 59 7 59 7 61 20 c 2,3,-1
 167 689 l 2,4,5
 169 700 169 700 174.5 705.5 c 128,-1,6
 180 711 180 711 190 711 c 256,7,8
 200 711 200 711 205 704.5 c 128,-1,9
 210 698 210 698 208 685 c 2,10,-1
 160 377 l 1,11,-1
 634 377 l 1,12,-1
 684 689 l 2,13,14
 686 700 686 700 691.5 705.5 c 128,-1,15
 697 711 697 711 707 711 c 256,16,17
 717 711 717 711 722 704.5 c 128,-1,18
 727 698 727 698 725 685 c 2,19,-1
 619 16 l 2,20,21
 618 6 618 6 612.5 0 c 128,-1,22
 607 -6 607 -6 596 -6 c 0,23,24
 586 -6 586 -6 581 0.5 c 128,-1,25
 576 7 576 7 578 20 c 2,26,-1
 628 338 l 1,27,-1
 154 338 l 1,28,-1
 102 16 l 2,29,30
 101 6 101 6 95 0 c 128,-1,31
 89 -6 89 -6 78 -6 c 0,0,1
EndSplineSet
EndChar

StartChar: Hbar
Encoding: 294 294 82
Width: 781
GlyphClass: 1
Flags: W
LayerCount: 2
Fore
SplineSet
94 -6 m 0,0,1
 84 -6 84 -6 79 0.5 c 128,-1,2
 74 7 74 7 76 20 c 2,3,-1
 157 533 l 1,4,-1
 161 527 l 1,5,-1
 80 527 l 2,6,7
 57 527 57 527 57 543 c 0,8,9
 57 554 57 554 64.5 559.5 c 128,-1,10
 72 565 72 565 82 565 c 2,11,-1
 169 565 l 1,12,-1
 161 559 l 1,13,-1
 182 689 l 2,14,15
 184 700 184 700 189.5 705.5 c 128,-1,16
 195 711 195 711 205 711 c 256,17,18
 215 711 215 711 220 704 c 128,-1,19
 225 697 225 697 223 685 c 2,20,-1
 203 558 l 1,21,-1
 194 565 l 1,22,-1
 685 565 l 1,23,-1
 676 551 l 1,24,-1
 698 689 l 2,25,26
 700 700 700 700 705.5 705.5 c 128,-1,27
 711 711 711 711 721 711 c 256,28,29
 731 711 731 711 736 704 c 128,-1,30
 741 697 741 697 739 685 c 2,31,-1
 718 551 l 1,32,-1
 715 565 l 1,33,-1
 797 565 l 2,34,35
 820 565 820 565 820 549 c 0,36,37
 820 539 820 539 813 533 c 128,-1,38
 806 527 806 527 795 527 c 2,39,-1
 708 527 l 1,40,-1
 716 540 l 1,41,-1
 633 16 l 2,42,43
 632 6 632 6 626.5 0 c 128,-1,44
 621 -6 621 -6 610 -6 c 0,45,46
 600 -6 600 -6 595 0.5 c 128,-1,47
 590 7 590 7 592 20 c 2,48,-1
 642 338 l 1,49,-1
 168 338 l 1,50,-1
 117 16 l 2,51,52
 116 6 116 6 110.5 0 c 128,-1,53
 105 -6 105 -6 94 -6 c 0,0,1
174 377 m 1,54,-1
 648 377 l 1,55,-1
 672 527 l 1,56,-1
 198 527 l 1,57,-1
 174 377 l 1,54,-1
EndSplineSet
EndChar

StartChar: I
Encoding: 73 73 86
Width: 234
GlyphClass: 2
Flags: W
AnchorPoint: "Anchor-3" 100 0 basechar 0
AnchorPoint: "Anchor-2" 79 0 basechar 0
AnchorPoint: "Anchor-0" 191 705 basechar 0
LayerCount: 2
Fore
SplineSet
79 -6 m 0,0,1
 69 -6 69 -6 64 0.5 c 128,-1,2
 59 7 59 7 61 20 c 2,3,-1
 167 689 l 2,4,5
 169 700 169 700 174.5 705.5 c 128,-1,6
 180 711 180 711 190 711 c 256,7,8
 200 711 200 711 205 704.5 c 128,-1,9
 210 698 210 698 208 685 c 2,10,-1
 102 16 l 2,11,12
 101 6 101 6 95.5 0 c 128,-1,13
 90 -6 90 -6 79 -6 c 0,0,1
EndSplineSet
EndChar

StartChar: Iogonek
Encoding: 302 302 100
Width: 234
GlyphClass: 1
Flags: W
LayerCount: 2
Fore
SplineSet
70 -190 m 0,0,1
 27 -190 27 -190 4 -165.5 c 128,-1,2
 -19 -141 -19 -141 -19 -103 c 0,3,4
 -19 -63 -19 -63 4.5 -30 c 128,-1,5
 28 3 28 3 66 23 c 1,6,-1
 62 4 l 1,7,8
 61 9 61 9 60.5 12.5 c 128,-1,9
 60 16 60 16 61 19 c 2,10,-1
 167 689 l 2,11,12
 169 700 169 700 174.5 705.5 c 128,-1,13
 180 711 180 711 190 711 c 256,14,15
 200 711 200 711 205 704.5 c 128,-1,16
 210 698 210 698 208 685 c 2,17,-1
 102 16 l 2,18,19
 101 8 101 8 97.5 2.5 c 128,-1,20
 94 -3 94 -3 87 -6 c 0,21,22
 53 -23 53 -23 36.5 -47.5 c 128,-1,23
 20 -72 20 -72 20 -99 c 0,24,25
 20 -124 20 -124 33.5 -139 c 128,-1,26
 47 -154 47 -154 75 -154 c 0,27,28
 84 -154 84 -154 93.5 -152.5 c 128,-1,29
 103 -151 103 -151 114 -147 c 0,30,31
 123 -144 123 -144 128 -147.5 c 128,-1,32
 133 -151 133 -151 134.5 -158 c 128,-1,33
 136 -165 136 -165 134 -171.5 c 128,-1,34
 132 -178 132 -178 126 -180 c 0,35,36
 113 -185 113 -185 97 -187.5 c 128,-1,37
 81 -190 81 -190 70 -190 c 0,0,1
EndSplineSet
EndChar

StartChar: J
Encoding: 74 74 102
Width: 297
GlyphClass: 2
Flags: W
AnchorPoint: "Anchor-2" 143 0 basechar 0
AnchorPoint: "Anchor-0" 253 705 basechar 0
LayerCount: 2
Fore
SplineSet
-23 -6 m 2,0,1
 -36 -7 -36 -7 -42.5 -2 c 128,-1,2
 -49 3 -49 3 -49 13 c 0,3,4
 -49 22 -49 22 -43 27 c 128,-1,5
 -37 32 -37 32 -27 33 c 2,6,-1
 6 36 l 2,7,8
 66 41 66 41 102.5 78.5 c 128,-1,9
 139 116 139 116 150 187 c 2,10,-1
 230 690 l 2,11,12
 232 701 232 701 238 706 c 128,-1,13
 244 711 244 711 254 711 c 256,14,15
 264 711 264 711 268.5 704.5 c 128,-1,16
 273 698 273 698 271 686 c 2,17,-1
 190 177 l 2,18,19
 182 122 182 122 159.5 84 c 128,-1,20
 137 46 137 46 99.5 24 c 128,-1,21
 62 2 62 2 8 -3 c 2,22,-1
 -23 -6 l 2,0,1
EndSplineSet
EndChar

StartChar: K
Encoding: 75 75 104
Width: 590
GlyphClass: 2
Flags: W
AnchorPoint: "Anchor-2" 274 0 basechar 0
AnchorPoint: "Anchor-0" 375 705 basechar 0
LayerCount: 2
Fore
SplineSet
80 -6 m 0,0,1
 70 -6 70 -6 65 0.5 c 128,-1,2
 60 7 60 7 62 19 c 2,3,-1
 168 690 l 2,4,5
 170 701 170 701 175.5 706 c 128,-1,6
 181 711 181 711 191 711 c 256,7,8
 201 711 201 711 206 704.5 c 128,-1,9
 211 698 211 698 209 686 c 2,10,-1
 160 377 l 1,11,-1
 162 377 l 1,12,-1
 578 701 l 2,13,14
 586 707 586 707 590.5 709 c 128,-1,15
 595 711 595 711 602 711 c 0,16,17
 611 711 611 711 616 705.5 c 128,-1,18
 621 700 621 700 620.5 693 c 128,-1,19
 620 686 620 686 613 680 c 2,20,-1
 178 339 l 1,21,-1
 183 369 l 1,22,-1
 530 26 l 2,23,24
 537 20 537 20 537 12.5 c 128,-1,25
 537 5 537 5 532 -0.5 c 128,-1,26
 527 -6 527 -6 517 -6 c 0,27,28
 510 -6 510 -6 504.5 -3 c 128,-1,29
 499 0 499 0 493 6 c 2,30,-1
 156 338 l 1,31,-1
 154 338 l 1,32,-1
 103 15 l 2,33,34
 102 5 102 5 96.5 -0.5 c 128,-1,35
 91 -6 91 -6 80 -6 c 0,0,1
EndSplineSet
EndChar

StartChar: L
Encoding: 76 76 106
Width: 527
GlyphClass: 2
Flags: W
AnchorPoint: "Anchor-5" 182 387 basechar 0
AnchorPoint: "Anchor-2" 267 0 basechar 0
AnchorPoint: "Anchor-1" 334 705 basechar 0
AnchorPoint: "Anchor-0" 191 705 basechar 0
LayerCount: 2
Fore
SplineSet
82 0 m 2,0,1
 71 0 71 0 66 6.5 c 128,-1,2
 61 13 61 13 62 24 c 2,3,-1
 168 691 l 2,4,5
 170 702 170 702 175.5 706.5 c 128,-1,6
 181 711 181 711 191 711 c 0,7,8
 202 711 202 711 206.5 704.5 c 128,-1,9
 211 698 211 698 209 687 c 2,10,-1
 107 39 l 1,11,-1
 464 39 l 2,12,13
 474 39 474 39 479.5 35.5 c 128,-1,14
 485 32 485 32 485 24 c 0,15,16
 485 11 485 11 478 5.5 c 128,-1,17
 471 0 471 0 462 0 c 2,18,-1
 82 0 l 2,0,1
EndSplineSet
EndChar

StartChar: M
Encoding: 77 77 116
Width: 844
GlyphClass: 2
Flags: W
AnchorPoint: "Anchor-2" 389 0 basechar 0
AnchorPoint: "Anchor-0" 496 705 basechar 0
LayerCount: 2
Fore
SplineSet
82 0 m 0,0,1
 73 0 73 0 68 6 c 128,-1,2
 63 12 63 12 64 23 c 2,3,-1
 170 691 l 2,4,5
 172 702 172 702 177 706.5 c 128,-1,6
 182 711 182 711 191 711 c 256,7,8
 200 711 200 711 204.5 706.5 c 128,-1,9
 209 702 209 702 212 693 c 2,10,-1
 416 127 l 1,11,-1
 389 127 l 1,12,-1
 778 697 l 2,13,14
 783 704 783 704 788 707.5 c 128,-1,15
 793 711 793 711 801 711 c 0,16,17
 810 711 810 711 814.5 704.5 c 128,-1,18
 819 698 819 698 817 687 c 2,19,-1
 711 19 l 2,20,21
 710 10 710 10 705.5 5 c 128,-1,22
 701 0 701 0 691 0 c 0,23,24
 682 0 682 0 677 6 c 128,-1,25
 672 12 672 12 673 23 c 2,26,-1
 774 665 l 1,27,-1
 799 665 l 1,28,-1
 425 117 l 2,29,30
 421 110 421 110 416 107 c 128,-1,31
 411 104 411 104 403 104 c 0,32,33
 394 104 394 104 389 108.5 c 128,-1,34
 384 113 384 113 381 122 c 2,35,-1
 184 666 l 1,36,-1
 204 666 l 1,37,-1
 102 19 l 2,38,39
 101 10 101 10 96.5 5 c 128,-1,40
 92 0 92 0 82 0 c 0,0,1
EndSplineSet
EndChar

StartChar: N
Encoding: 78 78 118
Width: 732
GlyphClass: 2
Flags: W
AnchorPoint: "Anchor-2" 338 0 basechar 0
AnchorPoint: "Anchor-0" 440 705 basechar 0
LayerCount: 2
Fore
SplineSet
77 -6 m 0,0,1
 68 -6 68 -6 64 0.5 c 128,-1,2
 60 7 60 7 61 18 c 2,3,-1
 168 691 l 2,4,5
 170 702 170 702 175.5 706.5 c 128,-1,6
 181 711 181 711 189 711 c 256,7,8
 197 711 197 711 201.5 707.5 c 128,-1,9
 206 704 206 704 210 696 c 2,10,-1
 583 42 l 1,11,-1
 565 42 l 1,12,-1
 668 691 l 2,13,14
 670 702 670 702 675.5 706.5 c 128,-1,15
 681 711 681 711 691 711 c 0,16,17
 700 711 700 711 704 704.5 c 128,-1,18
 708 698 708 698 706 687 c 2,19,-1
 599 14 l 2,20,21
 598 4 598 4 593 -1 c 128,-1,22
 588 -6 588 -6 580 -6 c 256,23,24
 572 -6 572 -6 567.5 -2 c 128,-1,25
 563 2 563 2 558 9 c 2,26,-1
 185 663 l 1,27,-1
 202 663 l 1,28,-1
 99 14 l 2,29,30
 98 4 98 4 92.5 -1 c 128,-1,31
 87 -6 87 -6 77 -6 c 0,0,1
EndSplineSet
EndChar

StartChar: Eng
Encoding: 330 330 128
Width: 732
GlyphClass: 2
Flags: W
AnchorPoint: "Anchor-2" 327 0 basechar 0
AnchorPoint: "Anchor-0" 439 705 basechar 0
LayerCount: 2
Fore
SplineSet
406 -191 m 0,0,1
 398 -191 398 -191 392.5 -187 c 128,-1,2
 387 -183 387 -183 385.5 -177.5 c 128,-1,3
 384 -172 384 -172 385.5 -166.5 c 128,-1,4
 387 -161 387 -161 391.5 -157 c 128,-1,5
 396 -153 396 -153 404 -153 c 0,6,7
 465 -153 465 -153 504.5 -122 c 128,-1,8
 544 -91 544 -91 555 -22 c 2,9,-1
 562 22 l 1,10,-1
 563 0 l 1,11,-1
 185 663 l 1,12,-1
 202 663 l 1,13,-1
 99 14 l 2,14,15
 98 4 98 4 92.5 -1 c 128,-1,16
 87 -6 87 -6 77 -6 c 0,17,18
 68 -6 68 -6 64 0.5 c 128,-1,19
 60 7 60 7 61 18 c 2,20,-1
 168 691 l 2,21,22
 170 702 170 702 175.5 706.5 c 128,-1,23
 181 711 181 711 189 711 c 256,24,25
 197 711 197 711 201.5 707.5 c 128,-1,26
 206 704 206 704 210 696 c 2,27,-1
 583 42 l 1,28,-1
 565 42 l 1,29,-1
 668 691 l 2,30,31
 670 702 670 702 675.5 706.5 c 128,-1,32
 681 711 681 711 691 711 c 0,33,34
 700 711 700 711 704 704.5 c 128,-1,35
 708 698 708 698 706 687 c 2,36,-1
 593 -26 l 2,37,38
 580 -109 580 -109 531 -150 c 128,-1,39
 482 -191 482 -191 406 -191 c 0,0,1
EndSplineSet
EndChar

StartChar: O
Encoding: 79 79 129
Width: 751
GlyphClass: 2
Flags: W
AnchorPoint: "Anchor-5" 393 353 basechar 0
AnchorPoint: "Anchor-3" 401 0 basechar 0
AnchorPoint: "Anchor-2" 350 0 basechar 0
AnchorPoint: "Anchor-1" 487 705 basechar 0
AnchorPoint: "Anchor-0" 440 705 basechar 0
LayerCount: 2
Fore
SplineSet
357 -8 m 0,0,1
 273 -8 273 -8 211.5 26 c 128,-1,2
 150 60 150 60 116 126.5 c 128,-1,3
 82 193 82 193 82 289 c 0,4,5
 82 378 82 378 104 455 c 128,-1,6
 126 532 126 532 170 590 c 128,-1,7
 214 648 214 648 279 680.5 c 128,-1,8
 344 713 344 713 429 713 c 0,9,10
 513 713 513 713 575 679 c 128,-1,11
 637 645 637 645 670.5 579 c 128,-1,12
 704 513 704 513 704 416 c 0,13,14
 704 327 704 327 682 250 c 128,-1,15
 660 173 660 173 616 115 c 128,-1,16
 572 57 572 57 507.5 24.5 c 128,-1,17
 443 -8 443 -8 357 -8 c 0,0,1
359 33 m 0,18,19
 457 33 457 33 523.5 83.5 c 128,-1,20
 590 134 590 134 624.5 221 c 128,-1,21
 659 308 659 308 659 416 c 0,22,23
 659 546 659 546 597.5 609 c 128,-1,24
 536 672 536 672 426 672 c 0,25,26
 329 672 329 672 262.5 621.5 c 128,-1,27
 196 571 196 571 161.5 484.5 c 128,-1,28
 127 398 127 398 127 289 c 0,29,30
 127 159 127 159 188.5 96 c 128,-1,31
 250 33 250 33 359 33 c 0,18,19
EndSplineSet
Substitution2: "Single Substitution lookup 29 subtable" ordmasculine
Substitution2: "'aalt' Access All Alternates lookup 0 subtable" ordmasculine
EndChar

StartChar: OE
Encoding: 338 338 163
Width: 1038
GlyphClass: 2
Flags: W
AnchorPoint: "Anchor-2" 546 0 basechar 0
AnchorPoint: "Anchor-0" 658 705 basechar 0
LayerCount: 2
Fore
SplineSet
400 0 m 2,0,1
 247 0 247 0 164 75.5 c 128,-1,2
 81 151 81 151 81 289 c 0,3,4
 81 374 81 374 103.5 449 c 128,-1,5
 126 524 126 524 174 581.5 c 128,-1,6
 222 639 222 639 296.5 672 c 128,-1,7
 371 705 371 705 476 705 c 2,8,-1
 1043 705 l 2,9,10
 1053 705 1053 705 1058.5 701.5 c 128,-1,11
 1064 698 1064 698 1064 690 c 0,12,13
 1064 677 1064 677 1057 671.5 c 128,-1,14
 1050 666 1050 666 1041 666 c 2,15,-1
 675 666 l 1,16,-1
 629 377 l 1,17,-1
 973 377 l 2,18,19
 983 377 983 377 988.5 373.5 c 128,-1,20
 994 370 994 370 994 362 c 0,21,22
 994 349 994 349 987 343.5 c 128,-1,23
 980 338 980 338 971 338 c 2,24,-1
 622 338 l 1,25,-1
 575 39 l 1,26,-1
 939 39 l 2,27,28
 949 39 949 39 954.5 35.5 c 128,-1,29
 960 32 960 32 960 24 c 0,30,31
 960 11 960 11 953 5.5 c 128,-1,32
 946 0 946 0 937 0 c 2,33,-1
 400 0 l 2,0,1
401 39 m 2,34,-1
 533 39 l 1,35,-1
 633 666 l 1,36,-1
 474 666 l 2,37,38
 378 666 378 666 311.5 636 c 128,-1,39
 245 606 245 606 204 553 c 128,-1,40
 163 500 163 500 144.5 432 c 128,-1,41
 126 364 126 364 126 289 c 0,42,43
 126 168 126 168 195 103.5 c 128,-1,44
 264 39 264 39 401 39 c 2,34,-1
EndSplineSet
EndChar

StartChar: P
Encoding: 80 80 164
Width: 616
GlyphClass: 2
Flags: W
AnchorPoint: "Anchor-2" 278 0 basechar 0
AnchorPoint: "Anchor-0" 390 705 basechar 0
LayerCount: 2
Fore
SplineSet
81 -6 m 256,0,1
 71 -6 71 -6 65.5 0.5 c 128,-1,2
 60 7 60 7 61 18 c 2,3,-1
 167 685 l 2,4,5
 169 696 169 696 174.5 700.5 c 128,-1,6
 180 705 180 705 190 705 c 2,7,-1
 407 705 l 2,8,9
 507 705 507 705 564 659.5 c 128,-1,10
 621 614 621 614 621 521 c 0,11,12
 621 420 621 420 556.5 358.5 c 128,-1,13
 492 297 492 297 370 297 c 2,14,-1
 147 297 l 1,15,-1
 102 14 l 2,16,17
 101 4 101 4 96 -1 c 128,-1,18
 91 -6 91 -6 81 -6 c 256,0,1
154 336 m 1,19,-1
 374 336 l 2,20,21
 473 336 473 336 525 383 c 128,-1,22
 577 430 577 430 577 520 c 0,23,24
 577 596 577 596 533.5 631 c 128,-1,25
 490 666 490 666 407 666 c 2,26,-1
 206 666 l 1,27,-1
 154 336 l 1,19,-1
EndSplineSet
EndChar

StartChar: Thorn
Encoding: 222 222 165
Width: 616
GlyphClass: 2
Flags: W
AnchorPoint: "Anchor-2" 277 0 basechar 0
AnchorPoint: "Anchor-0" 389 705 basechar 0
LayerCount: 2
Fore
SplineSet
78 -6 m 0,0,1
 68 -6 68 -6 63.5 0.5 c 128,-1,2
 59 7 59 7 61 19 c 2,3,-1
 167 690 l 2,4,5
 169 701 169 701 175 706 c 128,-1,6
 181 711 181 711 191 711 c 256,7,8
 201 711 201 711 206 704 c 128,-1,9
 211 697 211 697 209 686 c 2,10,-1
 191 570 l 1,11,-1
 385 570 l 2,12,13
 485 570 485 570 542 524.5 c 128,-1,14
 599 479 599 479 599 386 c 0,15,16
 599 285 599 285 534.5 223.5 c 128,-1,17
 470 162 470 162 348 162 c 2,18,-1
 126 162 l 1,19,-1
 102 15 l 2,20,21
 101 5 101 5 95 -0.5 c 128,-1,22
 89 -6 89 -6 78 -6 c 0,0,1
132 201 m 1,23,-1
 352 201 l 2,24,25
 451 201 451 201 503 248 c 128,-1,26
 555 295 555 295 555 385 c 0,27,28
 555 461 555 461 511.5 496 c 128,-1,29
 468 531 468 531 385 531 c 2,30,-1
 184 531 l 1,31,-1
 132 201 l 1,23,-1
EndSplineSet
EndChar

StartChar: Q
Encoding: 81 81 166
Width: 751
GlyphClass: 2
Flags: W
AnchorPoint: "Anchor-5" 393 353 basechar 0
AnchorPoint: "Anchor-3" 401 0 basechar 0
AnchorPoint: "Anchor-2" 350 0 basechar 0
AnchorPoint: "Anchor-1" 487 705 basechar 0
AnchorPoint: "Anchor-0" 440 705 basechar 0
LayerCount: 2
Fore
SplineSet
547 -159 m 2,0,1
 551 -168 551 -168 549.5 -174.5 c 128,-1,2
 548 -181 548 -181 543.5 -184.5 c 128,-1,3
 539 -188 539 -188 533 -188.5 c 128,-1,4
 527 -189 527 -189 521.5 -186 c 128,-1,5
 516 -183 516 -183 512 -175 c 2,6,-1
 466 -74 l 2,7,8
 452 -42 452 -42 421 -25 c 128,-1,9
 390 -8 390 -8 347 -8 c 1,10,-1
 390 12 l 1,11,12
 431 10 431 10 457.5 -6 c 128,-1,13
 484 -22 484 -22 506 -69 c 2,14,-1
 547 -159 l 2,0,1
357 -8 m 0,15,16
 273 -8 273 -8 211.5 26 c 128,-1,17
 150 60 150 60 116 126.5 c 128,-1,18
 82 193 82 193 82 289 c 0,19,20
 82 378 82 378 104 455 c 128,-1,21
 126 532 126 532 170 590 c 128,-1,22
 214 648 214 648 279 680.5 c 128,-1,23
 344 713 344 713 429 713 c 0,24,25
 513 713 513 713 575 679 c 128,-1,26
 637 645 637 645 670.5 579 c 128,-1,27
 704 513 704 513 704 416 c 0,28,29
 704 327 704 327 682 250 c 128,-1,30
 660 173 660 173 616 115 c 128,-1,31
 572 57 572 57 507.5 24.5 c 128,-1,32
 443 -8 443 -8 357 -8 c 0,15,16
359 33 m 0,33,34
 457 33 457 33 523.5 83.5 c 128,-1,35
 590 134 590 134 624.5 221 c 128,-1,36
 659 308 659 308 659 416 c 0,37,38
 659 546 659 546 597.5 609 c 128,-1,39
 536 672 536 672 426 672 c 0,40,41
 329 672 329 672 262.5 621.5 c 128,-1,42
 196 571 196 571 161.5 484.5 c 128,-1,43
 127 398 127 398 127 289 c 0,44,45
 127 159 127 159 188.5 96 c 128,-1,46
 250 33 250 33 359 33 c 0,33,34
EndSplineSet
EndChar

StartChar: R
Encoding: 82 82 167
Width: 654
GlyphClass: 2
Flags: W
AnchorPoint: "Anchor-2" 305 0 basechar 0
AnchorPoint: "Anchor-0" 395 705 basechar 0
LayerCount: 2
Fore
SplineSet
79 -6 m 0,0,1
 69 -6 69 -6 64.5 0.5 c 128,-1,2
 60 7 60 7 62 19 c 2,3,-1
 167 684 l 2,4,5
 169 695 169 695 175 700 c 128,-1,6
 181 705 181 705 191 705 c 2,7,-1
 401 705 l 2,8,9
 512 705 512 705 566.5 655.5 c 128,-1,10
 621 606 621 606 621 520 c 0,11,12
 621 453 621 453 588.5 406.5 c 128,-1,13
 556 360 556 360 500 337 c 128,-1,14
 444 314 444 314 373 316 c 1,15,-1
 373 327 l 1,16,-1
 381 327 l 2,17,18
 421 327 421 327 447.5 303 c 128,-1,19
 474 279 474 279 491 234 c 2,20,-1
 571 24 l 2,21,22
 575 15 575 15 574.5 8 c 128,-1,23
 574 1 574 1 569.5 -2.5 c 128,-1,24
 565 -6 565 -6 557 -6 c 256,25,26
 549 -6 549 -6 544 -2 c 128,-1,27
 539 2 539 2 535 12 c 2,28,-1
 455 221 l 2,29,30
 436 271 436 271 406 291.5 c 128,-1,31
 376 312 376 312 317 312 c 2,32,-1
 149 312 l 1,33,-1
 102 15 l 2,34,35
 101 5 101 5 95.5 -0.5 c 128,-1,36
 90 -6 90 -6 79 -6 c 0,0,1
156 351 m 1,37,-1
 383 351 l 2,38,39
 474 351 474 351 525.5 395 c 128,-1,40
 577 439 577 439 577 519 c 0,41,42
 577 592 577 592 535 629 c 128,-1,43
 493 666 493 666 401 666 c 2,44,-1
 206 666 l 1,45,-1
 156 351 l 1,37,-1
EndSplineSet
EndChar

StartChar: S
Encoding: 83 83 175
Width: 600
GlyphClass: 2
Flags: W
AnchorPoint: "Anchor-2" 286 0 basechar 0
AnchorPoint: "Anchor-0" 361 705 basechar 0
LayerCount: 2
Fore
SplineSet
295 -8 m 0,0,1
 247 -8 247 -8 201.5 -0.5 c 128,-1,2
 156 7 156 7 115.5 24 c 128,-1,3
 75 41 75 41 43 69 c 0,4,5
 36 75 36 75 34.5 81.5 c 128,-1,6
 33 88 33 88 35 94 c 128,-1,7
 37 100 37 100 42 104 c 128,-1,8
 47 108 47 108 54 107.5 c 128,-1,9
 61 107 61 107 69 101 c 0,10,11
 119 61 119 61 174 47 c 128,-1,12
 229 33 229 33 297 33 c 0,13,14
 387 33 387 33 443.5 72.5 c 128,-1,15
 500 112 500 112 500 182 c 0,16,17
 500 229 500 229 467 263 c 128,-1,18
 434 297 434 297 348 316 c 2,19,-1
 249 340 l 2,20,21
 182 356 182 356 141 394.5 c 128,-1,22
 100 433 100 433 100 512 c 0,23,24
 100 557 100 557 119 594 c 128,-1,25
 138 631 138 631 172 657.5 c 128,-1,26
 206 684 206 684 251.5 698.5 c 128,-1,27
 297 713 297 713 349 713 c 0,28,29
 411 713 411 713 473 693.5 c 128,-1,30
 535 674 535 674 577 631 c 0,31,32
 583 625 583 625 584.5 617.5 c 128,-1,33
 586 610 586 610 583.5 604 c 128,-1,34
 581 598 581 598 576 594.5 c 128,-1,35
 571 591 571 591 564.5 591.5 c 128,-1,36
 558 592 558 592 550 599 c 0,37,38
 508 639 508 639 455.5 655.5 c 128,-1,39
 403 672 403 672 347 672 c 0,40,41
 290 672 290 672 244 652 c 128,-1,42
 198 632 198 632 171 596.5 c 128,-1,43
 144 561 144 561 144 512 c 0,44,45
 144 450 144 450 173 422 c 128,-1,46
 202 394 202 394 258 380 c 2,47,-1
 357 356 l 2,48,49
 456 334 456 334 500 291 c 128,-1,50
 544 248 544 248 544 186 c 0,51,52
 544 140 544 140 525 103.5 c 128,-1,53
 506 67 506 67 472.5 42.5 c 128,-1,54
 439 18 439 18 393.5 5 c 128,-1,55
 348 -8 348 -8 295 -8 c 0,0,1
EndSplineSet
EndChar

StartChar: uni1E9E
Encoding: 7838 7838 186
Width: 697
GlyphClass: 1
Flags: W
LayerCount: 2
Fore
SplineSet
378 -8 m 0,0,1
 326 -8 326 -8 277.5 8 c 128,-1,2
 229 24 229 24 198 51 c 0,3,4
 191 56 191 56 189.5 63 c 128,-1,5
 188 70 188 70 190 76 c 128,-1,6
 192 82 192 82 197 86 c 128,-1,7
 202 90 202 90 209 90 c 128,-1,8
 216 90 216 90 224 84 c 0,9,10
 257 59 257 59 297.5 46 c 128,-1,11
 338 33 338 33 381 33 c 0,12,13
 476 33 476 33 525 77.5 c 128,-1,14
 574 122 574 122 574 204 c 0,15,16
 574 269 574 269 531.5 302 c 128,-1,17
 489 335 489 335 411 335 c 2,18,-1
 289 335 l 2,19,20
 279 335 279 335 273.5 339.5 c 128,-1,21
 268 344 268 344 268 351 c 0,22,23
 268 365 268 365 275.5 369.5 c 128,-1,24
 283 374 283 374 292 374 c 2,25,-1
 409 374 l 2,26,27
 490 374 490 374 541.5 416 c 128,-1,28
 593 458 593 458 593 537 c 0,29,30
 593 599 593 599 547 635.5 c 128,-1,31
 501 672 501 672 416 672 c 0,32,33
 309 672 309 672 250 621.5 c 128,-1,34
 191 571 191 571 174 467 c 2,35,-1
 102 15 l 2,36,37
 101 5 101 5 95 -0.5 c 128,-1,38
 89 -6 89 -6 78 -6 c 0,39,40
 68 -6 68 -6 63.5 0.5 c 128,-1,41
 59 7 59 7 61 19 c 2,42,-1
 133 472 l 2,43,44
 146 553 146 553 181.5 606.5 c 128,-1,45
 217 660 217 660 276 686.5 c 128,-1,46
 335 713 335 713 419 713 c 0,47,48
 488 713 488 713 537 690.5 c 128,-1,49
 586 668 586 668 611.5 628.5 c 128,-1,50
 637 589 637 589 637 538 c 0,51,52
 637 458 637 458 590 409 c 128,-1,53
 543 360 543 360 475 349 c 1,54,-1
 475 363 l 1,55,56
 519 356 519 356 551 334.5 c 128,-1,57
 583 313 583 313 600.5 280 c 128,-1,58
 618 247 618 247 618 205 c 0,59,60
 618 137 618 137 590.5 89 c 128,-1,61
 563 41 563 41 509.5 16.5 c 128,-1,62
 456 -8 456 -8 378 -8 c 0,0,1
EndSplineSet
EndChar

StartChar: T
Encoding: 84 84 187
Width: 586
GlyphClass: 2
Flags: W
AnchorPoint: "Anchor-5" 311 358 basechar 0
AnchorPoint: "Anchor-2" 254 0 basechar 0
AnchorPoint: "Anchor-0" 366 705 basechar 0
LayerCount: 2
Fore
SplineSet
254 -6 m 0,0,1
 244 -6 244 -6 239.5 0.5 c 128,-1,2
 235 7 235 7 237 19 c 2,3,-1
 339 666 l 1,4,-1
 89 666 l 2,5,6
 79 666 79 666 73 670.5 c 128,-1,7
 67 675 67 675 67 683 c 0,8,9
 67 694 67 694 74 699.5 c 128,-1,10
 81 705 81 705 91 705 c 2,11,-1
 637 705 l 2,12,13
 648 705 648 705 653.5 701 c 128,-1,14
 659 697 659 697 659 689 c 0,15,16
 659 678 659 678 652.5 672 c 128,-1,17
 646 666 646 666 635 666 c 2,18,-1
 381 666 l 1,19,-1
 278 15 l 2,20,21
 277 5 277 5 271 -0.5 c 128,-1,22
 265 -6 265 -6 254 -6 c 0,0,1
EndSplineSet
EndChar

StartChar: U
Encoding: 85 85 194
Width: 720
GlyphClass: 2
Flags: W
AnchorPoint: "Anchor-3" 384 0 basechar 0
AnchorPoint: "Anchor-2" 322 0 basechar 0
AnchorPoint: "Anchor-1" 660 705 basechar 0
AnchorPoint: "Anchor-0" 433 705 basechar 0
LayerCount: 2
Fore
SplineSet
330 -8 m 0,0,1
 264 -8 264 -8 215 10.5 c 128,-1,2
 166 29 166 29 136 66.5 c 128,-1,3
 106 104 106 104 96 159.5 c 128,-1,4
 86 215 86 215 98 288 c 2,5,-1
 162 690 l 2,6,7
 164 701 164 701 170 706 c 128,-1,8
 176 711 176 711 186 711 c 256,9,10
 196 711 196 711 200.5 704.5 c 128,-1,11
 205 698 205 698 203 686 c 2,12,-1
 139 282 l 2,13,14
 119 156 119 156 168 94.5 c 128,-1,15
 217 33 217 33 330 33 c 256,16,17
 443 33 443 33 507 89 c 128,-1,18
 571 145 571 145 591 270 c 2,19,-1
 658 690 l 2,20,21
 660 701 660 701 666 706 c 128,-1,22
 672 711 672 711 682 711 c 256,23,24
 692 711 692 711 696.5 704.5 c 128,-1,25
 701 698 701 698 699 686 c 2,26,-1
 632 261 l 2,27,28
 618 171 618 171 580.5 111.5 c 128,-1,29
 543 52 543 52 480.5 22 c 128,-1,30
 418 -8 418 -8 330 -8 c 0,0,1
EndSplineSet
EndChar

StartChar: V
Encoding: 86 86 217
Width: 666
GlyphClass: 2
Flags: W
AnchorPoint: "Anchor-2" 295 0 basechar 0
AnchorPoint: "Anchor-0" 406 705 basechar 0
LayerCount: 2
Fore
SplineSet
293 -6 m 256,0,1
 282 -6 282 -6 275.5 0 c 128,-1,2
 269 6 269 6 266 18 c 2,3,-1
 88 679 l 2,4,5
 86 687 86 687 88 693 c 128,-1,6
 90 699 90 699 95 702 c 128,-1,7
 100 705 100 705 107 705 c 0,8,9
 116 705 116 705 121 700 c 128,-1,10
 126 695 126 695 129 685 c 2,11,-1
 308 24 l 1,12,-1
 284 24 l 1,13,-1
 675 689 l 2,14,15
 680 697 680 697 686 701 c 128,-1,16
 692 705 692 705 701 705 c 256,17,18
 710 705 710 705 714.5 701.5 c 128,-1,19
 719 698 719 698 720 691.5 c 128,-1,20
 721 685 721 685 716 677 c 2,21,-1
 324 14 l 2,22,23
 318 4 318 4 311 -1 c 128,-1,24
 304 -6 304 -6 293 -6 c 256,0,1
EndSplineSet
EndChar

StartChar: W
Encoding: 87 87 218
Width: 1091
GlyphClass: 2
Flags: W
AnchorPoint: "Anchor-2" 507 0 basechar 0
AnchorPoint: "Anchor-0" 618 705 basechar 0
LayerCount: 2
Fore
SplineSet
263 -6 m 0,0,1
 253 -6 253 -6 247 0.5 c 128,-1,2
 241 7 241 7 239 19 c 2,3,-1
 115 684 l 2,4,5
 113 697 113 697 118.5 704 c 128,-1,6
 124 711 124 711 135 711 c 0,7,8
 143 711 143 711 148.5 706.5 c 128,-1,9
 154 702 154 702 156 690 c 2,10,-1
 280 19 l 1,11,-1
 249 19 l 1,12,-1
 588 691 l 2,13,14
 593 702 593 702 599.5 706.5 c 128,-1,15
 606 711 606 711 615 711 c 256,16,17
 624 711 624 711 629.5 705 c 128,-1,18
 635 699 635 699 638 685 c 2,19,-1
 762 19 l 1,20,-1
 735 19 l 1,21,-1
 1075 695 l 2,22,23
 1079 703 1079 703 1085 707 c 128,-1,24
 1091 711 1091 711 1098 711 c 0,25,26
 1112 711 1112 711 1116 702 c 128,-1,27
 1120 693 1120 693 1114 681 c 2,28,-1
 777 14 l 2,29,30
 772 4 772 4 765.5 -1 c 128,-1,31
 759 -6 759 -6 748 -6 c 0,32,33
 738 -6 738 -6 731.5 0.5 c 128,-1,34
 725 7 725 7 723 19 c 2,35,-1
 602 671 l 1,36,-1
 622 671 l 1,37,-1
 291 14 l 2,38,39
 286 4 286 4 280 -1 c 128,-1,40
 274 -6 274 -6 263 -6 c 0,0,1
EndSplineSet
EndChar

StartChar: X
Encoding: 88 88 223
Width: 631
GlyphClass: 2
Flags: W
AnchorPoint: "Anchor-2" 278 0 basechar 0
AnchorPoint: "Anchor-0" 390 705 basechar 0
LayerCount: 2
Fore
SplineSet
21 -6 m 0,0,1
 14 -6 14 -6 8.5 -1.5 c 128,-1,2
 3 3 3 3 3 11 c 128,-1,3
 3 19 3 19 10 27 c 2,4,-1
 315 368 l 1,5,-1
 315 357 l 1,6,-1
 130 678 l 2,7,8
 125 688 125 688 125 695 c 128,-1,9
 125 702 125 702 130.5 706.5 c 128,-1,10
 136 711 136 711 144 711 c 0,11,12
 153 711 153 711 157.5 707 c 128,-1,13
 162 703 162 703 166 695 c 2,14,-1
 343 387 l 1,15,-1
 333 387 l 1,16,-1
 608 699 l 2,17,18
 613 705 613 705 619 708 c 128,-1,19
 625 711 625 711 632 711 c 256,20,21
 639 711 639 711 644.5 706.5 c 128,-1,22
 650 702 650 702 650.5 694.5 c 128,-1,23
 651 687 651 687 643 678 c 2,24,-1
 354 352 l 1,25,-1
 354 371 l 1,26,-1
 553 27 l 2,27,28
 559 18 559 18 558.5 10.5 c 128,-1,29
 558 3 558 3 553 -1.5 c 128,-1,30
 548 -6 548 -6 539 -6 c 256,31,32
 530 -6 530 -6 526 -1.5 c 128,-1,33
 522 3 522 3 517 10 c 2,34,-1
 325 342 l 1,35,-1
 344 342 l 1,36,-1
 44 6 l 2,37,38
 39 0 39 0 34 -3 c 128,-1,39
 29 -6 29 -6 21 -6 c 0,0,1
EndSplineSet
EndChar

StartChar: Y
Encoding: 89 89 224
Width: 577
GlyphClass: 2
Flags: W
AnchorPoint: "Anchor-2" 249 0 basechar 0
AnchorPoint: "Anchor-0" 356 705 basechar 0
LayerCount: 2
Fore
SplineSet
249 -6 m 0,0,1
 239 -6 239 -6 234.5 0.5 c 128,-1,2
 230 7 230 7 231 18 c 2,3,-1
 286 367 l 1,4,-1
 290 328 l 1,5,-1
 88 678 l 2,6,7
 83 688 83 688 83 695 c 128,-1,8
 83 702 83 702 88 706.5 c 128,-1,9
 93 711 93 711 101 711 c 0,10,11
 110 711 110 711 114.5 707 c 128,-1,12
 119 703 119 703 123 695 c 2,13,-1
 312 368 l 1,14,-1
 296 368 l 1,15,-1
 594 699 l 2,16,17
 599 705 599 705 604.5 708 c 128,-1,18
 610 711 610 711 617 711 c 256,19,20
 624 711 624 711 629 706.5 c 128,-1,21
 634 702 634 702 634.5 694.5 c 128,-1,22
 635 687 635 687 627 678 c 2,23,-1
 311 328 l 1,24,-1
 328 367 l 1,25,-1
 272 14 l 2,26,27
 269 -6 269 -6 249 -6 c 0,0,1
EndSplineSet
EndChar

StartChar: uni01B3
Encoding: 435 435 231
Width: 607
GlyphClass: 1
Flags: W
LayerCount: 2
Fore
SplineSet
248 -6 m 0,0,1
 238 -6 238 -6 233.5 1 c 128,-1,2
 229 8 229 8 231 21 c 2,3,-1
 286 367 l 1,4,-1
 290 328 l 1,5,-1
 85 682 l 2,6,7
 81 689 81 689 82 695.5 c 128,-1,8
 83 702 83 702 88 706.5 c 128,-1,9
 93 711 93 711 101 711 c 0,10,11
 106 711 106 711 109.5 709.5 c 128,-1,12
 113 708 113 708 116.5 704.5 c 128,-1,13
 120 701 120 701 123 695 c 2,14,-1
 312 368 l 1,15,-1
 296 368 l 1,16,-1
 543 644 l 2,17,18
 566 669 566 669 585.5 684 c 128,-1,19
 605 699 605 699 625.5 706 c 128,-1,20
 646 713 646 713 670 713 c 0,21,22
 691 713 691 713 704.5 708.5 c 128,-1,23
 718 704 718 704 718 692 c 0,24,25
 718 685 718 685 710.5 681 c 128,-1,26
 703 677 703 677 697.5 675 c 128,-1,27
 692 673 692 673 698 673 c 0,28,29
 701 673 701 673 686.5 674.5 c 128,-1,30
 672 676 672 676 666 676 c 0,31,32
 641 676 641 676 622 664.5 c 128,-1,33
 603 653 603 653 577 624 c 2,34,-1
 311 328 l 1,35,-1
 328 367 l 1,36,-1
 273 17 l 2,37,38
 269 -6 269 -6 248 -6 c 0,0,1
EndSplineSet
EndChar

StartChar: Z
Encoding: 90 90 235
Width: 575
GlyphClass: 2
Flags: W
AnchorPoint: "Anchor-2" 273 0 basechar 0
AnchorPoint: "Anchor-0" 364 705 basechar 0
LayerCount: 2
Fore
SplineSet
34 0 m 2,0,1
 27 0 27 0 22 3.5 c 128,-1,2
 17 7 17 7 15 13 c 128,-1,3
 13 19 13 19 15 26.5 c 128,-1,4
 17 34 17 34 24 42 c 2,5,-1
 566 689 l 1,6,-1
 566 666 l 1,7,-1
 134 666 l 2,8,9
 124 666 124 666 119 670.5 c 128,-1,10
 114 675 114 675 114 682 c 0,11,12
 114 695 114 695 121.5 700 c 128,-1,13
 129 705 129 705 137 705 c 2,14,-1
 588 705 l 2,15,16
 597 705 597 705 602.5 701.5 c 128,-1,17
 608 698 608 698 609.5 692 c 128,-1,18
 611 686 611 686 608 678.5 c 128,-1,19
 605 671 605 671 598 663 c 2,20,-1
 55 16 l 1,21,-1
 55 39 l 1,22,-1
 502 39 l 2,23,24
 512 39 512 39 517.5 35.5 c 128,-1,25
 523 32 523 32 523 24 c 0,26,27
 523 11 523 11 516 5.5 c 128,-1,28
 509 0 509 0 500 0 c 2,29,-1
 34 0 l 2,0,1
EndSplineSet
EndChar

StartChar: a
Encoding: 97 97 242
Width: 514
GlyphClass: 2
Flags: W
AnchorPoint: "Anchor-3" 392 0 basechar 0
AnchorPoint: "Anchor-2" 228 0 basechar 0
AnchorPoint: "Anchor-0" 300 484 basechar 0
LayerCount: 2
Fore
SplineSet
205 -8 m 0,0,1
 165 -8 165 -8 129 9.5 c 128,-1,2
 93 27 93 27 71 59 c 128,-1,3
 49 91 49 91 49 134 c 0,4,5
 49 185 49 185 77.5 216 c 128,-1,6
 106 247 106 247 167 261 c 128,-1,7
 228 275 228 275 324 275 c 2,8,-1
 405 275 l 1,9,-1
 399 238 l 1,10,-1
 340 238 l 2,11,12
 247 238 247 238 194 228.5 c 128,-1,13
 141 219 141 219 118.5 196.5 c 128,-1,14
 96 174 96 174 96 136 c 0,15,16
 96 84 96 84 130.5 57 c 128,-1,17
 165 30 165 30 208 30 c 0,18,19
 248 30 248 30 284.5 49 c 128,-1,20
 321 68 321 68 347 104 c 128,-1,21
 373 140 373 140 381 191 c 2,22,-1
 401 315 l 2,23,24
 412 383 412 383 385.5 418 c 128,-1,25
 359 453 359 453 289 453 c 0,26,27
 249 453 249 453 213.5 445 c 128,-1,28
 178 437 178 437 146 414 c 0,29,30
 138 408 138 408 130.5 408 c 128,-1,31
 123 408 123 408 118 412 c 128,-1,32
 113 416 113 416 112 422 c 128,-1,33
 111 428 111 428 114 435 c 128,-1,34
 117 442 117 442 126 448 c 0,35,36
 161 471 161 471 204 481.5 c 128,-1,37
 247 492 247 492 291 492 c 0,38,39
 350 492 350 492 386.5 469.5 c 128,-1,40
 423 447 423 447 437 404.5 c 128,-1,41
 451 362 451 362 441 302 c 2,42,-1
 395 15 l 2,43,44
 394 5 394 5 388 -0.5 c 128,-1,45
 382 -6 382 -6 372 -6 c 256,46,47
 362 -6 362 -6 358 1 c 128,-1,48
 354 8 354 8 355 19 c 2,49,-1
 370 116 l 1,50,-1
 380 116 l 1,51,52
 367 74 367 74 339.5 46.5 c 128,-1,53
 312 19 312 19 276.5 5.5 c 128,-1,54
 241 -8 241 -8 205 -8 c 0,0,1
EndSplineSet
Substitution2: "'ss01' Style Set 1 lookup 35 subtable" a.ss01
Substitution2: "'salt' Stylistic Alternatives lookup 34 subtable" a.ss01
Substitution2: "Single Substitution lookup 29 subtable" ordfeminine
AlternateSubs2: "'aalt' Access All Alternates lookup 1 subtable" a.ss01 ordfeminine
EndChar

StartChar: aogonek
Encoding: 261 261 265
Width: 514
GlyphClass: 1
Flags: W
LayerCount: 2
Fore
SplineSet
362 -190 m 0,0,1
 319 -190 319 -190 296 -165.5 c 128,-1,2
 273 -141 273 -141 273 -103 c 0,3,4
 273 -60 273 -60 298.5 -27 c 128,-1,5
 324 6 324 6 365 27 c 1,6,-1
 356 5 l 1,7,8
 355 9 355 9 354.5 12.5 c 128,-1,9
 354 16 354 16 355 20 c 2,10,-1
 370 116 l 1,11,-1
 380 116 l 1,12,13
 367 74 367 74 339.5 46.5 c 128,-1,14
 312 19 312 19 276.5 5.5 c 128,-1,15
 241 -8 241 -8 205 -8 c 0,16,17
 165 -8 165 -8 129 9.5 c 128,-1,18
 93 27 93 27 71 59 c 128,-1,19
 49 91 49 91 49 134 c 0,20,21
 49 185 49 185 77.5 216 c 128,-1,22
 106 247 106 247 167 261 c 128,-1,23
 228 275 228 275 324 275 c 2,24,-1
 405 275 l 1,25,-1
 399 238 l 1,26,-1
 340 238 l 2,27,28
 247 238 247 238 194 228.5 c 128,-1,29
 141 219 141 219 118.5 196.5 c 128,-1,30
 96 174 96 174 96 136 c 0,31,32
 96 84 96 84 130.5 57 c 128,-1,33
 165 30 165 30 208 30 c 0,34,35
 248 30 248 30 284.5 49 c 128,-1,36
 321 68 321 68 347 104 c 128,-1,37
 373 140 373 140 381 191 c 2,38,-1
 401 315 l 2,39,40
 412 383 412 383 385.5 418 c 128,-1,41
 359 453 359 453 289 453 c 0,42,43
 249 453 249 453 213.5 445 c 128,-1,44
 178 437 178 437 146 414 c 0,45,46
 138 408 138 408 130.5 408 c 128,-1,47
 123 408 123 408 118 412 c 128,-1,48
 113 416 113 416 112 422 c 128,-1,49
 111 428 111 428 114 435 c 128,-1,50
 117 442 117 442 126 448 c 0,51,52
 161 471 161 471 204 481.5 c 128,-1,53
 247 492 247 492 291 492 c 0,54,55
 350 492 350 492 386.5 469.5 c 128,-1,56
 423 447 423 447 437 404.5 c 128,-1,57
 451 362 451 362 441 302 c 2,58,-1
 395 15 l 2,59,60
 394 7 394 7 390 2 c 128,-1,61
 386 -3 386 -3 380 -6 c 0,62,63
 346 -23 346 -23 329 -47 c 128,-1,64
 312 -71 312 -71 312 -99 c 0,65,66
 312 -124 312 -124 325.5 -139 c 128,-1,67
 339 -154 339 -154 367 -154 c 0,68,69
 376 -154 376 -154 385.5 -152.5 c 128,-1,70
 395 -151 395 -151 406 -147 c 0,71,72
 415 -144 415 -144 420 -147.5 c 128,-1,73
 425 -151 425 -151 426.5 -158 c 128,-1,74
 428 -165 428 -165 426 -171.5 c 128,-1,75
 424 -178 424 -178 418 -180 c 0,76,77
 405 -185 405 -185 389 -187.5 c 128,-1,78
 373 -190 373 -190 362 -190 c 0,0,1
EndSplineSet
Substitution2: "'ss01' Style Set 1 lookup 35 subtable" aogonek.ss01
Substitution2: "'salt' Stylistic Alternatives lookup 34 subtable" aogonek.ss01
Substitution2: "'aalt' Access All Alternates lookup 0 subtable" aogonek.ss01
EndChar

StartChar: ae
Encoding: 230 230 269
Width: 857
GlyphClass: 2
Flags: W
AnchorPoint: "Anchor-2" 377 0 basechar 0
AnchorPoint: "Anchor-0" 444 484 basechar 0
LayerCount: 2
Fore
SplineSet
205 -8 m 0,0,1
 165 -8 165 -8 129 9.5 c 128,-1,2
 93 27 93 27 71 59 c 128,-1,3
 49 91 49 91 49 134 c 0,4,5
 49 185 49 185 77.5 215.5 c 128,-1,6
 106 246 106 246 167 260 c 128,-1,7
 228 274 228 274 324 274 c 2,8,-1
 405 274 l 1,9,-1
 399 237 l 1,10,-1
 340 237 l 2,11,12
 247 237 247 237 194 227.5 c 128,-1,13
 141 218 141 218 118.5 196 c 128,-1,14
 96 174 96 174 96 136 c 0,15,16
 96 84 96 84 130.5 57 c 128,-1,17
 165 30 165 30 208 30 c 0,18,19
 248 30 248 30 285 47 c 128,-1,20
 322 64 322 64 349 97.5 c 128,-1,21
 376 131 376 131 384 182 c 2,22,-1
 404 305 l 2,23,24
 416 380 416 380 387.5 416.5 c 128,-1,25
 359 453 359 453 289 453 c 0,26,27
 249 453 249 453 213.5 445 c 128,-1,28
 178 437 178 437 146 414 c 0,29,30
 138 408 138 408 130.5 408 c 128,-1,31
 123 408 123 408 118 412 c 128,-1,32
 113 416 113 416 112 422 c 128,-1,33
 111 428 111 428 114 435 c 128,-1,34
 117 442 117 442 126 448 c 0,35,36
 161 471 161 471 204 481.5 c 128,-1,37
 247 492 247 492 291 492 c 0,38,39
 364 492 364 492 404.5 456.5 c 128,-1,40
 445 421 445 421 449 354 c 1,41,-1
 419 354 l 1,42,43
 449 415 449 415 503.5 453.5 c 128,-1,44
 558 492 558 492 635 492 c 0,45,46
 689 492 689 492 725.5 473 c 128,-1,47
 762 454 762 454 783 421.5 c 128,-1,48
 804 389 804 389 811 347.5 c 128,-1,49
 818 306 818 306 812 262 c 2,50,-1
 811 254 l 2,51,52
 810 247 810 247 803.5 242 c 128,-1,53
 797 237 797 237 788 237 c 2,54,-1
 414 237 l 1,55,-1
 420 274 l 1,56,-1
 792 274 l 1,57,-1
 773 259 l 1,58,59
 781 313 781 313 769.5 357 c 128,-1,60
 758 401 758 401 725.5 427.5 c 128,-1,61
 693 454 693 454 634 454 c 0,62,63
 571 454 571 454 529 425.5 c 128,-1,64
 487 397 487 397 464.5 353.5 c 128,-1,65
 442 310 442 310 434 264 c 2,66,-1
 431 246 l 2,67,68
 415 150 415 150 458.5 90.5 c 128,-1,69
 502 31 502 31 593 31 c 0,70,71
 635 31 635 31 670 41 c 128,-1,72
 705 51 705 51 739 77 c 0,73,74
 748 84 748 84 755 84.5 c 128,-1,75
 762 85 762 85 767 81.5 c 128,-1,76
 772 78 772 78 773.5 72 c 128,-1,77
 775 66 775 66 772 58.5 c 128,-1,78
 769 51 769 51 761 45 c 0,79,80
 728 20 728 20 683.5 6 c 128,-1,81
 639 -8 639 -8 595 -8 c 0,82,83
 507 -8 507 -8 453 36 c 128,-1,84
 399 80 399 80 388 159 c 1,85,-1
 415 159 l 1,86,87
 392 73 392 73 334 32.5 c 128,-1,88
 276 -8 276 -8 205 -8 c 0,0,1
EndSplineSet
EndChar

StartChar: b
Encoding: 98 98 271
Width: 568
GlyphClass: 2
Flags: W
AnchorPoint: "Anchor-2" 271 0 basechar 0
AnchorPoint: "Anchor-0" 373 705 basechar 0
LayerCount: 2
Fore
SplineSet
275 -8 m 0,0,1
 214 -8 214 -8 166 23.5 c 128,-1,2
 118 55 118 55 101 122 c 1,3,-1
 109 122 l 1,4,-1
 92 15 l 2,5,6
 91 5 91 5 85 -0.5 c 128,-1,7
 79 -6 79 -6 68 -6 c 0,8,9
 58 -6 58 -6 53.5 0.5 c 128,-1,10
 49 7 49 7 51 19 c 2,11,-1
 157 690 l 2,12,13
 159 701 159 701 165 706 c 128,-1,14
 171 711 171 711 181 711 c 256,15,16
 191 711 191 711 195.5 704.5 c 128,-1,17
 200 698 200 698 198 686 c 2,18,-1
 148 371 l 1,19,-1
 136 371 l 1,20,21
 162 427 162 427 211 459.5 c 128,-1,22
 260 492 260 492 327 492 c 0,23,24
 384 492 384 492 427 467 c 128,-1,25
 470 442 470 442 493.5 396 c 128,-1,26
 517 350 517 350 517 286 c 0,27,28
 517 208 517 208 489.5 141 c 128,-1,29
 462 74 462 74 408 33 c 128,-1,30
 354 -8 354 -8 275 -8 c 0,0,1
277 31 m 0,31,32
 341 31 341 31 385 66 c 128,-1,33
 429 101 429 101 451.5 159 c 128,-1,34
 474 217 474 217 474 286 c 0,35,36
 474 369 474 369 433.5 411 c 128,-1,37
 393 453 393 453 321 453 c 0,38,39
 257 453 257 453 213 418 c 128,-1,40
 169 383 169 383 146.5 325.5 c 128,-1,41
 124 268 124 268 124 198 c 0,42,43
 124 116 124 116 164.5 73.5 c 128,-1,44
 205 31 205 31 277 31 c 0,31,32
EndSplineSet
EndChar

StartChar: uni0253
Encoding: 595 595 272
Width: 568
GlyphClass: 1
Flags: W
LayerCount: 2
Fore
SplineSet
275 -8 m 0,0,1
 214 -8 214 -8 166 23.5 c 128,-1,2
 118 55 118 55 101 122 c 1,3,-1
 108 122 l 1,4,-1
 91 15 l 2,5,6
 90 5 90 5 84.5 -0.5 c 128,-1,7
 79 -6 79 -6 68 -6 c 0,8,9
 58 -6 58 -6 53 0.5 c 128,-1,10
 48 7 48 7 50 19 c 2,11,-1
 137 567 l 2,12,13
 149 643 149 643 188.5 678 c 128,-1,14
 228 713 228 713 298 713 c 0,15,16
 326 713 326 713 337.5 707.5 c 128,-1,17
 349 702 349 702 349 691 c 0,18,19
 349 682 349 682 342.5 677.5 c 128,-1,20
 336 673 336 673 327 673 c 0,21,22
 323 673 323 673 313 674 c 128,-1,23
 303 675 303 675 295 675 c 0,24,25
 247 675 247 675 217 648 c 128,-1,26
 187 621 187 621 179 566 c 2,27,-1
 148 371 l 1,28,-1
 136 371 l 1,29,30
 162 427 162 427 211 459.5 c 128,-1,31
 260 492 260 492 327 492 c 0,32,33
 384 492 384 492 427 467 c 128,-1,34
 470 442 470 442 493.5 396 c 128,-1,35
 517 350 517 350 517 286 c 0,36,37
 517 208 517 208 489.5 141 c 128,-1,38
 462 74 462 74 408 33 c 128,-1,39
 354 -8 354 -8 275 -8 c 0,0,1
277 31 m 0,40,41
 341 31 341 31 385 66 c 128,-1,42
 429 101 429 101 451.5 159 c 128,-1,43
 474 217 474 217 474 286 c 0,44,45
 474 369 474 369 433.5 411 c 128,-1,46
 393 453 393 453 321 453 c 0,47,48
 257 453 257 453 213 418 c 128,-1,49
 169 383 169 383 146.5 325.5 c 128,-1,50
 124 268 124 268 124 198 c 0,51,52
 124 116 124 116 164.5 73.5 c 128,-1,53
 205 31 205 31 277 31 c 0,40,41
EndSplineSet
EndChar

StartChar: c
Encoding: 99 99 273
Width: 455
GlyphClass: 2
Flags: W
AnchorPoint: "Anchor-2" 235 0 basechar 0
AnchorPoint: "Anchor-0" 297 484 basechar 0
LayerCount: 2
Fore
SplineSet
248 -8 m 0,0,1
 181 -8 181 -8 137.5 18.5 c 128,-1,2
 94 45 94 45 73 92.5 c 128,-1,3
 52 140 52 140 52 202 c 0,4,5
 52 255 52 255 66 306.5 c 128,-1,6
 80 358 80 358 109.5 400 c 128,-1,7
 139 442 139 442 185.5 467 c 128,-1,8
 232 492 232 492 297 492 c 0,9,10
 336 492 336 492 372.5 480 c 128,-1,11
 409 468 409 468 434 448 c 0,12,13
 443 441 443 441 447 433 c 128,-1,14
 451 425 451 425 450 418 c 128,-1,15
 449 411 449 411 444.5 407 c 128,-1,16
 440 403 440 403 434 403.5 c 128,-1,17
 428 404 428 404 420 410 c 0,18,19
 393 433 393 433 362.5 443 c 128,-1,20
 332 453 332 453 295 453 c 0,21,22
 242 453 242 453 204 431.5 c 128,-1,23
 166 410 166 410 142 373.5 c 128,-1,24
 118 337 118 337 106.5 292.5 c 128,-1,25
 95 248 95 248 95 202 c 0,26,27
 95 124 95 124 131.5 77.5 c 128,-1,28
 168 31 168 31 250 31 c 0,29,30
 278 31 278 31 308.5 40.5 c 128,-1,31
 339 50 339 50 366 71 c 0,32,33
 373 77 373 77 380 77 c 128,-1,34
 387 77 387 77 391.5 73.5 c 128,-1,35
 396 70 396 70 398 64 c 128,-1,36
 400 58 400 58 398 51.5 c 128,-1,37
 396 45 396 45 390 40 c 0,38,39
 362 17 362 17 323.5 4.5 c 128,-1,40
 285 -8 285 -8 248 -8 c 0,0,1
EndSplineSet
EndChar

StartChar: d
Encoding: 100 100 280
Width: 568
GlyphClass: 2
Flags: W
AnchorPoint: "Anchor-5" 289 245 basechar 0
AnchorPoint: "Anchor-4" 467 580 basechar 0
AnchorPoint: "Anchor-2" 250 0 basechar 0
AnchorPoint: "Anchor-1" 606 705 basechar 0
AnchorPoint: "Anchor-0" 327 484 basechar 0
LayerCount: 2
Fore
SplineSet
241 -8 m 0,0,1
 184 -8 184 -8 141.5 17 c 128,-1,2
 99 42 99 42 75 88.5 c 128,-1,3
 51 135 51 135 51 198 c 0,4,5
 51 276 51 276 78.5 343 c 128,-1,6
 106 410 106 410 160 451 c 128,-1,7
 214 492 214 492 293 492 c 0,8,9
 354 492 354 492 402 460.5 c 128,-1,10
 450 429 450 429 467 362 c 1,11,-1
 460 362 l 1,12,-1
 512 690 l 2,13,14
 514 701 514 701 520 706 c 128,-1,15
 526 711 526 711 536 711 c 256,16,17
 546 711 546 711 550.5 704.5 c 128,-1,18
 555 698 555 698 553 686 c 2,19,-1
 447 15 l 2,20,21
 446 5 446 5 440 -0.5 c 128,-1,22
 434 -6 434 -6 423 -6 c 0,23,24
 413 -6 413 -6 408.5 0.5 c 128,-1,25
 404 7 404 7 406 19 c 2,26,-1
 421 113 l 1,27,-1
 432 113 l 1,28,29
 407 58 407 58 358 25 c 128,-1,30
 309 -8 309 -8 241 -8 c 0,0,1
247 31 m 0,31,32
 311 31 311 31 355 66 c 128,-1,33
 399 101 399 101 421.5 159 c 128,-1,34
 444 217 444 217 444 286 c 0,35,36
 444 369 444 369 403.5 411 c 128,-1,37
 363 453 363 453 291 453 c 0,38,39
 227 453 227 453 183 418 c 128,-1,40
 139 383 139 383 116.5 325.5 c 128,-1,41
 94 268 94 268 94 198 c 0,42,43
 94 116 94 116 134.5 73.5 c 128,-1,44
 175 31 175 31 247 31 c 0,31,32
EndSplineSet
EndChar

StartChar: eth
Encoding: 240 240 281
Width: 541
GlyphClass: 1
Flags: W
LayerCount: 2
Fore
SplineSet
245 -8 m 0,0,1
 189 -8 189 -8 144.5 15 c 128,-1,2
 100 38 100 38 74 81.5 c 128,-1,3
 48 125 48 125 48 184 c 0,4,5
 48 264 48 264 80 324.5 c 128,-1,6
 112 385 112 385 167 419.5 c 128,-1,7
 222 454 222 454 292 454 c 0,8,9
 341 454 341 454 380 435.5 c 128,-1,10
 419 417 419 417 443.5 380 c 128,-1,11
 468 343 468 343 470 286 c 1,12,-1
 456 286 l 1,13,14
 461 397 461 397 433 481.5 c 128,-1,15
 405 566 405 566 339 618 c 1,16,-1
 352 617 l 1,17,-1
 211 557 l 2,18,19
 202 553 202 553 195.5 556 c 128,-1,20
 189 559 189 559 186 565.5 c 128,-1,21
 183 572 183 572 185.5 579 c 128,-1,22
 188 586 188 586 197 590 c 2,23,-1
 320 642 l 1,24,-1
 320 632 l 1,25,26
 300 645 300 645 277 656 c 128,-1,27
 254 667 254 667 228 675 c 0,28,29
 217 678 217 678 213.5 685 c 128,-1,30
 210 692 210 692 212 698.5 c 128,-1,31
 214 705 214 705 221.5 708 c 128,-1,32
 229 711 229 711 239 708 c 0,33,34
 274 696 274 696 302.5 682.5 c 128,-1,35
 331 669 331 669 356 650 c 1,36,-1
 342 651 l 1,37,-1
 474 706 l 2,38,39
 485 711 485 711 492 708 c 128,-1,40
 499 705 499 705 501.5 698 c 128,-1,41
 504 691 504 691 501 684 c 128,-1,42
 498 677 498 677 488 673 c 2,43,-1
 372 625 l 1,44,-1
 374 635 l 1,45,46
 416 600 416 600 442.5 551.5 c 128,-1,47
 469 503 469 503 482 443.5 c 128,-1,48
 495 384 495 384 494 312 c 0,49,50
 494 252 494 252 480.5 195 c 128,-1,51
 467 138 467 138 438 92 c 128,-1,52
 409 46 409 46 361.5 19 c 128,-1,53
 314 -8 314 -8 245 -8 c 0,0,1
246 31 m 0,54,55
 301 31 301 31 345.5 57.5 c 128,-1,56
 390 84 390 84 417 135 c 128,-1,57
 444 186 444 186 444 259 c 0,58,59
 444 334 444 334 402.5 374.5 c 128,-1,60
 361 415 361 415 289 415 c 0,61,62
 235 415 235 415 190 388.5 c 128,-1,63
 145 362 145 362 118 311 c 128,-1,64
 91 260 91 260 91 187 c 0,65,66
 91 112 91 112 132.5 71.5 c 128,-1,67
 174 31 174 31 246 31 c 0,54,55
EndSplineSet
EndChar

StartChar: dcroat
Encoding: 273 273 283
Width: 568
GlyphClass: 1
Flags: W
LayerCount: 2
Fore
SplineSet
241 -8 m 0,0,1
 184 -8 184 -8 141.5 17 c 128,-1,2
 99 42 99 42 75 88.5 c 128,-1,3
 51 135 51 135 51 198 c 0,4,5
 51 276 51 276 78.5 343 c 128,-1,6
 106 410 106 410 160 451 c 128,-1,7
 214 492 214 492 293 492 c 0,8,9
 354 492 354 492 402 460.5 c 128,-1,10
 450 429 450 429 467 362 c 1,11,-1
 459 362 l 1,12,-1
 491 562 l 1,13,-1
 313 562 l 2,14,15
 303 562 303 562 297 566 c 128,-1,16
 291 570 291 570 291 577 c 0,17,18
 291 588 291 588 298 593 c 128,-1,19
 305 598 305 598 315 598 c 2,20,-1
 505 598 l 1,21,-1
 494 579 l 1,22,-1
 512 690 l 2,23,24
 514 701 514 701 520 706 c 128,-1,25
 526 711 526 711 536 711 c 256,26,27
 546 711 546 711 550.5 704.5 c 128,-1,28
 555 698 555 698 553 686 c 2,29,-1
 536 579 l 1,30,-1
 533 598 l 1,31,-1
 615 598 l 2,32,33
 626 598 626 598 631.5 594.5 c 128,-1,34
 637 591 637 591 637 583 c 0,35,36
 637 573 637 573 630.5 567.5 c 128,-1,37
 624 562 624 562 613 562 c 2,38,-1
 533 562 l 1,39,-1
 446 15 l 2,40,41
 445 5 445 5 439 -0.5 c 128,-1,42
 433 -6 433 -6 422 -6 c 0,43,44
 412 -6 412 -6 407.5 0.5 c 128,-1,45
 403 7 403 7 405 19 c 2,46,-1
 420 113 l 1,47,-1
 432 113 l 1,48,49
 407 58 407 58 358 25 c 128,-1,50
 309 -8 309 -8 241 -8 c 0,0,1
247 31 m 0,51,52
 311 31 311 31 355 66 c 128,-1,53
 399 101 399 101 421.5 159 c 128,-1,54
 444 217 444 217 444 286 c 0,55,56
 444 369 444 369 403.5 411 c 128,-1,57
 363 453 363 453 291 453 c 0,58,59
 227 453 227 453 183 418 c 128,-1,60
 139 383 139 383 116.5 325.5 c 128,-1,61
 94 268 94 268 94 198 c 0,62,63
 94 116 94 116 134.5 73.5 c 128,-1,64
 175 31 175 31 247 31 c 0,51,52
EndSplineSet
EndChar

StartChar: uni0257
Encoding: 599 599 285
Width: 568
GlyphClass: 1
Flags: W
LayerCount: 2
Fore
SplineSet
241 -8 m 0,0,1
 184 -8 184 -8 141.5 17 c 128,-1,2
 99 42 99 42 75 88.5 c 128,-1,3
 51 135 51 135 51 198 c 0,4,5
 51 276 51 276 78.5 343 c 128,-1,6
 106 410 106 410 160 451 c 128,-1,7
 214 492 214 492 293 492 c 0,8,9
 354 492 354 492 402 460.5 c 128,-1,10
 450 429 450 429 467 362 c 1,11,-1
 460 362 l 1,12,-1
 492 567 l 2,13,14
 504 643 504 643 543.5 678 c 128,-1,15
 583 713 583 713 652 713 c 0,16,17
 680 713 680 713 691.5 707.5 c 128,-1,18
 703 702 703 702 703 691 c 0,19,20
 703 682 703 682 696.5 677.5 c 128,-1,21
 690 673 690 673 681 673 c 0,22,23
 677 673 677 673 667 674 c 128,-1,24
 657 675 657 675 649 675 c 0,25,26
 601 675 601 675 572 648 c 128,-1,27
 543 621 543 621 534 566 c 2,28,-1
 447 15 l 2,29,30
 446 5 446 5 440 -0.5 c 128,-1,31
 434 -6 434 -6 423 -6 c 0,32,33
 413 -6 413 -6 408.5 0.5 c 128,-1,34
 404 7 404 7 406 19 c 2,35,-1
 421 113 l 1,36,-1
 432 113 l 1,37,38
 407 58 407 58 358 25 c 128,-1,39
 309 -8 309 -8 241 -8 c 0,0,1
247 31 m 0,40,41
 311 31 311 31 355 66 c 128,-1,42
 399 101 399 101 421.5 159 c 128,-1,43
 444 217 444 217 444 286 c 0,44,45
 444 369 444 369 403.5 411 c 128,-1,46
 363 453 363 453 291 453 c 0,47,48
 227 453 227 453 183 418 c 128,-1,49
 139 383 139 383 116.5 325.5 c 128,-1,50
 94 268 94 268 94 198 c 0,51,52
 94 116 94 116 134.5 73.5 c 128,-1,53
 175 31 175 31 247 31 c 0,40,41
EndSplineSet
EndChar

StartChar: e
Encoding: 101 101 288
Width: 523
GlyphClass: 2
Flags: W
AnchorPoint: "Anchor-3" 303 0 basechar 0
AnchorPoint: "Anchor-2" 245 0 basechar 0
AnchorPoint: "Anchor-0" 305 484 basechar 0
LayerCount: 2
Fore
SplineSet
261 -8 m 0,0,1
 196 -8 196 -8 148.5 17 c 128,-1,2
 101 42 101 42 76 88.5 c 128,-1,3
 51 135 51 135 51 200 c 0,4,5
 51 277 51 277 80 343.5 c 128,-1,6
 109 410 109 410 165 451 c 128,-1,7
 221 492 221 492 301 492 c 0,8,9
 355 492 355 492 391.5 472.5 c 128,-1,10
 428 453 428 453 449.5 420 c 128,-1,11
 471 387 471 387 477.5 345 c 128,-1,12
 484 303 484 303 478 259 c 0,13,14
 476 245 476 245 471 239.5 c 128,-1,15
 466 234 466 234 453 234 c 2,16,-1
 80 234 l 1,17,-1
 86 271 l 1,18,-1
 458 271 l 1,19,-1
 439 259 l 1,20,21
 447 313 447 313 435.5 357 c 128,-1,22
 424 401 424 401 391.5 427.5 c 128,-1,23
 359 454 359 454 300 454 c 0,24,25
 237 454 237 454 195.5 425.5 c 128,-1,26
 154 397 154 397 131 353.5 c 128,-1,27
 108 310 108 310 100 264 c 2,28,-1
 97 246 l 2,29,30
 81 150 81 150 124.5 90.5 c 128,-1,31
 168 31 168 31 259 31 c 0,32,33
 301 31 301 31 336 41.5 c 128,-1,34
 371 52 371 52 405 77 c 0,35,36
 414 84 414 84 421 84.5 c 128,-1,37
 428 85 428 85 433 81.5 c 128,-1,38
 438 78 438 78 439.5 72 c 128,-1,39
 441 66 441 66 438 58.5 c 128,-1,40
 435 51 435 51 427 45 c 0,41,42
 394 20 394 20 349.5 6 c 128,-1,43
 305 -8 305 -8 261 -8 c 0,0,1
EndSplineSet
EndChar

StartChar: uni0259
Encoding: 601 601 311
Width: 523
GlyphClass: 1
Flags: W
LayerCount: 2
Fore
SplineSet
222 -8 m 0,0,1
 149 -8 149 -8 107 27 c 128,-1,2
 65 62 65 62 50.5 117 c 128,-1,3
 36 172 36 172 46 232 c 0,4,5
 48 241 48 241 54 245.5 c 128,-1,6
 60 250 60 250 70 250 c 2,7,-1
 443 250 l 1,8,-1
 437 213 l 1,9,-1
 65 213 l 1,10,-1
 84 225 l 1,11,12
 77 172 77 172 88 127.5 c 128,-1,13
 99 83 99 83 132 56.5 c 128,-1,14
 165 30 165 30 223 30 c 0,15,16
 287 30 287 30 328.5 58.5 c 128,-1,17
 370 87 370 87 393 131 c 128,-1,18
 416 175 416 175 423 220 c 2,19,-1
 426 238 l 2,20,21
 442 334 442 334 398.5 393.5 c 128,-1,22
 355 453 355 453 264 453 c 0,23,24
 222 453 222 453 184.5 441.5 c 128,-1,25
 147 430 147 430 116 404 c 0,26,27
 108 397 108 397 101.5 396.5 c 128,-1,28
 95 396 95 396 90 399 c 128,-1,29
 85 402 85 402 82.5 408 c 128,-1,30
 80 414 80 414 82 420.5 c 128,-1,31
 84 427 84 427 90 433 c 0,32,33
 121 462 121 462 169.5 477 c 128,-1,34
 218 492 218 492 262 492 c 0,35,36
 328 492 328 492 375 467 c 128,-1,37
 422 442 422 442 447 395.5 c 128,-1,38
 472 349 472 349 472 284 c 0,39,40
 472 207 472 207 443 140.5 c 128,-1,41
 414 74 414 74 358 33 c 128,-1,42
 302 -8 302 -8 222 -8 c 0,0,1
EndSplineSet
EndChar

StartChar: f
Encoding: 102 102 314
Width: 306
GlyphClass: 2
Flags: W
AnchorPoint: "Anchor-2" 88 0 basechar 0
AnchorPoint: "Anchor-0" 200 705 basechar 0
LayerCount: 2
Fore
SplineSet
87 -6 m 0,0,1
 77 -6 77 -6 72.5 0.5 c 128,-1,2
 68 7 68 7 70 19 c 2,3,-1
 138 448 l 1,4,-1
 63 448 l 2,5,6
 54 448 54 448 49.5 451.5 c 128,-1,7
 45 455 45 455 45 462 c 0,8,9
 45 473 45 473 51.5 478.5 c 128,-1,10
 58 484 58 484 69 484 c 2,11,-1
 152 484 l 1,12,-1
 142 474 l 1,13,-1
 151 533 l 2,14,15
 163 611 163 611 211 655.5 c 128,-1,16
 259 700 259 700 337 705 c 2,17,-1
 366 707 l 2,18,19
 375 708 375 708 380 704.5 c 128,-1,20
 385 701 385 701 387 695.5 c 128,-1,21
 389 690 389 690 388 684 c 128,-1,22
 387 678 387 678 382.5 674 c 128,-1,23
 378 670 378 670 371 669 c 2,24,-1
 339 667 l 2,25,26
 275 663 275 663 239 628.5 c 128,-1,27
 203 594 203 594 192 528 c 2,28,-1
 184 477 l 1,29,-1
 179 484 l 1,30,-1
 312 484 l 2,31,32
 322 484 322 484 326 481 c 128,-1,33
 330 478 330 478 330 471 c 0,34,35
 330 459 330 459 323.5 453.5 c 128,-1,36
 317 448 317 448 306 448 c 2,37,-1
 180 448 l 1,38,-1
 111 15 l 2,39,40
 108 -6 108 -6 87 -6 c 0,0,1
EndSplineSet
EndChar

StartChar: g
Encoding: 103 103 315
Width: 570
GlyphClass: 2
Flags: W
AnchorPoint: "Anchor-0" 326 484 basechar 0
LayerCount: 2
Fore
SplineSet
241 -188 m 0,0,1
 184 -188 184 -188 136.5 -170 c 128,-1,2
 89 -152 89 -152 49 -123 c 0,3,4
 43 -119 43 -119 42 -113 c 128,-1,5
 41 -107 41 -107 43.5 -101 c 128,-1,6
 46 -95 46 -95 50.5 -91 c 128,-1,7
 55 -87 55 -87 61.5 -86.5 c 128,-1,8
 68 -86 68 -86 75 -91 c 0,9,10
 113 -119 113 -119 150.5 -134 c 128,-1,11
 188 -149 188 -149 239 -149 c 0,12,13
 307 -149 307 -149 350 -112.5 c 128,-1,14
 393 -76 393 -76 405 0 c 2,15,-1
 426 133 l 1,16,-1
 434 132 l 1,17,18
 409 77 409 77 359.5 44 c 128,-1,19
 310 11 310 11 242 11 c 0,20,21
 185 11 185 11 142 35.5 c 128,-1,22
 99 60 99 60 75 104.5 c 128,-1,23
 51 149 51 149 51 208 c 0,24,25
 51 263 51 263 66.5 314 c 128,-1,26
 82 365 82 365 113 405 c 128,-1,27
 144 445 144 445 189 468.5 c 128,-1,28
 234 492 234 492 294 492 c 0,29,30
 356 492 356 492 404 460.5 c 128,-1,31
 452 429 452 429 469 362 c 1,32,-1
 461 362 l 1,33,-1
 478 469 l 2,34,35
 480 480 480 480 486 485 c 128,-1,36
 492 490 492 490 502 490 c 256,37,38
 512 490 512 490 516.5 483.5 c 128,-1,39
 521 477 521 477 519 465 c 2,40,-1
 446 2 l 2,41,42
 430 -95 430 -95 379.5 -141.5 c 128,-1,43
 329 -188 329 -188 241 -188 c 0,0,1
248 50 m 0,44,45
 313 50 313 50 357 84.5 c 128,-1,46
 401 119 401 119 423.5 175 c 128,-1,47
 446 231 446 231 446 296 c 0,48,49
 446 371 446 371 405.5 412 c 128,-1,50
 365 453 365 453 292 453 c 0,51,52
 228 453 228 453 183.5 418.5 c 128,-1,53
 139 384 139 384 116.5 328.5 c 128,-1,54
 94 273 94 273 94 208 c 0,55,56
 94 132 94 132 134.5 91 c 128,-1,57
 175 50 175 50 248 50 c 0,44,45
EndSplineSet
EndChar

StartChar: uni01E5
Encoding: 485 485 322
Width: 570
GlyphClass: 1
Flags: W
LayerCount: 2
Fore
SplineSet
242 -188 m 0,0,1
 184 -188 184 -188 137 -170 c 128,-1,2
 90 -152 90 -152 50 -123 c 0,3,4
 44 -119 44 -119 43 -113 c 128,-1,5
 42 -107 42 -107 44.5 -101 c 128,-1,6
 47 -95 47 -95 51.5 -91 c 128,-1,7
 56 -87 56 -87 62.5 -86.5 c 128,-1,8
 69 -86 69 -86 76 -91 c 0,9,10
 114 -119 114 -119 151.5 -134 c 128,-1,11
 189 -149 189 -149 240 -149 c 0,12,13
 295 -149 295 -149 333.5 -125.5 c 128,-1,14
 372 -102 372 -102 391 -54 c 1,15,-1
 395 -63 l 1,16,-1
 283 -63 l 2,17,18
 274 -63 274 -63 269 -59 c 128,-1,19
 264 -55 264 -55 264 -47 c 0,20,21
 264 -36 264 -36 271 -31.5 c 128,-1,22
 278 -27 278 -27 285 -27 c 2,23,-1
 406 -27 l 1,24,-1
 399 -32 l 1,25,26
 401 -24 401 -24 403 -16 c 128,-1,27
 405 -8 405 -8 406 0 c 2,28,-1
 430 153 l 1,29,-1
 435 152 l 1,30,31
 410 97 410 97 360.5 64 c 128,-1,32
 311 31 311 31 243 31 c 0,33,34
 186 31 186 31 143 55.5 c 128,-1,35
 100 80 100 80 76 122 c 128,-1,36
 52 164 52 164 52 218 c 0,37,38
 52 269 52 269 67.5 318 c 128,-1,39
 83 367 83 367 114 406 c 128,-1,40
 145 445 145 445 190 468.5 c 128,-1,41
 235 492 235 492 295 492 c 0,42,43
 357 492 357 492 405 460.5 c 128,-1,44
 453 429 453 429 470 362 c 1,45,-1
 463 362 l 1,46,-1
 480 469 l 2,47,48
 482 480 482 480 487.5 485 c 128,-1,49
 493 490 493 490 503 490 c 256,50,51
 513 490 513 490 517.5 483.5 c 128,-1,52
 522 477 522 477 520 465 c 2,53,-1
 447 2 l 2,54,55
 446 -7 446 -7 444 -15 c 128,-1,56
 442 -23 442 -23 440 -31 c 1,57,-1
 437 -27 l 1,58,-1
 498 -27 l 2,59,60
 507 -27 507 -27 512 -31 c 128,-1,61
 517 -35 517 -35 517 -43 c 0,62,63
 517 -54 517 -54 510.5 -58.5 c 128,-1,64
 504 -63 504 -63 496 -63 c 2,65,-1
 425 -63 l 1,66,-1
 433 -57 l 1,67,68
 411 -124 411 -124 363 -156 c 128,-1,69
 315 -188 315 -188 242 -188 c 0,0,1
249 70 m 0,70,71
 314 70 314 70 358 104 c 128,-1,72
 402 138 402 138 424.5 192 c 128,-1,73
 447 246 447 246 447 306 c 0,74,75
 447 374 447 374 406.5 413.5 c 128,-1,76
 366 453 366 453 293 453 c 0,77,78
 229 453 229 453 184.5 419 c 128,-1,79
 140 385 140 385 117.5 331.5 c 128,-1,80
 95 278 95 278 95 218 c 0,81,82
 95 150 95 150 135.5 110 c 128,-1,83
 176 70 176 70 249 70 c 0,70,71
EndSplineSet
EndChar

StartChar: h
Encoding: 104 104 323
Width: 553
GlyphClass: 2
Flags: W
AnchorPoint: "Anchor-5" 277 245 basechar 0
AnchorPoint: "Anchor-4" 210 580 basechar 0
AnchorPoint: "Anchor-2" 246 0 basechar 0
AnchorPoint: "Anchor-1" 242 705 basechar 0
AnchorPoint: "Anchor-0" 351 705 basechar 0
LayerCount: 2
Fore
SplineSet
67 -6 m 0,0,1
 57 -6 57 -6 52.5 0.5 c 128,-1,2
 48 7 48 7 50 19 c 2,3,-1
 156 690 l 2,4,5
 158 701 158 701 164 706 c 128,-1,6
 170 711 170 711 180 711 c 256,7,8
 190 711 190 711 194.5 704.5 c 128,-1,9
 199 698 199 698 197 686 c 2,10,-1
 146 364 l 1,11,-1
 135 364 l 1,12,13
 160 424 160 424 210 458 c 128,-1,14
 260 492 260 492 331 492 c 0,15,16
 385 492 385 492 421.5 470.5 c 128,-1,17
 458 449 458 449 473.5 405.5 c 128,-1,18
 489 362 489 362 478 295 c 2,19,-1
 434 15 l 2,20,21
 433 5 433 5 426.5 -0.5 c 128,-1,22
 420 -6 420 -6 409 -6 c 0,23,24
 399 -6 399 -6 394.5 0.5 c 128,-1,25
 390 7 390 7 392 19 c 2,26,-1
 436 296 l 2,27,28
 449 376 449 376 422 414.5 c 128,-1,29
 395 453 395 453 330 453 c 0,30,31
 244 453 244 453 194.5 401.5 c 128,-1,32
 145 350 145 350 131 264 c 2,33,-1
 92 15 l 2,34,35
 89 -6 89 -6 67 -6 c 0,0,1
EndSplineSet
EndChar

StartChar: hbar
Encoding: 295 295 324
Width: 553
GlyphClass: 1
Flags: W
LayerCount: 2
Fore
SplineSet
67 -6 m 0,0,1
 57 -6 57 -6 52.5 0.5 c 128,-1,2
 48 7 48 7 50 19 c 2,3,-1
 136 562 l 1,4,-1
 66 562 l 2,5,6
 56 562 56 562 50 566 c 128,-1,7
 44 570 44 570 44 577 c 0,8,9
 44 598 44 598 68 598 c 2,10,-1
 156 598 l 1,11,-1
 140 585 l 1,12,-1
 157 690 l 2,13,14
 159 701 159 701 165 706 c 128,-1,15
 171 711 171 711 181 711 c 256,16,17
 191 711 191 711 195.5 704.5 c 128,-1,18
 200 698 200 698 198 686 c 2,19,-1
 182 585 l 1,20,-1
 176 598 l 1,21,-1
 356 598 l 2,22,23
 367 598 367 598 372.5 594.5 c 128,-1,24
 378 591 378 591 378 583 c 0,25,26
 378 562 378 562 354 562 c 2,27,-1
 178 562 l 1,28,-1
 147 364 l 1,29,-1
 135 364 l 1,30,31
 160 424 160 424 210 458 c 128,-1,32
 260 492 260 492 331 492 c 0,33,34
 385 492 385 492 421.5 470.5 c 128,-1,35
 458 449 458 449 473.5 405.5 c 128,-1,36
 489 362 489 362 478 295 c 2,37,-1
 434 15 l 2,38,39
 433 5 433 5 426.5 -0.5 c 128,-1,40
 420 -6 420 -6 409 -6 c 0,41,42
 399 -6 399 -6 394.5 0.5 c 128,-1,43
 390 7 390 7 392 19 c 2,44,-1
 436 296 l 2,45,46
 449 376 449 376 422 414.5 c 128,-1,47
 395 453 395 453 330 453 c 0,48,49
 244 453 244 453 194.5 401.5 c 128,-1,50
 145 350 145 350 131 264 c 2,51,-1
 92 15 l 2,52,53
 89 -6 89 -6 67 -6 c 0,0,1
EndSplineSet
EndChar

StartChar: i
Encoding: 105 105 329
Width: 212
GlyphClass: 2
Flags: W
AnchorPoint: "Anchor-3" 89 0 basechar 0
AnchorPoint: "Anchor-2" 68 0 basechar 0
LayerCount: 2
Fore
SplineSet
67 -6 m 0,0,1
 57 -6 57 -6 52.5 0.5 c 128,-1,2
 48 7 48 7 50 19 c 2,3,-1
 121 469 l 2,4,5
 123 480 123 480 129 485 c 128,-1,6
 135 490 135 490 145 490 c 256,7,8
 155 490 155 490 159.5 483.5 c 128,-1,9
 164 477 164 477 162 465 c 2,10,-1
 91 15 l 2,11,12
 90 5 90 5 84 -0.5 c 128,-1,13
 78 -6 78 -6 67 -6 c 0,0,1
167 616 m 0,14,15
 153 616 153 616 145 623.5 c 128,-1,16
 137 631 137 631 137 644 c 0,17,18
 137 664 137 664 148 674.5 c 128,-1,19
 159 685 159 685 178 685 c 0,20,21
 192 685 192 685 200 678 c 128,-1,22
 208 671 208 671 208 657 c 0,23,24
 208 638 208 638 197 627 c 128,-1,25
 186 616 186 616 167 616 c 0,14,15
EndSplineSet
Substitution2: "'locl' Localized Forms in Latin lookup 10 subtable" i.loclTRK
Substitution2: "Single Substitution lookup 4 subtable" dotlessi
Substitution2: "Single Substitution lookup 3 subtable" dotlessi
Substitution2: "'aalt' Access All Alternates lookup 0 subtable" i.loclTRK
EndChar

StartChar: dotlessi
Encoding: 305 305 330
Width: 212
GlyphClass: 2
Flags: W
AnchorPoint: "Anchor-3" 89 0 basechar 0
AnchorPoint: "Anchor-2" 68 0 basechar 0
AnchorPoint: "Anchor-0" 146 484 basechar 0
LayerCount: 2
Fore
SplineSet
67 -6 m 0,0,1
 57 -6 57 -6 52.5 0.5 c 128,-1,2
 48 7 48 7 50 19 c 2,3,-1
 121 469 l 2,4,5
 123 480 123 480 129 485 c 128,-1,6
 135 490 135 490 145 490 c 256,7,8
 155 490 155 490 159.5 483.5 c 128,-1,9
 164 477 164 477 162 465 c 2,10,-1
 91 15 l 2,11,12
 90 5 90 5 84 -0.5 c 128,-1,13
 78 -6 78 -6 67 -6 c 0,0,1
EndSplineSet
EndChar

StartChar: iogonek
Encoding: 303 303 343
Width: 212
GlyphClass: 1
Flags: W
LayerCount: 2
Fore
SplineSet
59 -190 m 0,0,1
 16 -190 16 -190 -7 -165.5 c 128,-1,2
 -30 -141 -30 -141 -30 -103 c 0,3,4
 -30 -61 -30 -61 -5 -28 c 128,-1,5
 20 5 20 5 60 26 c 1,6,-1
 52 1 l 1,7,8
 50 6 50 6 49.5 10.5 c 128,-1,9
 49 15 49 15 50 19 c 2,10,-1
 121 469 l 2,11,12
 123 480 123 480 129 485 c 128,-1,13
 135 490 135 490 145 490 c 256,14,15
 155 490 155 490 159.5 483.5 c 128,-1,16
 164 477 164 477 162 465 c 2,17,-1
 91 15 l 2,18,19
 90 8 90 8 86.5 3 c 128,-1,20
 83 -2 83 -2 77 -5 c 0,21,22
 43 -23 43 -23 26 -47 c 128,-1,23
 9 -71 9 -71 9 -99 c 0,24,25
 9 -124 9 -124 22.5 -139 c 128,-1,26
 36 -154 36 -154 64 -154 c 0,27,28
 73 -154 73 -154 82.5 -152.5 c 128,-1,29
 92 -151 92 -151 103 -147 c 0,30,31
 112 -144 112 -144 117 -147.5 c 128,-1,32
 122 -151 122 -151 123.5 -158 c 128,-1,33
 125 -165 125 -165 123 -171.5 c 128,-1,34
 121 -178 121 -178 115 -180 c 0,35,36
 102 -185 102 -185 86 -187.5 c 128,-1,37
 70 -190 70 -190 59 -190 c 0,0,1
167 616 m 0,38,39
 153 616 153 616 145 623.5 c 128,-1,40
 137 631 137 631 137 644 c 0,41,42
 137 664 137 664 148 674.5 c 128,-1,43
 159 685 159 685 178 685 c 0,44,45
 192 685 192 685 200 678 c 128,-1,46
 208 671 208 671 208 657 c 0,47,48
 208 638 208 638 197 627 c 128,-1,49
 186 616 186 616 167 616 c 0,38,39
EndSplineSet
EndChar

StartChar: j
Encoding: 106 106 345
Width: 215
GlyphClass: 1
Flags: W
LayerCount: 2
Fore
SplineSet
-100 -191 m 0,0,1
 -108 -191 -108 -191 -113.5 -187 c 128,-1,2
 -119 -183 -119 -183 -120.5 -177.5 c 128,-1,3
 -122 -172 -122 -172 -120.5 -166.5 c 128,-1,4
 -119 -161 -119 -161 -114.5 -157 c 128,-1,5
 -110 -153 -110 -153 -102 -153 c 0,6,7
 -41 -153 -41 -153 -3 -122 c 128,-1,8
 35 -91 35 -91 46 -22 c 2,9,-1
 124 469 l 2,10,11
 126 480 126 480 132 485 c 128,-1,12
 138 490 138 490 148 490 c 256,13,14
 158 490 158 490 162.5 483.5 c 128,-1,15
 167 477 167 477 165 465 c 2,16,-1
 87 -26 l 2,17,18
 78 -82 78 -82 53 -118.5 c 128,-1,19
 28 -155 28 -155 -10.5 -173 c 128,-1,20
 -49 -191 -49 -191 -100 -191 c 0,0,1
167 616 m 0,21,22
 153 616 153 616 145 623.5 c 128,-1,23
 137 631 137 631 137 644 c 0,24,25
 137 664 137 664 148 674.5 c 128,-1,26
 159 685 159 685 178 685 c 0,27,28
 192 685 192 685 200 678 c 128,-1,29
 208 671 208 671 208 657 c 0,30,31
 208 638 208 638 197 627 c 128,-1,32
 186 616 186 616 167 616 c 0,21,22
EndSplineSet
Substitution2: "Single Substitution lookup 4 subtable" uni0237
Substitution2: "Single Substitution lookup 3 subtable" uni0237
EndChar

StartChar: uni0237
Encoding: 567 567 346
Width: 215
GlyphClass: 2
Flags: W
AnchorPoint: "Anchor-2" 70 0 basechar 0
AnchorPoint: "Anchor-0" 146 484 basechar 0
LayerCount: 2
Fore
SplineSet
-100 -191 m 0,0,1
 -108 -191 -108 -191 -113.5 -187 c 128,-1,2
 -119 -183 -119 -183 -120.5 -177.5 c 128,-1,3
 -122 -172 -122 -172 -120.5 -166.5 c 128,-1,4
 -119 -161 -119 -161 -114.5 -157 c 128,-1,5
 -110 -153 -110 -153 -102 -153 c 0,6,7
 -41 -153 -41 -153 -3 -122 c 128,-1,8
 35 -91 35 -91 46 -22 c 2,9,-1
 124 469 l 2,10,11
 126 480 126 480 132 485 c 128,-1,12
 138 490 138 490 148 490 c 256,13,14
 158 490 158 490 162.5 483.5 c 128,-1,15
 167 477 167 477 165 465 c 2,16,-1
 87 -26 l 2,17,18
 78 -82 78 -82 53 -118.5 c 128,-1,19
 28 -155 28 -155 -10.5 -173 c 128,-1,20
 -49 -191 -49 -191 -100 -191 c 0,0,1
EndSplineSet
EndChar

StartChar: k
Encoding: 107 107 348
Width: 468
GlyphClass: 2
Flags: W
AnchorPoint: "Anchor-2" 199 0 basechar 0
AnchorPoint: "Anchor-0" 351 705 basechar 0
LayerCount: 2
Fore
SplineSet
67 -6 m 0,0,1
 57 -6 57 -6 52.5 0.5 c 128,-1,2
 48 7 48 7 50 19 c 2,3,-1
 156 690 l 2,4,5
 158 701 158 701 164 706 c 128,-1,6
 170 711 170 711 180 711 c 256,7,8
 190 711 190 711 194.5 704.5 c 128,-1,9
 199 698 199 698 197 686 c 2,10,-1
 130 260 l 1,11,-1
 132 260 l 1,12,-1
 411 480 l 2,13,14
 418 485 418 485 423.5 487.5 c 128,-1,15
 429 490 429 490 436 490 c 0,16,17
 444 490 444 490 448.5 484.5 c 128,-1,18
 453 479 453 479 452 471.5 c 128,-1,19
 451 464 451 464 442 457 c 2,20,-1
 149 225 l 1,21,-1
 155 264 l 1,22,-1
 401 27 l 2,23,24
 409 20 409 20 409 12.5 c 128,-1,25
 409 5 409 5 404.5 -0.5 c 128,-1,26
 400 -6 400 -6 392 -6 c 256,27,28
 384 -6 384 -6 377.5 -2.5 c 128,-1,29
 371 1 371 1 362 10 c 2,30,-1
 128 237 l 1,31,-1
 126 237 l 1,32,-1
 91 15 l 2,33,34
 88 -6 88 -6 67 -6 c 0,0,1
EndSplineSet
EndChar

StartChar: kgreenlandic
Encoding: 312 312 351
Width: 468
GlyphClass: 2
Flags: W
AnchorPoint: "Anchor-2" 195 0 basechar 0
AnchorPoint: "Anchor-0" 272 484 basechar 0
LayerCount: 2
Fore
SplineSet
67 -6 m 0,0,1
 57 -6 57 -6 52.5 0.5 c 128,-1,2
 48 7 48 7 50 19 c 2,3,-1
 121 469 l 2,4,5
 123 480 123 480 129 485 c 128,-1,6
 135 490 135 490 145 490 c 256,7,8
 155 490 155 490 159.5 483.5 c 128,-1,9
 164 477 164 477 162 465 c 2,10,-1
 130 260 l 1,11,-1
 132 260 l 1,12,-1
 411 480 l 2,13,14
 418 485 418 485 423 487.5 c 128,-1,15
 428 490 428 490 434 490 c 0,16,17
 443 490 443 490 448 484.5 c 128,-1,18
 453 479 453 479 452 471.5 c 128,-1,19
 451 464 451 464 442 457 c 2,20,-1
 149 225 l 1,21,-1
 155 264 l 1,22,-1
 401 27 l 2,23,24
 408 21 408 21 409 13 c 128,-1,25
 410 5 410 5 405.5 -0.5 c 128,-1,26
 401 -6 401 -6 391 -6 c 0,27,28
 384 -6 384 -6 377.5 -2.5 c 128,-1,29
 371 1 371 1 362 10 c 2,30,-1
 128 237 l 1,31,-1
 126 237 l 1,32,-1
 91 15 l 2,33,34
 90 5 90 5 84 -0.5 c 128,-1,35
 78 -6 78 -6 67 -6 c 0,0,1
EndSplineSet
EndChar

StartChar: l
Encoding: 108 108 352
Width: 275
GlyphClass: 2
Flags: W
AnchorPoint: "Anchor-5" 130 357 basechar 0
AnchorPoint: "Anchor-2" 143 0 basechar 0
AnchorPoint: "Anchor-1" 250 705 basechar 0
AnchorPoint: "Anchor-0" 180 705 basechar 0
LayerCount: 2
Fore
SplineSet
177 -8 m 0,0,1
 115 -8 115 -8 86 30 c 128,-1,2
 57 68 57 68 69 143 c 2,3,-1
 156 690 l 2,4,5
 158 701 158 701 164 706 c 128,-1,6
 170 711 170 711 180 711 c 256,7,8
 190 711 190 711 194.5 704.5 c 128,-1,9
 199 698 199 698 197 686 c 2,10,-1
 111 143 l 2,11,12
 101 82 101 82 119.5 56.5 c 128,-1,13
 138 31 138 31 185 31 c 0,14,15
 201 31 201 31 209.5 33 c 128,-1,16
 218 35 218 35 222 35 c 0,17,18
 227 35 227 35 230 32 c 128,-1,19
 233 29 233 29 233 20 c 0,20,21
 233 10 233 10 226.5 3.5 c 128,-1,22
 220 -3 220 -3 209 -5 c 0,23,24
 202 -6 202 -6 192.5 -7 c 128,-1,25
 183 -8 183 -8 177 -8 c 0,0,1
EndSplineSet
Substitution2: "'ss02' Style Set 2 lookup 36 subtable" l.ss02
Substitution2: "'aalt' Access All Alternates lookup 0 subtable" l.ss02
EndChar

StartChar: m
Encoding: 109 109 361
Width: 838
GlyphClass: 2
Flags: W
AnchorPoint: "Anchor-2" 381 0 basechar 0
AnchorPoint: "Anchor-0" 458 484 basechar 0
LayerCount: 2
Fore
SplineSet
69 -6 m 0,0,1
 59 -6 59 -6 54.5 0.5 c 128,-1,2
 50 7 50 7 52 19 c 2,3,-1
 123 469 l 2,4,5
 125 480 125 480 131 485 c 128,-1,6
 137 490 137 490 147 490 c 0,7,8
 156 490 156 490 160.5 483 c 128,-1,9
 165 476 165 476 163 465 c 2,10,-1
 147 363 l 1,11,-1
 137 364 l 1,12,13
 163 425 163 425 208 458.5 c 128,-1,14
 253 492 253 492 314 492 c 0,15,16
 373 492 373 492 410 459 c 128,-1,17
 447 426 447 426 452 363 c 1,18,-1
 440 364 l 1,19,20
 463 423 463 423 510.5 457.5 c 128,-1,21
 558 492 558 492 625 492 c 0,22,23
 676 492 676 492 710 470.5 c 128,-1,24
 744 449 744 449 758 405.5 c 128,-1,25
 772 362 772 362 761 295 c 2,26,-1
 717 15 l 2,27,28
 716 5 716 5 709.5 -0.5 c 128,-1,29
 703 -6 703 -6 692 -6 c 0,30,31
 682 -6 682 -6 678 0.5 c 128,-1,32
 674 7 674 7 675 19 c 2,33,-1
 719 301 l 2,34,35
 731 378 731 378 707.5 415.5 c 128,-1,36
 684 453 684 453 623 453 c 0,37,38
 552 453 552 453 505 403 c 128,-1,39
 458 353 458 353 444 264 c 2,40,-1
 405 15 l 2,41,42
 404 5 404 5 397.5 -0.5 c 128,-1,43
 391 -6 391 -6 380 -6 c 0,44,45
 370 -6 370 -6 365.5 0.5 c 128,-1,46
 361 7 361 7 363 19 c 2,47,-1
 408 301 l 2,48,49
 420 378 420 378 396.5 415.5 c 128,-1,50
 373 453 373 453 312 453 c 0,51,52
 241 453 241 453 194 403 c 128,-1,53
 147 353 147 353 133 264 c 2,54,-1
 94 15 l 2,55,56
 91 -6 91 -6 69 -6 c 0,0,1
EndSplineSet
EndChar

StartChar: n
Encoding: 110 110 363
Width: 553
GlyphClass: 2
Flags: W
AnchorPoint: "Anchor-2" 244 0 basechar 0
AnchorPoint: "Anchor-0" 316 484 basechar 0
LayerCount: 2
Fore
SplineSet
68 -6 m 0,0,1
 58 -6 58 -6 53.5 1.5 c 128,-1,2
 49 9 49 9 51 21 c 2,3,-1
 122 469 l 2,4,5
 124 480 124 480 130 485 c 128,-1,6
 136 490 136 490 146 490 c 0,7,8
 155 490 155 490 159.5 483.5 c 128,-1,9
 164 477 164 477 162 465 c 2,10,-1
 146 364 l 1,11,-1
 135 364 l 1,12,13
 160 424 160 424 210 458 c 128,-1,14
 260 492 260 492 331 492 c 0,15,16
 385 492 385 492 421.5 470.5 c 128,-1,17
 458 449 458 449 473.5 405.5 c 128,-1,18
 489 362 489 362 478 295 c 2,19,-1
 433 13 l 2,20,21
 432 4 432 4 426 -1 c 128,-1,22
 420 -6 420 -6 409 -6 c 0,23,24
 399 -6 399 -6 394.5 0.5 c 128,-1,25
 390 7 390 7 392 19 c 2,26,-1
 436 296 l 2,27,28
 449 376 449 376 422 414.5 c 128,-1,29
 395 453 395 453 330 453 c 0,30,31
 244 453 244 453 194.5 401.5 c 128,-1,32
 145 350 145 350 131 264 c 2,33,-1
 92 15 l 2,34,35
 89 -6 89 -6 68 -6 c 0,0,1
EndSplineSet
EndChar

StartChar: eng
Encoding: 331 331 373
Width: 553
GlyphClass: 1
Flags: W
LayerCount: 2
Fore
SplineSet
239 -191 m 0,0,1
 231 -191 231 -191 225.5 -187 c 128,-1,2
 220 -183 220 -183 218.5 -177.5 c 128,-1,3
 217 -172 217 -172 218.5 -166.5 c 128,-1,4
 220 -161 220 -161 224.5 -157 c 128,-1,5
 229 -153 229 -153 237 -153 c 0,6,7
 298 -153 298 -153 336 -122 c 128,-1,8
 374 -91 374 -91 385 -22 c 2,9,-1
 436 296 l 2,10,11
 449 376 449 376 422 414.5 c 128,-1,12
 395 453 395 453 330 453 c 0,13,14
 244 453 244 453 194.5 401.5 c 128,-1,15
 145 350 145 350 131 264 c 2,16,-1
 92 15 l 2,17,18
 89 -6 89 -6 68 -6 c 0,19,20
 58 -6 58 -6 53.5 0.5 c 128,-1,21
 49 7 49 7 51 19 c 2,22,-1
 122 469 l 2,23,24
 124 480 124 480 130 485 c 128,-1,25
 136 490 136 490 146 490 c 0,26,27
 155 490 155 490 159.5 483.5 c 128,-1,28
 164 477 164 477 162 465 c 2,29,-1
 146 364 l 1,30,-1
 135 364 l 1,31,32
 160 424 160 424 210 458 c 128,-1,33
 260 492 260 492 331 492 c 0,34,35
 385 492 385 492 422 470.5 c 128,-1,36
 459 449 459 449 474 405.5 c 128,-1,37
 489 362 489 362 478 295 c 2,38,-1
 426 -26 l 2,39,40
 417 -82 417 -82 392 -118.5 c 128,-1,41
 367 -155 367 -155 328.5 -173 c 128,-1,42
 290 -191 290 -191 239 -191 c 0,0,1
EndSplineSet
EndChar

StartChar: o
Encoding: 111 111 374
Width: 538
GlyphClass: 2
Flags: W
AnchorPoint: "Anchor-5" 269 242 basechar 0
AnchorPoint: "Anchor-3" 302 0 basechar 0
AnchorPoint: "Anchor-2" 243 0 basechar 0
AnchorPoint: "Anchor-1" 356 484 basechar 0
AnchorPoint: "Anchor-0" 310 484 basechar 0
LayerCount: 2
Fore
SplineSet
245 -8 m 256,0,1
 186 -8 186 -8 142 17 c 128,-1,2
 98 42 98 42 74.5 88.5 c 128,-1,3
 51 135 51 135 51 200 c 0,4,5
 51 258 51 258 66.5 310.5 c 128,-1,6
 82 363 82 363 113 404 c 128,-1,7
 144 445 144 445 189 468.5 c 128,-1,8
 234 492 234 492 293 492 c 0,9,10
 353 492 353 492 396.5 467 c 128,-1,11
 440 442 440 442 463.5 395.5 c 128,-1,12
 487 349 487 349 487 284 c 0,13,14
 487 226 487 226 471.5 173.5 c 128,-1,15
 456 121 456 121 425 80 c 128,-1,16
 394 39 394 39 349 15.5 c 128,-1,17
 304 -8 304 -8 245 -8 c 256,0,1
247 31 m 0,18,19
 311 31 311 31 355 66 c 128,-1,20
 399 101 399 101 421.5 159 c 128,-1,21
 444 217 444 217 444 286 c 0,22,23
 444 369 444 369 403.5 411 c 128,-1,24
 363 453 363 453 291 453 c 0,25,26
 227 453 227 453 183 418 c 128,-1,27
 139 383 139 383 116.5 325.5 c 128,-1,28
 94 268 94 268 94 198 c 0,29,30
 94 116 94 116 134.5 73.5 c 128,-1,31
 175 31 175 31 247 31 c 0,18,19
EndSplineSet
Substitution2: "Single Substitution lookup 29 subtable" ordmasculine
Substitution2: "'aalt' Access All Alternates lookup 0 subtable" ordmasculine
EndChar

StartChar: oslash
Encoding: 248 248 402
Width: 538
GlyphClass: 2
Flags: W
AnchorPoint: "Anchor-5" 269 242 basechar 0
AnchorPoint: "Anchor-0" 310 484 basechar 0
LayerCount: 2
Fore
SplineSet
245 -8 m 256,0,1
 186 -8 186 -8 142 17 c 128,-1,2
 98 42 98 42 74.5 88.5 c 128,-1,3
 51 135 51 135 51 200 c 0,4,5
 51 258 51 258 66.5 310.5 c 128,-1,6
 82 363 82 363 113 404 c 128,-1,7
 144 445 144 445 189 468.5 c 128,-1,8
 234 492 234 492 293 492 c 0,9,10
 353 492 353 492 396.5 467 c 128,-1,11
 440 442 440 442 463.5 395.5 c 128,-1,12
 487 349 487 349 487 284 c 0,13,14
 487 226 487 226 471.5 173.5 c 128,-1,15
 456 121 456 121 425 80 c 128,-1,16
 394 39 394 39 349 15.5 c 128,-1,17
 304 -8 304 -8 245 -8 c 256,0,1
247 31 m 0,18,19
 311 31 311 31 355 66 c 128,-1,20
 399 101 399 101 421.5 159 c 128,-1,21
 444 217 444 217 444 286 c 0,22,23
 444 369 444 369 403.5 411 c 128,-1,24
 363 453 363 453 291 453 c 0,25,26
 227 453 227 453 183 418 c 128,-1,27
 139 383 139 383 116.5 325.5 c 128,-1,28
 94 268 94 268 94 198 c 0,29,30
 94 116 94 116 134.5 73.5 c 128,-1,31
 175 31 175 31 247 31 c 0,18,19
102 -19 m 2,32,33
 96 -27 96 -27 89 -27.5 c 128,-1,34
 82 -28 82 -28 76 -24 c 128,-1,35
 70 -20 70 -20 68.5 -12.5 c 128,-1,36
 67 -5 67 -5 73 3 c 2,37,-1
 437 503 l 2,38,39
 443 511 443 511 450 511.5 c 128,-1,40
 457 512 457 512 463 508 c 128,-1,41
 469 504 469 504 470.5 496.5 c 128,-1,42
 472 489 472 489 466 481 c 2,43,-1
 102 -19 l 2,32,33
EndSplineSet
EndChar

StartChar: oe
Encoding: 339 339 408
Width: 906
GlyphClass: 2
Flags: W
AnchorPoint: "Anchor-2" 425 0 basechar 0
AnchorPoint: "Anchor-0" 502 484 basechar 0
LayerCount: 2
Fore
SplineSet
245 -8 m 0,0,1
 186 -8 186 -8 142 17 c 128,-1,2
 98 42 98 42 74.5 88.5 c 128,-1,3
 51 135 51 135 51 200 c 0,4,5
 51 258 51 258 66.5 310.5 c 128,-1,6
 82 363 82 363 113 404 c 128,-1,7
 144 445 144 445 189 468.5 c 128,-1,8
 234 492 234 492 293 492 c 0,9,10
 373 492 373 492 422.5 447 c 128,-1,11
 472 402 472 402 482 322 c 1,12,-1
 460 322 l 1,13,14
 486 396 486 396 543.5 444 c 128,-1,15
 601 492 601 492 686 492 c 0,16,17
 757 492 757 492 798.5 458.5 c 128,-1,18
 840 425 840 425 855.5 371.5 c 128,-1,19
 871 318 871 318 861 259 c 0,20,21
 859 245 859 245 854 239.5 c 128,-1,22
 849 234 849 234 836 234 c 2,23,-1
 469 234 l 1,24,-1
 475 271 l 1,25,-1
 841 271 l 1,26,-1
 822 259 l 1,27,28
 830 313 830 313 819 357 c 128,-1,29
 808 401 808 401 775.5 427.5 c 128,-1,30
 743 454 743 454 685 454 c 0,31,32
 623 454 623 454 582 425.5 c 128,-1,33
 541 397 541 397 519 353.5 c 128,-1,34
 497 310 497 310 489 264 c 2,35,-1
 486 246 l 2,36,37
 470 150 470 150 512.5 90.5 c 128,-1,38
 555 31 555 31 644 31 c 0,39,40
 685 31 685 31 719.5 41 c 128,-1,41
 754 51 754 51 788 77 c 0,42,43
 797 84 797 84 804 84.5 c 128,-1,44
 811 85 811 85 816 81.5 c 128,-1,45
 821 78 821 78 822.5 72 c 128,-1,46
 824 66 824 66 821 58.5 c 128,-1,47
 818 51 818 51 810 45 c 0,48,49
 777 20 777 20 733 6 c 128,-1,50
 689 -8 689 -8 646 -8 c 0,51,52
 561 -8 561 -8 508 35.5 c 128,-1,53
 455 79 455 79 443 157 c 1,54,-1
 464 157 l 1,55,56
 439 86 439 86 384 39 c 128,-1,57
 329 -8 329 -8 245 -8 c 0,0,1
247 31 m 0,58,59
 311 31 311 31 355 66 c 128,-1,60
 399 101 399 101 421.5 159 c 128,-1,61
 444 217 444 217 444 286 c 0,62,63
 444 369 444 369 403.5 411 c 128,-1,64
 363 453 363 453 291 453 c 0,65,66
 227 453 227 453 183 418 c 128,-1,67
 139 383 139 383 116.5 325.5 c 128,-1,68
 94 268 94 268 94 198 c 0,69,70
 94 116 94 116 134.5 73.5 c 128,-1,71
 175 31 175 31 247 31 c 0,58,59
EndSplineSet
EndChar

StartChar: p
Encoding: 112 112 409
Width: 568
GlyphClass: 2
Flags: W
AnchorPoint: "Anchor-2" 244 0 basechar 0
AnchorPoint: "Anchor-0" 321 484 basechar 0
LayerCount: 2
Fore
SplineSet
38 -186 m 0,0,1
 28 -186 28 -186 23.5 -179.5 c 128,-1,2
 19 -173 19 -173 21 -161 c 2,3,-1
 121 469 l 2,4,5
 123 480 123 480 129 485 c 128,-1,6
 135 490 135 490 145 490 c 256,7,8
 155 490 155 490 159.5 483.5 c 128,-1,9
 164 477 164 477 162 465 c 2,10,-1
 147 371 l 1,11,-1
 136 371 l 1,12,13
 162 427 162 427 211 459.5 c 128,-1,14
 260 492 260 492 327 492 c 0,15,16
 384 492 384 492 427 467 c 128,-1,17
 470 442 470 442 493.5 396 c 128,-1,18
 517 350 517 350 517 286 c 0,19,20
 517 208 517 208 489.5 141 c 128,-1,21
 462 74 462 74 408 33 c 128,-1,22
 354 -8 354 -8 275 -8 c 0,23,24
 214 -8 214 -8 166 23.5 c 128,-1,25
 118 55 118 55 101 122 c 1,26,-1
 108 122 l 1,27,-1
 62 -165 l 2,28,29
 61 -175 61 -175 55 -180.5 c 128,-1,30
 49 -186 49 -186 38 -186 c 0,0,1
277 31 m 0,31,32
 341 31 341 31 385 66 c 128,-1,33
 429 101 429 101 451.5 159 c 128,-1,34
 474 217 474 217 474 286 c 0,35,36
 474 369 474 369 433.5 411 c 128,-1,37
 393 453 393 453 321 453 c 0,38,39
 257 453 257 453 213 418 c 128,-1,40
 169 383 169 383 146.5 325.5 c 128,-1,41
 124 268 124 268 124 198 c 0,42,43
 124 116 124 116 164.5 73.5 c 128,-1,44
 205 31 205 31 277 31 c 0,31,32
EndSplineSet
EndChar

StartChar: thorn
Encoding: 254 254 410
Width: 568
GlyphClass: 2
Flags: W
AnchorPoint: "Anchor-2" 243 0 basechar 0
AnchorPoint: "Anchor-0" 320 484 basechar 0
LayerCount: 2
Fore
SplineSet
38 -186 m 0,0,1
 28 -186 28 -186 23.5 -179.5 c 128,-1,2
 19 -173 19 -173 21 -161 c 2,3,-1
 156 690 l 2,4,5
 158 701 158 701 164 706 c 128,-1,6
 170 711 170 711 180 711 c 256,7,8
 190 711 190 711 194.5 704.5 c 128,-1,9
 199 698 199 698 197 686 c 2,10,-1
 147 371 l 1,11,-1
 136 371 l 1,12,13
 162 427 162 427 211 459.5 c 128,-1,14
 260 492 260 492 327 492 c 0,15,16
 384 492 384 492 427 467 c 128,-1,17
 470 442 470 442 493.5 396 c 128,-1,18
 517 350 517 350 517 286 c 0,19,20
 517 208 517 208 489.5 141 c 128,-1,21
 462 74 462 74 408 33 c 128,-1,22
 354 -8 354 -8 275 -8 c 0,23,24
 214 -8 214 -8 166 23.5 c 128,-1,25
 118 55 118 55 101 122 c 1,26,-1
 108 122 l 1,27,-1
 62 -165 l 2,28,29
 61 -175 61 -175 55 -180.5 c 128,-1,30
 49 -186 49 -186 38 -186 c 0,0,1
277 31 m 0,31,32
 341 31 341 31 385 66 c 128,-1,33
 429 101 429 101 451.5 159 c 128,-1,34
 474 217 474 217 474 286 c 0,35,36
 474 369 474 369 433.5 411 c 128,-1,37
 393 453 393 453 321 453 c 0,38,39
 257 453 257 453 213 418 c 128,-1,40
 169 383 169 383 146.5 325.5 c 128,-1,41
 124 268 124 268 124 198 c 0,42,43
 124 116 124 116 164.5 73.5 c 128,-1,44
 205 31 205 31 277 31 c 0,31,32
EndSplineSet
EndChar

StartChar: q
Encoding: 113 113 411
Width: 568
GlyphClass: 2
Flags: W
AnchorPoint: "Anchor-2" 243 0 basechar 0
AnchorPoint: "Anchor-0" 320 484 basechar 0
LayerCount: 2
Fore
SplineSet
394 -186 m 0,0,1
 384 -186 384 -186 380 -179.5 c 128,-1,2
 376 -173 376 -173 377 -161 c 2,3,-1
 420 113 l 1,4,-1
 432 113 l 1,5,6
 407 58 407 58 358 25 c 128,-1,7
 309 -8 309 -8 241 -8 c 0,8,9
 184 -8 184 -8 141.5 17 c 128,-1,10
 99 42 99 42 75 88.5 c 128,-1,11
 51 135 51 135 51 198 c 0,12,13
 51 276 51 276 78.5 343 c 128,-1,14
 106 410 106 410 160 451 c 128,-1,15
 214 492 214 492 293 492 c 0,16,17
 354 492 354 492 402 460.5 c 128,-1,18
 450 429 450 429 467 362 c 1,19,-1
 460 362 l 1,20,-1
 477 469 l 2,21,22
 479 480 479 480 485 485 c 128,-1,23
 491 490 491 490 501 490 c 256,24,25
 511 490 511 490 515.5 483.5 c 128,-1,26
 520 477 520 477 518 465 c 2,27,-1
 418 -165 l 2,28,29
 417 -175 417 -175 411 -180.5 c 128,-1,30
 405 -186 405 -186 394 -186 c 0,0,1
247 31 m 0,31,32
 311 31 311 31 355 66 c 128,-1,33
 399 101 399 101 421.5 159 c 128,-1,34
 444 217 444 217 444 286 c 0,35,36
 444 369 444 369 403.5 411 c 128,-1,37
 363 453 363 453 291 453 c 0,38,39
 227 453 227 453 183 418 c 128,-1,40
 139 383 139 383 116.5 325.5 c 128,-1,41
 94 268 94 268 94 198 c 0,42,43
 94 116 94 116 134.5 73.5 c 128,-1,44
 175 31 175 31 247 31 c 0,31,32
EndSplineSet
EndChar

StartChar: r
Encoding: 114 114 412
Width: 327
GlyphClass: 2
Flags: W
AnchorPoint: "Anchor-2" 69 0 basechar 0
AnchorPoint: "Anchor-0" 240 487 basechar 0
LayerCount: 2
Fore
SplineSet
68 -6 m 0,0,1
 58 -6 58 -6 53.5 0.5 c 128,-1,2
 49 7 49 7 51 19 c 2,3,-1
 122 469 l 2,4,5
 124 480 124 480 130 485 c 128,-1,6
 136 490 136 490 146 490 c 0,7,8
 155 490 155 490 160 483.5 c 128,-1,9
 165 477 165 477 163 465 c 2,10,-1
 148 370 l 1,11,-1
 137 370 l 1,12,13
 158 430 158 430 210.5 462 c 128,-1,14
 263 494 263 494 324 494 c 0,15,16
 341 494 341 494 347.5 490.5 c 128,-1,17
 354 487 354 487 354 477 c 256,18,19
 354 467 354 467 349 462.5 c 128,-1,20
 344 458 344 458 330 456 c 2,21,-1
 318 455 l 2,22,23
 227 448 227 448 186.5 401 c 128,-1,24
 146 354 146 354 134 280 c 2,25,-1
 92 15 l 2,26,27
 91 5 91 5 85 -0.5 c 128,-1,28
 79 -6 79 -6 68 -6 c 0,0,1
EndSplineSet
EndChar

StartChar: s
Encoding: 115 115 420
Width: 475
GlyphClass: 2
Flags: W
AnchorPoint: "Anchor-2" 207 0 basechar 0
AnchorPoint: "Anchor-0" 268 484 basechar 0
LayerCount: 2
Fore
SplineSet
220 -8 m 0,0,1
 171 -8 171 -8 128.5 5 c 128,-1,2
 86 18 86 18 56 40 c 0,3,4
 49 45 49 45 47 52 c 128,-1,5
 45 59 45 59 46.5 65 c 128,-1,6
 48 71 48 71 53 75 c 128,-1,7
 58 79 58 79 65 78.5 c 128,-1,8
 72 78 72 78 81 72 c 0,9,10
 112 50 112 50 147.5 40.5 c 128,-1,11
 183 31 183 31 223 31 c 0,12,13
 283 31 283 31 318.5 56 c 128,-1,14
 354 81 354 81 354 128 c 0,15,16
 354 158 354 158 334.5 178 c 128,-1,17
 315 198 315 198 280 207 c 2,18,-1
 183 233 l 2,19,20
 138 245 138 245 111 276 c 128,-1,21
 84 307 84 307 84 350 c 0,22,23
 84 392 84 392 107 424 c 128,-1,24
 130 456 130 456 171 474 c 128,-1,25
 212 492 212 492 265 492 c 0,26,27
 309 492 309 492 349 478 c 128,-1,28
 389 464 389 464 414 441 c 0,29,30
 421 434 421 434 423.5 427 c 128,-1,31
 426 420 426 420 424 414 c 128,-1,32
 422 408 422 408 417 405 c 128,-1,33
 412 402 412 402 405.5 402.5 c 128,-1,34
 399 403 399 403 391 410 c 0,35,36
 366 432 366 432 334 442.5 c 128,-1,37
 302 453 302 453 264 453 c 0,38,39
 203 453 203 453 165.5 425.5 c 128,-1,40
 128 398 128 398 128 351 c 0,41,42
 128 322 128 322 145.5 301 c 128,-1,43
 163 280 163 280 199 270 c 2,44,-1
 296 244 l 2,45,46
 343 231 343 231 370.5 203 c 128,-1,47
 398 175 398 175 398 131 c 0,48,49
 398 67 398 67 349 29.5 c 128,-1,50
 300 -8 300 -8 220 -8 c 0,0,1
EndSplineSet
EndChar

StartChar: germandbls
Encoding: 223 223 431
Width: 581
GlyphClass: 1
Flags: W
LayerCount: 2
Fore
SplineSet
350 -8 m 0,0,1
 301 -8 301 -8 255.5 6 c 128,-1,2
 210 20 210 20 182 43 c 0,3,4
 175 49 175 49 173.5 55.5 c 128,-1,5
 172 62 172 62 173.5 68 c 128,-1,6
 175 74 175 74 180 77.5 c 128,-1,7
 185 81 185 81 192 80.5 c 128,-1,8
 199 80 199 80 207 74 c 0,9,10
 234 54 234 54 269.5 42.5 c 128,-1,11
 305 31 305 31 345 31 c 0,12,13
 411 31 411 31 446.5 56 c 128,-1,14
 482 81 482 81 482 128 c 0,15,16
 482 158 482 158 461.5 183 c 128,-1,17
 441 208 441 208 380 228 c 0,18,19
 310 252 310 252 283 280 c 128,-1,20
 256 308 256 308 256 351 c 0,21,22
 256 376 256 376 265 395.5 c 128,-1,23
 274 415 274 415 297 436 c 128,-1,24
 320 457 320 457 360 486 c 0,25,26
 397 513 397 513 418 537.5 c 128,-1,27
 439 562 439 562 439 599 c 0,28,29
 439 631 439 631 416 652.5 c 128,-1,30
 393 674 393 674 349 674 c 0,31,32
 273 674 273 674 227.5 628.5 c 128,-1,33
 182 583 182 583 168 500 c 2,34,-1
 91 15 l 2,35,36
 90 5 90 5 84 -0.5 c 128,-1,37
 78 -6 78 -6 67 -6 c 0,38,39
 57 -6 57 -6 52.5 0.5 c 128,-1,40
 48 7 48 7 50 19 c 2,41,-1
 126 501 l 2,42,43
 142 602 142 602 198.5 657.5 c 128,-1,44
 255 713 255 713 351 713 c 0,45,46
 392 713 392 713 421.5 698 c 128,-1,47
 451 683 451 683 466.5 658 c 128,-1,48
 482 633 482 633 482 603 c 0,49,50
 482 551 482 551 454 519 c 128,-1,51
 426 487 426 487 381 453 c 0,52,53
 357 436 357 436 339 421 c 128,-1,54
 321 406 321 406 310.5 389 c 128,-1,55
 300 372 300 372 300 350 c 0,56,57
 300 324 300 324 321.5 303.5 c 128,-1,58
 343 283 343 283 396 265 c 0,59,60
 459 243 459 243 492.5 213.5 c 128,-1,61
 526 184 526 184 526 131 c 0,62,63
 526 88 526 88 503.5 57 c 128,-1,64
 481 26 481 26 441.5 9 c 128,-1,65
 402 -8 402 -8 350 -8 c 0,0,1
EndSplineSet
Substitution2: "Single Substitution lookup 39 subtable" germandbls.calt
Substitution2: "Single Substitution lookup 38 subtable" germandbls.calt
Substitution2: "'aalt' Access All Alternates lookup 0 subtable" germandbls.calt
EndChar

StartChar: t
Encoding: 116 116 432
Width: 320
GlyphClass: 2
Flags: W
AnchorPoint: "Anchor-5" 155 272 basechar 0
AnchorPoint: "Anchor-2" 172 0 basechar 0
AnchorPoint: "Anchor-1" 298 705 basechar 0
AnchorPoint: "Anchor-0" 186 635 basechar 0
LayerCount: 2
Fore
SplineSet
220 -8 m 0,0,1
 171 -8 171 -8 139 11.5 c 128,-1,2
 107 31 107 31 94 67 c 128,-1,3
 81 103 81 103 89 153 c 2,4,-1
 136 448 l 1,5,-1
 58 448 l 2,6,7
 48 448 48 448 42 452 c 128,-1,8
 36 456 36 456 36 463 c 0,9,10
 36 474 36 474 43 479 c 128,-1,11
 50 484 50 484 60 484 c 2,12,-1
 141 484 l 1,13,-1
 163 620 l 2,14,15
 165 631 165 631 171 636 c 128,-1,16
 177 641 177 641 187 641 c 256,17,18
 197 641 197 641 201.5 634.5 c 128,-1,19
 206 628 206 628 204 616 c 2,20,-1
 183 484 l 1,21,-1
 323 484 l 2,22,23
 334 484 334 484 339.5 480.5 c 128,-1,24
 345 477 345 477 345 469 c 0,25,26
 345 459 345 459 338.5 453.5 c 128,-1,27
 332 448 332 448 321 448 c 2,28,-1
 177 448 l 1,29,-1
 132 162 l 2,30,31
 121 92 121 92 144.5 61.5 c 128,-1,32
 168 31 168 31 223 31 c 0,33,34
 247 31 247 31 260 35.5 c 128,-1,35
 273 40 273 40 280 40 c 0,36,37
 286 40 286 40 289.5 36.5 c 128,-1,38
 293 33 293 33 293 25 c 0,39,40
 293 16 293 16 290.5 10.5 c 128,-1,41
 288 5 288 5 280 2 c 0,42,43
 270 -2 270 -2 252.5 -5 c 128,-1,44
 235 -8 235 -8 220 -8 c 0,0,1
EndSplineSet
EndChar

StartChar: u
Encoding: 117 117 440
Width: 545
GlyphClass: 2
Flags: W
AnchorPoint: "Anchor-3" 422 0 basechar 0
AnchorPoint: "Anchor-2" 235 0 basechar 0
AnchorPoint: "Anchor-1" 459 484 basechar 0
AnchorPoint: "Anchor-0" 307 485 basechar 0
LayerCount: 2
Fore
SplineSet
219 -8 m 0,0,1
 167 -8 167 -8 131 13.5 c 128,-1,2
 95 35 95 35 80 78.5 c 128,-1,3
 65 122 65 122 75 189 c 2,4,-1
 119 469 l 2,5,6
 121 480 121 480 127 485 c 128,-1,7
 133 490 133 490 143 490 c 256,8,9
 153 490 153 490 158 483.5 c 128,-1,10
 163 477 163 477 161 465 c 2,11,-1
 117 188 l 2,12,13
 104 109 104 109 130.5 70 c 128,-1,14
 157 31 157 31 220 31 c 0,15,16
 303 31 303 31 352 83 c 128,-1,17
 401 135 401 135 414 220 c 2,18,-1
 453 469 l 2,19,20
 455 480 455 480 461 485 c 128,-1,21
 467 490 467 490 477 490 c 256,22,23
 487 490 487 490 492 484.5 c 128,-1,24
 497 479 497 479 495 468 c 2,25,-1
 423 15 l 2,26,27
 420 -6 420 -6 400 -6 c 0,28,29
 390 -6 390 -6 385.5 0.5 c 128,-1,30
 381 7 381 7 383 19 c 2,31,-1
 399 120 l 1,32,-1
 410 120 l 1,33,34
 387 60 387 60 337 26 c 128,-1,35
 287 -8 287 -8 219 -8 c 0,0,1
EndSplineSet
EndChar

StartChar: uhorn
Encoding: 432 432 450
Width: 545
GlyphClass: 2
Flags: W
AnchorPoint: "Anchor-2" 235 0 basechar 0
AnchorPoint: "Anchor-0" 307 485 basechar 0
LayerCount: 2
Fore
SplineSet
219 -8 m 0,0,1
 167 -8 167 -8 131 13.5 c 128,-1,2
 95 35 95 35 80 78.5 c 128,-1,3
 65 122 65 122 75 189 c 2,4,-1
 119 469 l 2,5,6
 121 480 121 480 127 485 c 128,-1,7
 133 490 133 490 143 490 c 256,8,9
 153 490 153 490 158 483.5 c 128,-1,10
 163 477 163 477 161 465 c 2,11,-1
 117 188 l 2,12,13
 104 109 104 109 130.5 70 c 128,-1,14
 157 31 157 31 220 31 c 0,15,16
 303 31 303 31 352 83 c 128,-1,17
 401 135 401 135 414 220 c 2,18,-1
 452 464 l 2,19,20
 454 475 454 475 460 480 c 128,-1,21
 466 485 466 485 476 486 c 0,22,23
 520 489 520 489 543.5 503 c 128,-1,24
 567 517 567 517 579 542.5 c 128,-1,25
 591 568 591 568 598 603 c 0,26,27
 602 622 602 622 619 622 c 0,28,29
 629 622 629 622 634.5 617 c 128,-1,30
 640 612 640 612 638 600 c 0,31,32
 630 536 630 536 595 496 c 128,-1,33
 560 456 560 456 491 448 c 1,34,-1
 423 15 l 2,35,36
 420 -6 420 -6 400 -6 c 0,37,38
 390 -6 390 -6 385.5 0.5 c 128,-1,39
 381 7 381 7 383 19 c 2,40,-1
 399 120 l 1,41,-1
 410 120 l 1,42,43
 387 60 387 60 337 26 c 128,-1,44
 287 -8 287 -8 219 -8 c 0,0,1
EndSplineSet
EndChar

StartChar: uogonek
Encoding: 371 371 460
Width: 545
GlyphClass: 1
Flags: W
LayerCount: 2
Fore
SplineSet
399 120 m 1,0,-1
 410 120 l 1,1,2
 387 60 387 60 337 26 c 128,-1,3
 287 -8 287 -8 219 -8 c 0,4,5
 167 -8 167 -8 131 13.5 c 128,-1,6
 95 35 95 35 80 78.5 c 128,-1,7
 65 122 65 122 75 189 c 2,8,-1
 119 469 l 2,9,10
 121 480 121 480 127 485 c 128,-1,11
 133 490 133 490 143 490 c 256,12,13
 153 490 153 490 158 483.5 c 128,-1,14
 163 477 163 477 161 465 c 2,15,-1
 117 188 l 2,16,17
 104 109 104 109 130.5 70 c 128,-1,18
 157 31 157 31 220 31 c 0,19,20
 303 31 303 31 352 83 c 128,-1,21
 401 135 401 135 414 220 c 2,22,-1
 453 469 l 2,23,24
 455 480 455 480 461 485 c 128,-1,25
 467 490 467 490 477 490 c 256,26,27
 487 490 487 490 491.5 483.5 c 128,-1,28
 496 477 496 477 494 465 c 2,29,-1
 423 15 l 2,30,31
 422 7 422 7 418 2 c 128,-1,32
 414 -3 414 -3 408 -6 c 0,33,34
 375 -23 375 -23 358.5 -47 c 128,-1,35
 342 -71 342 -71 342 -99 c 0,36,37
 342 -124 342 -124 355.5 -139 c 128,-1,38
 369 -154 369 -154 397 -154 c 0,39,40
 406 -154 406 -154 415.5 -152.5 c 128,-1,41
 425 -151 425 -151 436 -147 c 0,42,43
 445 -144 445 -144 450 -147.5 c 128,-1,44
 455 -151 455 -151 456.5 -158 c 128,-1,45
 458 -165 458 -165 456 -171.5 c 128,-1,46
 454 -178 454 -178 448 -180 c 0,47,48
 435 -185 435 -185 419 -187.5 c 128,-1,49
 403 -190 403 -190 392 -190 c 0,50,51
 349 -190 349 -190 326 -165.5 c 128,-1,52
 303 -141 303 -141 303 -103 c 0,53,54
 303 -60 303 -60 328.5 -27 c 128,-1,55
 354 6 354 6 395 27 c 1,56,-1
 384 5 l 1,57,58
 383 9 383 9 382.5 12.5 c 128,-1,59
 382 16 382 16 383 20 c 2,60,-1
 399 120 l 1,0,-1
EndSplineSet
EndChar

StartChar: v
Encoding: 118 118 464
Width: 504
GlyphClass: 2
Flags: W
AnchorPoint: "Anchor-2" 213 0 basechar 0
AnchorPoint: "Anchor-0" 290 484 basechar 0
LayerCount: 2
Fore
SplineSet
213 -6 m 0,0,1
 201 -6 201 -6 194.5 0.5 c 128,-1,2
 188 7 188 7 184 20 c 2,3,-1
 67 457 l 2,4,5
 65 467 65 467 66.5 474 c 128,-1,6
 68 481 68 481 73.5 485.5 c 128,-1,7
 79 490 79 490 88 490 c 256,8,9
 97 490 97 490 101.5 485.5 c 128,-1,10
 106 481 106 481 109 470 c 2,11,-1
 225 15 l 1,12,-1
 201 15 l 1,13,-1
 465 474 l 2,14,15
 470 482 470 482 475 486 c 128,-1,16
 480 490 480 490 488 490 c 0,17,18
 497 490 497 490 502.5 485 c 128,-1,19
 508 480 508 480 508.5 472.5 c 128,-1,20
 509 465 509 465 503 455 c 2,21,-1
 246 15 l 2,22,23
 240 5 240 5 233 -0.5 c 128,-1,24
 226 -6 226 -6 213 -6 c 0,0,1
EndSplineSet
EndChar

StartChar: w
Encoding: 119 119 465
Width: 830
GlyphClass: 2
Flags: W
AnchorPoint: "Anchor-2" 376 0 basechar 0
AnchorPoint: "Anchor-0" 451 484 basechar 0
LayerCount: 2
Fore
SplineSet
196 -6 m 0,0,1
 186 -6 186 -6 177.5 0.5 c 128,-1,2
 169 7 169 7 167 20 c 2,3,-1
 84 454 l 2,4,5
 82 465 82 465 83.5 473 c 128,-1,6
 85 481 85 481 90 485.5 c 128,-1,7
 95 490 95 490 103 490 c 0,8,9
 114 490 114 490 118 484.5 c 128,-1,10
 122 479 122 479 124 468 c 2,11,-1
 208 12 l 1,12,-1
 182 12 l 1,13,-1
 418 469 l 2,14,15
 424 480 424 480 432 485 c 128,-1,16
 440 490 440 490 451 490 c 256,17,18
 462 490 462 490 470.5 484 c 128,-1,19
 479 478 479 478 481 464 c 2,20,-1
 567 12 l 1,21,-1
 542 12 l 1,22,-1
 777 474 l 2,23,24
 782 482 782 482 787 486 c 128,-1,25
 792 490 792 490 800 490 c 0,26,27
 809 490 809 490 813.5 485.5 c 128,-1,28
 818 481 818 481 818.5 474 c 128,-1,29
 819 467 819 467 815 459 c 2,30,-1
 588 15 l 2,31,32
 583 5 583 5 575 -0.5 c 128,-1,33
 567 -6 567 -6 557 -6 c 256,34,35
 547 -6 547 -6 538.5 0.5 c 128,-1,36
 530 7 530 7 527 20 c 2,37,-1
 443 451 l 1,38,-1
 455 451 l 1,39,-1
 228 15 l 2,40,41
 223 5 223 5 215 -0.5 c 128,-1,42
 207 -6 207 -6 196 -6 c 0,0,1
EndSplineSet
EndChar

StartChar: x
Encoding: 120 120 470
Width: 506
GlyphClass: 2
Flags: W
AnchorPoint: "Anchor-2" 215 0 basechar 0
AnchorPoint: "Anchor-0" 292 484 basechar 0
LayerCount: 2
Fore
SplineSet
26 -6 m 0,0,1
 17 -6 17 -6 12 -1.5 c 128,-1,2
 7 3 7 3 7 10 c 128,-1,3
 7 17 7 17 12 22 c 2,4,-1
 240 261 l 1,5,-1
 238 237 l 1,6,-1
 98 455 l 2,7,8
 91 467 91 467 92 474.5 c 128,-1,9
 93 482 93 482 98.5 486 c 128,-1,10
 104 490 104 490 109 490 c 0,11,12
 117 490 117 490 122.5 486.5 c 128,-1,13
 128 483 128 483 132 475 c 2,14,-1
 263 270 l 1,15,-1
 252 270 l 1,16,-1
 446 478 l 2,17,18
 452 484 452 484 457 487 c 128,-1,19
 462 490 462 490 470 490 c 0,20,21
 479 490 479 490 484 485.5 c 128,-1,22
 489 481 489 481 489 474.5 c 128,-1,23
 489 468 489 468 484 462 c 2,24,-1
 275 240 l 1,25,-1
 273 259 l 1,26,-1
 421 29 l 2,27,28
 429 18 429 18 427.5 10 c 128,-1,29
 426 2 426 2 420.5 -2 c 128,-1,30
 415 -6 415 -6 409 -6 c 0,31,32
 402 -6 402 -6 396.5 -2 c 128,-1,33
 391 2 391 2 386 9 c 2,34,-1
 247 227 l 1,35,-1
 258 225 l 1,36,-1
 50 6 l 2,37,38
 44 0 44 0 38.5 -3 c 128,-1,39
 33 -6 33 -6 26 -6 c 0,0,1
EndSplineSet
EndChar

StartChar: y
Encoding: 121 121 471
Width: 504
GlyphClass: 2
Flags: W
AnchorPoint: "Anchor-2" 332 0 basechar 0
AnchorPoint: "Anchor-0" 280 484 basechar 0
LayerCount: 2
Fore
SplineSet
115 -186 m 0,0,1
 106 -186 106 -186 101.5 -181 c 128,-1,2
 97 -176 97 -176 97.5 -168 c 128,-1,3
 98 -160 98 -160 103 -151 c 2,4,-1
 195 7 l 1,5,-1
 192 -13 l 1,6,-1
 67 458 l 2,7,8
 65 468 65 468 66 475 c 128,-1,9
 67 482 67 482 72.5 486 c 128,-1,10
 78 490 78 490 87 490 c 0,11,12
 97 490 97 490 101 485.5 c 128,-1,13
 105 481 105 481 108 470 c 2,14,-1
 224 14 l 1,15,-1
 199 14 l 1,16,-1
 465 474 l 2,17,18
 470 482 470 482 475 486 c 128,-1,19
 480 490 480 490 488 490 c 0,20,21
 497 490 497 490 502.5 485 c 128,-1,22
 508 480 508 480 509 472.5 c 128,-1,23
 510 465 510 465 504 455 c 2,24,-1
 138 -169 l 2,25,26
 134 -177 134 -177 128.5 -181.5 c 128,-1,27
 123 -186 123 -186 115 -186 c 0,0,1
EndSplineSet
EndChar

StartChar: uni01B4
Encoding: 436 436 478
Width: 534
GlyphClass: 1
Flags: W
LayerCount: 2
Fore
SplineSet
116 -186 m 0,0,1
 107 -186 107 -186 102 -181 c 128,-1,2
 97 -176 97 -176 97.5 -168 c 128,-1,3
 98 -160 98 -160 103 -151 c 2,4,-1
 195 7 l 1,5,-1
 192 -13 l 1,6,-1
 67 455 l 2,7,8
 65 465 65 465 66.5 472.5 c 128,-1,9
 68 480 68 480 73.5 485 c 128,-1,10
 79 490 79 490 88 490 c 0,11,12
 98 490 98 490 101.5 485.5 c 128,-1,13
 105 481 105 481 108 470 c 2,14,-1
 224 14 l 1,15,-1
 199 14 l 1,16,-1
 423 402 l 2,17,18
 441 433 441 433 461 453 c 128,-1,19
 481 473 481 473 505.5 482.5 c 128,-1,20
 530 492 530 492 562 492 c 0,21,22
 591 492 591 492 602.5 486.5 c 128,-1,23
 614 481 614 481 614 470 c 0,24,25
 614 461 614 461 607.5 456.5 c 128,-1,26
 601 452 601 452 592 452 c 0,27,28
 588 452 588 452 578 453 c 128,-1,29
 568 454 568 454 560 454 c 0,30,31
 527 454 527 454 504.5 436 c 128,-1,32
 482 418 482 418 454 371 c 2,33,-1
 139 -169 l 2,34,35
 135 -177 135 -177 129.5 -181.5 c 128,-1,36
 124 -186 124 -186 116 -186 c 0,0,1
EndSplineSet
EndChar

StartChar: z
Encoding: 122 122 482
Width: 454
GlyphClass: 2
Flags: W
AnchorPoint: "Anchor-2" 208 0 basechar 0
AnchorPoint: "Anchor-0" 269 484 basechar 0
LayerCount: 2
Fore
SplineSet
42 0 m 2,0,1
 36 0 36 0 31.5 2.5 c 128,-1,2
 27 5 27 5 24.5 9.5 c 128,-1,3
 22 14 22 14 23 19.5 c 128,-1,4
 24 25 24 25 29 31 c 2,5,-1
 399 461 l 1,6,-1
 402 449 l 1,7,-1
 109 449 l 2,8,9
 100 449 100 449 95 453 c 128,-1,10
 90 457 90 457 90 464 c 0,11,12
 90 474 90 474 95.5 479 c 128,-1,13
 101 484 101 484 111 484 c 2,14,-1
 428 484 l 2,15,16
 435 484 435 484 440 481 c 128,-1,17
 445 478 445 478 446.5 473.5 c 128,-1,18
 448 469 448 469 446 462.5 c 128,-1,19
 444 456 444 456 438 449 c 2,20,-1
 70 22 l 1,21,-1
 67 35 l 1,22,-1
 372 35 l 2,23,24
 391 35 391 35 391 21 c 0,25,26
 391 11 391 11 385.5 5.5 c 128,-1,27
 380 0 380 0 370 0 c 2,28,-1
 42 0 l 2,0,1
EndSplineSet
EndChar

StartChar: germandbls.calt
Encoding: 65540 -1 487
Width: 697
GlyphClass: 1
Flags: W
LayerCount: 2
Fore
SplineSet
378 -8 m 0,0,1
 326 -8 326 -8 277.5 8 c 128,-1,2
 229 24 229 24 198 51 c 0,3,4
 191 56 191 56 189.5 63 c 128,-1,5
 188 70 188 70 190 76 c 128,-1,6
 192 82 192 82 197 86 c 128,-1,7
 202 90 202 90 209 90 c 128,-1,8
 216 90 216 90 224 84 c 0,9,10
 257 59 257 59 297.5 46 c 128,-1,11
 338 33 338 33 381 33 c 0,12,13
 476 33 476 33 525 77.5 c 128,-1,14
 574 122 574 122 574 204 c 0,15,16
 574 269 574 269 531.5 302 c 128,-1,17
 489 335 489 335 411 335 c 2,18,-1
 289 335 l 2,19,20
 279 335 279 335 273.5 339.5 c 128,-1,21
 268 344 268 344 268 351 c 0,22,23
 268 365 268 365 275.5 369.5 c 128,-1,24
 283 374 283 374 292 374 c 2,25,-1
 409 374 l 2,26,27
 490 374 490 374 541.5 416 c 128,-1,28
 593 458 593 458 593 537 c 0,29,30
 593 599 593 599 547 635.5 c 128,-1,31
 501 672 501 672 416 672 c 0,32,33
 309 672 309 672 250 621.5 c 128,-1,34
 191 571 191 571 174 467 c 2,35,-1
 102 15 l 2,36,37
 101 5 101 5 95 -0.5 c 128,-1,38
 89 -6 89 -6 78 -6 c 0,39,40
 68 -6 68 -6 63.5 0.5 c 128,-1,41
 59 7 59 7 61 19 c 2,42,-1
 133 472 l 2,43,44
 146 553 146 553 181.5 606.5 c 128,-1,45
 217 660 217 660 276 686.5 c 128,-1,46
 335 713 335 713 419 713 c 0,47,48
 488 713 488 713 537 690.5 c 128,-1,49
 586 668 586 668 611.5 628.5 c 128,-1,50
 637 589 637 589 637 538 c 0,51,52
 637 458 637 458 590 409 c 128,-1,53
 543 360 543 360 475 349 c 1,54,-1
 475 363 l 1,55,56
 519 356 519 356 551 334.5 c 128,-1,57
 583 313 583 313 600.5 280 c 128,-1,58
 618 247 618 247 618 205 c 0,59,60
 618 137 618 137 590.5 89 c 128,-1,61
 563 41 563 41 509.5 16.5 c 128,-1,62
 456 -8 456 -8 378 -8 c 0,0,1
EndSplineSet
EndChar

StartChar: a.ss01
Encoding: 65542 -1 489
Width: 568
GlyphClass: 2
Flags: W
AnchorPoint: "Anchor-3" 444 0 basechar 0
AnchorPoint: "Anchor-2" 245 0 basechar 0
AnchorPoint: "Anchor-0" 310 484 basechar 0
LayerCount: 2
Fore
SplineSet
241 -8 m 0,0,1
 184 -8 184 -8 141.5 17 c 128,-1,2
 99 42 99 42 75 88.5 c 128,-1,3
 51 135 51 135 51 198 c 0,4,5
 51 276 51 276 78.5 343 c 128,-1,6
 106 410 106 410 160 451 c 128,-1,7
 214 492 214 492 293 492 c 0,8,9
 354 492 354 492 402 460.5 c 128,-1,10
 450 429 450 429 467 362 c 1,11,-1
 460 362 l 1,12,-1
 477 469 l 2,13,14
 479 480 479 480 485 485 c 128,-1,15
 491 490 491 490 501 490 c 256,16,17
 511 490 511 490 515.5 483.5 c 128,-1,18
 520 477 520 477 518 465 c 2,19,-1
 447 15 l 2,20,21
 446 5 446 5 440 -0.5 c 128,-1,22
 434 -6 434 -6 423 -6 c 0,23,24
 413 -6 413 -6 408.5 0.5 c 128,-1,25
 404 7 404 7 406 19 c 2,26,-1
 421 113 l 1,27,-1
 432 113 l 1,28,29
 407 58 407 58 358 25 c 128,-1,30
 309 -8 309 -8 241 -8 c 0,0,1
247 31 m 0,31,32
 311 31 311 31 355 66 c 128,-1,33
 399 101 399 101 421.5 159 c 128,-1,34
 444 217 444 217 444 286 c 0,35,36
 444 369 444 369 403.5 411 c 128,-1,37
 363 453 363 453 291 453 c 0,38,39
 227 453 227 453 183 418 c 128,-1,40
 139 383 139 383 116.5 325.5 c 128,-1,41
 94 268 94 268 94 198 c 0,42,43
 94 116 94 116 134.5 73.5 c 128,-1,44
 175 31 175 31 247 31 c 0,31,32
EndSplineSet
EndChar

StartChar: l.ss02
Encoding: 65569 -1 516
Width: 212
GlyphClass: 2
Flags: W
AnchorPoint: "Anchor-5" 124 357 basechar 0
AnchorPoint: "Anchor-2" 67 0 basechar 0
AnchorPoint: "Anchor-1" 250 705 basechar 0
AnchorPoint: "Anchor-0" 179 705 basechar 0
LayerCount: 2
Fore
SplineSet
67 -6 m 0,0,1
 57 -6 57 -6 52.5 0.5 c 128,-1,2
 48 7 48 7 50 19 c 2,3,-1
 156 690 l 2,4,5
 158 701 158 701 164 706 c 128,-1,6
 170 711 170 711 180 711 c 256,7,8
 190 711 190 711 194.5 704.5 c 128,-1,9
 199 698 199 698 197 686 c 2,10,-1
 91 15 l 2,11,12
 88 -6 88 -6 67 -6 c 0,0,1
EndSplineSet
EndChar

StartChar: fi
Encoding: 64257 64257 525
Width: 512
GlyphClass: 3
LigCaretCntFixed: 1
Flags: W
LayerCount: 2
Fore
SplineSet
87 -6 m 0,0,1
 77 -6 77 -6 72.5 0.5 c 128,-1,2
 68 7 68 7 70 19 c 2,3,-1
 138 448 l 1,4,-1
 63 448 l 2,5,6
 54 448 54 448 49.5 451.5 c 128,-1,7
 45 455 45 455 45 462 c 0,8,9
 45 473 45 473 51.5 478.5 c 128,-1,10
 58 484 58 484 69 484 c 2,11,-1
 152 484 l 1,12,-1
 142 474 l 1,13,-1
 151 533 l 2,14,15
 163 611 163 611 211 655.5 c 128,-1,16
 259 700 259 700 337 705 c 2,17,-1
 366 707 l 2,18,19
 375 708 375 708 380 704.5 c 128,-1,20
 385 701 385 701 387 695.5 c 128,-1,21
 389 690 389 690 388 684 c 128,-1,22
 387 678 387 678 382.5 674 c 128,-1,23
 378 670 378 670 371 669 c 2,24,-1
 339 667 l 2,25,26
 275 663 275 663 239 628.5 c 128,-1,27
 203 594 203 594 192 528 c 2,28,-1
 184 477 l 1,29,-1
 179 484 l 1,30,-1
 444 484 l 2,31,32
 454 484 454 484 458.5 477.5 c 128,-1,33
 463 471 463 471 461 459 c 2,34,-1
 391 15 l 2,35,36
 390 5 390 5 384 -0.5 c 128,-1,37
 378 -6 378 -6 367 -6 c 0,38,39
 357 -6 357 -6 352.5 0.5 c 128,-1,40
 348 7 348 7 350 19 c 2,41,-1
 418 448 l 1,42,-1
 180 448 l 1,43,-1
 111 15 l 2,44,45
 108 -6 108 -6 87 -6 c 0,0,1
467 616 m 0,46,47
 453 616 453 616 445 623.5 c 128,-1,48
 437 631 437 631 437 644 c 0,49,50
 437 664 437 664 448 674.5 c 128,-1,51
 459 685 459 685 478 685 c 0,52,53
 492 685 492 685 500 678 c 128,-1,54
 508 671 508 671 508 657 c 0,55,56
 508 638 508 638 497 627 c 128,-1,57
 486 616 486 616 467 616 c 0,46,47
EndSplineSet
Ligature2: "'liga' Standard Ligatures lookup 33 subtable" f i
LCarets2: 1 256
EndChar

StartChar: ordfeminine
Encoding: 170 170 529
Width: 316
GlyphClass: 1
Flags: W
LayerCount: 2
Fore
SplineSet
171 413 m 0,0,1
 130 413 130 413 102 438.5 c 128,-1,2
 74 464 74 464 74 501 c 0,3,4
 74 545 74 545 113 565 c 128,-1,5
 152 585 152 585 240 585 c 2,6,-1
 310 585 l 1,7,-1
 305 556 l 1,8,-1
 249 556 l 2,9,10
 170 556 170 556 140 543.5 c 128,-1,11
 110 531 110 531 110 502 c 0,12,13
 110 476 110 476 127.5 460 c 128,-1,14
 145 444 145 444 173 444 c 0,15,16
 198 444 198 444 222.5 456 c 128,-1,17
 247 468 247 468 264.5 489.5 c 128,-1,18
 282 511 282 511 286 537 c 2,19,-1
 297 606 l 2,20,21
 303 645 303 645 280.5 663.5 c 128,-1,22
 258 682 258 682 220 682 c 0,23,24
 197 682 197 682 177 676 c 128,-1,25
 157 670 157 670 137 659 c 0,26,27
 129 654 129 654 122.5 655.5 c 128,-1,28
 116 657 116 657 113 662.5 c 128,-1,29
 110 668 110 668 111.5 675 c 128,-1,30
 113 682 113 682 122 687 c 0,31,32
 142 699 142 699 167.5 706 c 128,-1,33
 193 713 193 713 221 713 c 0,34,35
 256 713 256 713 283 699.5 c 128,-1,36
 310 686 310 686 323 660 c 128,-1,37
 336 634 336 634 330 596 c 2,38,-1
 304 430 l 2,39,40
 301 414 301 414 284 414 c 0,41,42
 277 414 277 414 273 418.5 c 128,-1,43
 269 423 269 423 270 433 c 2,44,-1
 276 471 l 1,45,-1
 274 471 l 1,46,47
 258 445 258 445 232 429 c 128,-1,48
 206 413 206 413 171 413 c 0,0,1
EndSplineSet
EndChar

StartChar: ordmasculine
Encoding: 186 186 530
Width: 326
GlyphClass: 1
Flags: W
LayerCount: 2
Fore
SplineSet
207 413 m 0,0,1
 169 413 169 413 140 430 c 128,-1,2
 111 447 111 447 94.5 478 c 128,-1,3
 78 509 78 509 78 550 c 0,4,5
 78 600 78 600 97.5 636.5 c 128,-1,6
 117 673 117 673 149.5 693 c 128,-1,7
 182 713 182 713 221 713 c 0,8,9
 259 713 259 713 288 696 c 128,-1,10
 317 679 317 679 333.5 648.5 c 128,-1,11
 350 618 350 618 350 576 c 0,12,13
 350 526 350 526 330.5 489.5 c 128,-1,14
 311 453 311 453 279 433 c 128,-1,15
 247 413 247 413 207 413 c 0,0,1
208 444 m 0,16,17
 255 444 255 444 284.5 478.5 c 128,-1,18
 314 513 314 513 314 577 c 0,19,20
 314 627 314 627 288.5 654.5 c 128,-1,21
 263 682 263 682 220 682 c 0,22,23
 173 682 173 682 143.5 647.5 c 128,-1,24
 114 613 114 613 114 549 c 0,25,26
 114 499 114 499 139.5 471.5 c 128,-1,27
 165 444 165 444 208 444 c 0,16,17
EndSplineSet
EndChar

StartChar: uni0411
Encoding: 1041 1041 532
Width: 649
GlyphClass: 1
Flags: W
LayerCount: 2
Fore
SplineSet
85 0 m 2,0,1
 72 0 72 0 66 7 c 128,-1,2
 60 14 60 14 62 27 c 2,3,-1
 166 682 l 2,4,5
 168 694 168 694 175 699.5 c 128,-1,6
 182 705 182 705 193 705 c 2,7,-1
 573 705 l 2,8,9
 584 705 584 705 589.5 701 c 128,-1,10
 595 697 595 697 595 689 c 0,11,12
 595 678 595 678 588.5 672 c 128,-1,13
 582 666 582 666 571 666 c 2,14,-1
 206 666 l 1,15,-1
 160 379 l 1,16,-1
 379 379 l 2,17,18
 482 379 482 379 534.5 333 c 128,-1,19
 587 287 587 287 587 209 c 0,20,21
 587 105 587 105 525 52.5 c 128,-1,22
 463 0 463 0 345 0 c 2,23,-1
 85 0 l 2,0,1
106 39 m 1,24,-1
 349 39 l 2,25,26
 446 39 446 39 494.5 81.5 c 128,-1,27
 543 124 543 124 543 208 c 0,28,29
 543 273 543 273 500.5 306.5 c 128,-1,30
 458 340 458 340 378 340 c 2,31,-1
 154 340 l 1,32,-1
 106 39 l 1,24,-1
EndSplineSet
EndChar

StartChar: uni0413
Encoding: 1043 1043 534
Width: 527
GlyphClass: 2
Flags: W
AnchorPoint: "Anchor-4" 165 353 basechar 0
AnchorPoint: "Anchor-0" 348 705 basechar 0
LayerCount: 2
Fore
SplineSet
79 -6 m 0,0,1
 69 -6 69 -6 64 0.5 c 128,-1,2
 59 7 59 7 61 20 c 2,3,-1
 166 682 l 2,4,5
 168 694 168 694 175 699.5 c 128,-1,6
 182 705 182 705 193 705 c 2,7,-1
 573 705 l 2,8,9
 584 705 584 705 589.5 701 c 128,-1,10
 595 697 595 697 595 689 c 0,11,12
 595 678 595 678 588.5 672 c 128,-1,13
 582 666 582 666 571 666 c 2,14,-1
 206 666 l 1,15,-1
 103 16 l 2,16,17
 102 6 102 6 96 0 c 128,-1,18
 90 -6 90 -6 79 -6 c 0,0,1
EndSplineSet
EndChar

StartChar: uni0490
Encoding: 1168 1168 536
Width: 527
GlyphClass: 1
Flags: W
LayerCount: 2
Fore
SplineSet
80 -6 m 0,0,1
 70 -6 70 -6 64.5 0.5 c 128,-1,2
 59 7 59 7 61 20 c 2,3,-1
 166 682 l 2,4,5
 168 694 168 694 175 699.5 c 128,-1,6
 182 705 182 705 193 705 c 2,7,-1
 548 705 l 1,8,-1
 570 841 l 2,9,10
 573 861 573 861 593 861 c 0,11,12
 602 861 602 861 606.5 854.5 c 128,-1,13
 611 848 611 848 609 837 c 2,14,-1
 586 689 l 2,15,16
 585 677 585 677 577.5 671.5 c 128,-1,17
 570 666 570 666 559 666 c 2,18,-1
 206 666 l 1,19,-1
 103 16 l 2,20,21
 102 6 102 6 96.5 0 c 128,-1,22
 91 -6 91 -6 80 -6 c 0,0,1
EndSplineSet
EndChar

StartChar: uni04F6
Encoding: 1270 1270 537
Width: 527
GlyphClass: 1
Flags: W
LayerCount: 2
Fore
SplineSet
157 -155 m 0,0,1
 149 -155 149 -155 143.5 -149.5 c 128,-1,2
 138 -144 138 -144 140 -132 c 2,3,-1
 161 0 l 1,4,-1
 79 0 l 2,5,6
 69 0 69 0 64.5 6.5 c 128,-1,7
 60 13 60 13 62 26 c 2,8,-1
 166 682 l 2,9,10
 168 694 168 694 175 699.5 c 128,-1,11
 182 705 182 705 193 705 c 2,12,-1
 573 705 l 2,13,14
 584 705 584 705 589.5 701 c 128,-1,15
 595 697 595 697 595 689 c 0,16,17
 595 678 595 678 588.5 672 c 128,-1,18
 582 666 582 666 571 666 c 2,19,-1
 206 666 l 1,20,-1
 103 20 l 1,21,-1
 86 39 l 1,22,-1
 179 39 l 2,23,24
 192 39 192 39 198.5 34 c 128,-1,25
 205 29 205 29 203 15 c 2,26,-1
 179 -135 l 2,27,28
 178 -145 178 -145 172.5 -150 c 128,-1,29
 167 -155 167 -155 157 -155 c 0,0,1
EndSplineSet
EndChar

StartChar: uni0492
Encoding: 1170 1170 538
Width: 558
GlyphClass: 1
Flags: W
LayerCount: 2
Fore
SplineSet
110 -6 m 0,0,1
 100 -6 100 -6 95 0.5 c 128,-1,2
 90 7 90 7 92 20 c 2,3,-1
 142 338 l 1,4,-1
 66 338 l 2,5,6
 56 338 56 338 50.5 342.5 c 128,-1,7
 45 347 45 347 45 354 c 0,8,9
 45 365 45 365 51.5 370.5 c 128,-1,10
 58 376 58 376 68 376 c 2,11,-1
 148 376 l 1,12,-1
 197 682 l 2,13,14
 199 694 199 694 206 699.5 c 128,-1,15
 213 705 213 705 224 705 c 2,16,-1
 604 705 l 2,17,18
 615 705 615 705 620.5 701 c 128,-1,19
 626 697 626 697 626 689 c 0,20,21
 626 678 626 678 619.5 672 c 128,-1,22
 613 666 613 666 602 666 c 2,23,-1
 236 666 l 1,24,-1
 190 376 l 1,25,-1
 356 376 l 2,26,27
 366 376 366 376 371.5 372 c 128,-1,28
 377 368 377 368 377 360 c 0,29,30
 377 350 377 350 371 344 c 128,-1,31
 365 338 365 338 354 338 c 2,32,-1
 184 338 l 1,33,-1
 133 16 l 2,34,35
 132 6 132 6 126.5 0 c 128,-1,36
 121 -6 121 -6 110 -6 c 0,0,1
EndSplineSet
Substitution2: "'locl' Localized Forms in Cyrillic lookup 16 subtable" uni0492.loclBSH
Substitution2: "'aalt' Access All Alternates lookup 0 subtable" uni0492.loclBSH
EndChar

StartChar: uni0494
Encoding: 1172 1172 539
Width: 641
GlyphClass: 1
Flags: W
LayerCount: 2
Fore
SplineSet
330 -188 m 0,0,1
 303 -188 303 -188 278.5 -183.5 c 128,-1,2
 254 -179 254 -179 234 -172 c 0,3,4
 227 -170 227 -170 223.5 -164.5 c 128,-1,5
 220 -159 220 -159 220.5 -153 c 128,-1,6
 221 -147 221 -147 224 -142 c 128,-1,7
 227 -137 227 -137 233.5 -135 c 128,-1,8
 240 -133 240 -133 248 -136 c 0,9,10
 265 -142 265 -142 285 -145.5 c 128,-1,11
 305 -149 305 -149 329 -149 c 0,12,13
 400 -149 400 -149 444 -101.5 c 128,-1,14
 488 -54 488 -54 504 42 c 2,15,-1
 520 140 l 2,16,17
 541 268 541 268 497 328 c 128,-1,18
 453 388 453 388 346 388 c 0,19,20
 294 388 294 388 246.5 377.5 c 128,-1,21
 199 367 199 367 154 341 c 1,22,-1
 102 15 l 2,23,24
 101 5 101 5 95 -0.5 c 128,-1,25
 89 -6 89 -6 78 -6 c 0,26,27
 68 -6 68 -6 63.5 0.5 c 128,-1,28
 59 7 59 7 61 19 c 2,29,-1
 166 682 l 2,30,31
 168 694 168 694 175 699.5 c 128,-1,32
 182 705 182 705 193 705 c 2,33,-1
 581 705 l 2,34,35
 592 705 592 705 597.5 701 c 128,-1,36
 603 697 603 697 603 689 c 0,37,38
 603 678 603 678 596.5 672 c 128,-1,39
 590 666 590 666 579 666 c 2,40,-1
 206 666 l 1,41,-1
 162 387 l 1,42,43
 200 408 200 408 247 418.5 c 128,-1,44
 294 429 294 429 346 429 c 0,45,46
 409 429 409 429 455 411 c 128,-1,47
 501 393 501 393 528.5 357.5 c 128,-1,48
 556 322 556 322 564.5 269 c 128,-1,49
 573 216 573 216 562 146 c 2,50,-1
 546 43 l 2,51,52
 534 -33 534 -33 506.5 -84.5 c 128,-1,53
 479 -136 479 -136 435 -162 c 128,-1,54
 391 -188 391 -188 330 -188 c 0,0,1
EndSplineSet
EndChar

StartChar: uni0414
Encoding: 1044 1044 540
Width: 760
GlyphClass: 1
Flags: W
AnchorPoint: "Anchor-0" 474 704 basechar 0
LayerCount: 2
Fore
SplineSet
-24 -156 m 0,0,1
 -33 -156 -33 -156 -37 -149.5 c 128,-1,2
 -41 -143 -41 -143 -40 -131 c 2,3,-1
 -17 16 l 2,4,5
 -14 39 -14 39 10 39 c 2,6,-1
 74 39 l 1,7,-1
 49 33 l 1,8,9
 118 98 118 98 164.5 218 c 128,-1,10
 211 338 211 338 241 525 c 2,11,-1
 266 682 l 2,12,13
 268 693 268 693 275 699 c 128,-1,14
 282 705 282 705 293 705 c 2,15,-1
 683 705 l 2,16,17
 696 705 696 705 702 698 c 128,-1,18
 708 691 708 691 706 678 c 2,19,-1
 601 14 l 1,20,-1
 588 39 l 1,21,-1
 678 39 l 2,22,23
 691 39 691 39 697 32 c 128,-1,24
 703 25 703 25 701 12 c 2,25,-1
 677 -135 l 2,26,27
 674 -156 674 -156 654 -156 c 0,28,29
 645 -156 645 -156 641 -149 c 128,-1,30
 637 -142 637 -142 638 -131 c 2,31,-1
 659 0 l 1,32,-1
 21 0 l 1,33,-1
 -1 -135 l 2,34,35
 -4 -156 -4 -156 -24 -156 c 0,0,1
107 39 m 1,36,-1
 563 39 l 1,37,-1
 662 666 l 1,38,-1
 304 666 l 1,39,-1
 282 525 l 2,40,41
 254 344 254 344 211.5 224.5 c 128,-1,42
 169 105 169 105 107 39 c 1,36,-1
EndSplineSet
EndChar

StartChar: uni0416
Encoding: 1046 1046 544
Width: 928
GlyphClass: 2
Flags: W
AnchorPoint: "Anchor-0" 537 705 basechar 0
LayerCount: 2
Fore
SplineSet
424 -6 m 0,0,1
 414 -6 414 -6 410 0.5 c 128,-1,2
 406 7 406 7 407 19 c 2,3,-1
 458 339 l 1,4,-1
 356 339 l 2,5,6
 295 339 295 339 249.5 309 c 128,-1,7
 204 279 204 279 160 210 c 2,8,-1
 30 7 l 2,9,10
 25 0 25 0 18.5 -3.5 c 128,-1,11
 12 -7 12 -7 5.5 -6 c 128,-1,12
 -1 -5 -1 -5 -5.5 -0.5 c 128,-1,13
 -10 4 -10 4 -10 11 c 128,-1,14
 -10 18 -10 18 -4 27 c 2,15,-1
 132 239 l 2,16,17
 173 303 173 303 220 337.5 c 128,-1,18
 267 372 267 372 324 376 c 1,19,-1
 311 359 l 1,20,-1
 142 683 l 2,21,22
 138 690 138 690 139 696.5 c 128,-1,23
 140 703 140 703 144.5 706.5 c 128,-1,24
 149 710 149 710 155.5 710.5 c 128,-1,25
 162 711 162 711 168 708.5 c 128,-1,26
 174 706 174 706 178 698 c 2,27,-1
 353 363 l 1,28,-1
 334 378 l 1,29,-1
 464 378 l 1,30,-1
 514 690 l 2,31,32
 516 701 516 701 522 706 c 128,-1,33
 528 711 528 711 538 711 c 256,34,35
 548 711 548 711 552.5 704.5 c 128,-1,36
 557 698 557 698 555 686 c 2,37,-1
 506 378 l 1,38,-1
 623 378 l 1,39,-1
 606 363 l 1,40,-1
 889 700 l 2,41,42
 894 707 894 707 901 709 c 128,-1,43
 908 711 908 711 914.5 709.5 c 128,-1,44
 921 708 921 708 924.5 703 c 128,-1,45
 928 698 928 698 927.5 691 c 128,-1,46
 927 684 927 684 920 675 c 2,47,-1
 654 359 l 1,48,-1
 633 376 l 1,49,50
 670 373 670 373 701.5 356.5 c 128,-1,51
 733 340 733 340 756.5 310.5 c 128,-1,52
 780 281 780 281 794 239 c 2,53,-1
 866 21 l 2,54,55
 869 13 869 13 866.5 7 c 128,-1,56
 864 1 864 1 858.5 -2.5 c 128,-1,57
 853 -6 853 -6 846.5 -5.5 c 128,-1,58
 840 -5 840 -5 834.5 -1 c 128,-1,59
 829 3 829 3 826 12 c 2,60,-1
 762 210 l 2,61,62
 740 280 740 280 701.5 309.5 c 128,-1,63
 663 339 663 339 604 339 c 2,64,-1
 500 339 l 1,65,-1
 448 15 l 2,66,67
 447 5 447 5 441 -0.5 c 128,-1,68
 435 -6 435 -6 424 -6 c 0,0,1
EndSplineSet
EndChar

StartChar: uni0417
Encoding: 1047 1047 545
Width: 645
GlyphClass: 2
Flags: W
AnchorPoint: "Anchor-2" 289 0 basechar 0
AnchorPoint: "Anchor-0" 393 705 basechar 0
LayerCount: 2
Fore
SplineSet
306 -8 m 0,0,1
 222 -8 222 -8 158 11.5 c 128,-1,2
 94 31 94 31 41 74 c 0,3,4
 34 80 34 80 32 87 c 128,-1,5
 30 94 30 94 32 100.5 c 128,-1,6
 34 107 34 107 39 111 c 128,-1,7
 44 115 44 115 51.5 115 c 128,-1,8
 59 115 59 115 67 108 c 0,9,10
 103 80 103 80 140.5 63.5 c 128,-1,11
 178 47 178 47 220 40 c 128,-1,12
 262 33 262 33 311 33 c 0,13,14
 368 33 368 33 416 49 c 128,-1,15
 464 65 464 65 493 102.5 c 128,-1,16
 522 140 522 140 522 204 c 0,17,18
 522 270 522 270 480 303.5 c 128,-1,19
 438 337 438 337 358 337 c 2,20,-1
 206 337 l 2,21,22
 195 337 195 337 189 342 c 128,-1,23
 183 347 183 347 184 357 c 0,24,25
 186 366 186 366 192 371 c 128,-1,26
 198 376 198 376 208 376 c 2,27,-1
 365 376 l 2,28,29
 454 376 454 376 506.5 419 c 128,-1,30
 559 462 559 462 559 543 c 0,31,32
 559 589 559 589 535 617 c 128,-1,33
 511 645 511 645 471 658.5 c 128,-1,34
 431 672 431 672 382 672 c 0,35,36
 320 672 320 672 261 654 c 128,-1,37
 202 636 202 636 152 598 c 0,38,39
 143 591 143 591 135.5 590.5 c 128,-1,40
 128 590 128 590 123 594 c 128,-1,41
 118 598 118 598 116.5 604.5 c 128,-1,42
 115 611 115 611 117 618 c 128,-1,43
 119 625 119 625 126 630 c 0,44,45
 181 671 181 671 248 692 c 128,-1,46
 315 713 315 713 382 713 c 0,47,48
 442 713 442 713 492 695 c 128,-1,49
 542 677 542 677 572.5 640 c 128,-1,50
 603 603 603 603 603 545 c 0,51,52
 603 462 603 462 553.5 411 c 128,-1,53
 504 360 504 360 421 349 c 1,54,-1
 421 363 l 1,55,56
 488 353 488 353 527 310.5 c 128,-1,57
 566 268 566 268 566 203 c 0,58,59
 566 127 566 127 530.5 80.5 c 128,-1,60
 495 34 495 34 436 13 c 128,-1,61
 377 -8 377 -8 306 -8 c 0,0,1
EndSplineSet
EndChar

StartChar: uni0418
Encoding: 1048 1048 546
Width: 732
GlyphClass: 2
Flags: W
AnchorPoint: "Anchor-0" 439 705 basechar 0
LayerCount: 2
Fore
SplineSet
76 -8 m 0,0,1
 72 -8 72 -8 68.5 -7 c 128,-1,2
 65 -6 65 -6 63 -3.5 c 128,-1,3
 61 -1 61 -1 60 2.5 c 128,-1,4
 59 6 59 6 60 11 c 2,5,-1
 168 691 l 2,6,7
 170 702 170 702 175.5 706.5 c 128,-1,8
 181 711 181 711 191 711 c 0,9,10
 200 711 200 711 204 704.5 c 128,-1,11
 208 698 208 698 206 687 c 2,12,-1
 104 42 l 1,13,-1
 79 42 l 1,14,-1
 668 698 l 2,15,16
 675 706 675 706 679.5 708.5 c 128,-1,17
 684 711 684 711 691 711 c 0,18,19
 697 711 697 711 700.5 708.5 c 128,-1,20
 704 706 704 706 705.5 701.5 c 128,-1,21
 707 697 707 697 706 690 c 2,22,-1
 599 14 l 2,23,24
 598 4 598 4 592.5 -1 c 128,-1,25
 587 -6 587 -6 577 -6 c 0,26,27
 568 -6 568 -6 564 0.5 c 128,-1,28
 560 7 560 7 561 18 c 2,29,-1
 663 663 l 1,30,-1
 687 663 l 1,31,-1
 97 5 l 2,32,33
 90 -2 90 -2 86.5 -5 c 128,-1,34
 83 -8 83 -8 76 -8 c 0,0,1
EndSplineSet
EndChar

StartChar: uni048A
Encoding: 1162 1162 549
Width: 770
GlyphClass: 1
Flags: W
LayerCount: 2
Fore
SplineSet
621 -144 m 2,0,1
 618 -151 618 -151 612.5 -154 c 128,-1,2
 607 -157 607 -157 601.5 -156 c 128,-1,3
 596 -155 596 -155 592 -152 c 128,-1,4
 588 -149 588 -149 587 -143.5 c 128,-1,5
 586 -138 586 -138 589 -131 c 2,6,-1
 661 17 l 1,7,-1
 661 0 l 1,8,-1
 580 0 l 2,9,10
 570 0 570 0 565 6.5 c 128,-1,11
 560 13 560 13 562 26 c 2,12,-1
 663 663 l 1,13,-1
 687 663 l 1,14,-1
 97 5 l 2,15,16
 90 -2 90 -2 86.5 -5 c 128,-1,17
 83 -8 83 -8 76 -8 c 0,18,19
 72 -8 72 -8 68.5 -7 c 128,-1,20
 65 -6 65 -6 63 -3.5 c 128,-1,21
 61 -1 61 -1 60 2.5 c 128,-1,22
 59 6 59 6 60 11 c 2,23,-1
 168 691 l 2,24,25
 170 702 170 702 175.5 706.5 c 128,-1,26
 181 711 181 711 191 711 c 0,27,28
 200 711 200 711 204 704.5 c 128,-1,29
 208 698 208 698 206 687 c 2,30,-1
 104 42 l 1,31,-1
 79 42 l 1,32,-1
 668 698 l 2,33,34
 675 706 675 706 679.5 708.5 c 128,-1,35
 684 711 684 711 691 711 c 0,36,37
 697 711 697 711 700.5 708.5 c 128,-1,38
 704 706 704 706 705.5 701.5 c 128,-1,39
 707 697 707 697 706 690 c 2,40,-1
 600 22 l 1,41,-1
 584 39 l 1,42,-1
 675 39 l 2,43,44
 691 39 691 39 697 30.5 c 128,-1,45
 703 22 703 22 695 6 c 2,46,-1
 621 -144 l 2,0,1
443 760 m 0,47,48
 394 760 394 760 347 784.5 c 128,-1,49
 300 809 300 809 277 867 c 0,50,51
 273 878 273 878 275 885 c 128,-1,52
 277 892 277 892 285 896 c 256,53,54
 293 900 293 900 300 895.5 c 128,-1,55
 307 891 307 891 312 880 c 0,56,57
 332 838 332 838 363 817 c 128,-1,58
 394 796 394 796 443 796 c 0,59,60
 496 796 496 796 533 817 c 128,-1,61
 570 838 570 838 604 890 c 0,62,63
 609 897 609 897 614.5 898.5 c 128,-1,64
 620 900 620 900 627 897 c 0,65,66
 635 893 635 893 636 885.5 c 128,-1,67
 637 878 637 878 630 867 c 0,68,69
 593 804 593 804 543 782 c 128,-1,70
 493 760 493 760 443 760 c 0,47,48
EndSplineSet
EndChar

StartChar: uni041A
Encoding: 1050 1050 550
Width: 611
GlyphClass: 2
Flags: W
AnchorPoint: "Anchor-5" 324 353 basechar 0
AnchorPoint: "Anchor-0" 389 705 basechar 0
LayerCount: 2
Fore
SplineSet
78 -6 m 0,0,1
 68 -6 68 -6 63.5 0.5 c 128,-1,2
 59 7 59 7 61 19 c 2,3,-1
 168 692 l 2,4,5
 170 703 170 703 176 707 c 128,-1,6
 182 711 182 711 192 711 c 256,7,8
 202 711 202 711 206.5 704.5 c 128,-1,9
 211 698 211 698 209 686 c 2,10,-1
 160 378 l 1,11,-1
 306 378 l 1,12,-1
 289 363 l 1,13,-1
 572 700 l 2,14,15
 578 707 578 707 585 709 c 128,-1,16
 592 711 592 711 598 709 c 128,-1,17
 604 707 604 707 608 702.5 c 128,-1,18
 612 698 612 698 611 691 c 128,-1,19
 610 684 610 684 603 675 c 2,20,-1
 337 359 l 1,21,-1
 316 376 l 1,22,23
 372 372 372 372 414 337 c 128,-1,24
 456 302 456 302 477 239 c 2,25,-1
 549 21 l 2,26,27
 552 13 552 13 549.5 7 c 128,-1,28
 547 1 547 1 541.5 -2.5 c 128,-1,29
 536 -6 536 -6 529.5 -5.5 c 128,-1,30
 523 -5 523 -5 517.5 -1 c 128,-1,31
 512 3 512 3 509 12 c 2,32,-1
 445 210 l 2,33,34
 423 280 423 280 384.5 309.5 c 128,-1,35
 346 339 346 339 287 339 c 2,36,-1
 154 339 l 1,37,-1
 103 19 l 2,38,39
 101 7 101 7 95 0.5 c 128,-1,40
 89 -6 89 -6 78 -6 c 0,0,1
EndSplineSet
EndChar

StartChar: uni041B
Encoding: 1051 1051 552
Width: 731
GlyphClass: 2
Flags: W
LayerCount: 2
Fore
SplineSet
574 -6 m 0,0,1
 564 -6 564 -6 559.5 0.5 c 128,-1,2
 555 7 555 7 557 20 c 2,3,-1
 659 666 l 1,4,-1
 302 666 l 1,5,-1
 270 465 l 2,6,7
 252 352 252 352 228 273 c 128,-1,8
 204 194 204 194 173.5 141 c 128,-1,9
 143 88 143 88 104 53.5 c 128,-1,10
 65 19 65 19 17 -5 c 0,11,12
 7 -10 7 -10 -1 -7 c 128,-1,13
 -9 -4 -9 -4 -12 5 c 256,14,15
 -15 14 -15 14 -11.5 21 c 128,-1,16
 -8 28 -8 28 2 33 c 0,17,18
 39 51 39 51 72.5 78.5 c 128,-1,19
 106 106 106 106 135 153.5 c 128,-1,20
 164 201 164 201 188.5 279 c 128,-1,21
 213 357 213 357 232 475 c 2,22,-1
 264 679 l 2,23,24
 266 691 266 691 273 698 c 128,-1,25
 280 705 280 705 291 705 c 2,26,-1
 680 705 l 2,27,28
 693 705 693 705 699 698 c 128,-1,29
 705 691 705 691 703 678 c 2,30,-1
 598 16 l 2,31,32
 597 6 597 6 591 0 c 128,-1,33
 585 -6 585 -6 574 -6 c 0,0,1
EndSplineSet
EndChar

StartChar: uni041F
Encoding: 1055 1055 556
Width: 746
GlyphClass: 2
Flags: W
LayerCount: 2
Fore
SplineSet
78 -6 m 0,0,1
 68 -6 68 -6 63.5 0.5 c 128,-1,2
 59 7 59 7 61 20 c 2,3,-1
 166 682 l 2,4,5
 168 694 168 694 175 699.5 c 128,-1,6
 182 705 182 705 193 705 c 2,7,-1
 696 705 l 2,8,9
 709 705 709 705 715 698 c 128,-1,10
 721 691 721 691 719 678 c 2,11,-1
 614 16 l 2,12,13
 613 6 613 6 607 0 c 128,-1,14
 601 -6 601 -6 590 -6 c 0,15,16
 580 -6 580 -6 575.5 0.5 c 128,-1,17
 571 7 571 7 573 20 c 2,18,-1
 675 666 l 1,19,-1
 206 666 l 1,20,-1
 102 16 l 2,21,22
 101 6 101 6 95 0 c 128,-1,23
 89 -6 89 -6 78 -6 c 0,0,1
EndSplineSet
EndChar

StartChar: uni0423
Encoding: 1059 1059 560
Width: 628
GlyphClass: 2
Flags: W
AnchorPoint: "Anchor-0" 378 705 basechar 0
LayerCount: 2
Fore
SplineSet
202 -6 m 0,0,1
 195 -6 195 -6 190 -2 c 128,-1,2
 185 2 185 2 184 9.5 c 128,-1,3
 183 17 183 17 189 25 c 2,4,-1
 322 223 l 1,5,-1
 322 198 l 1,6,-1
 93 684 l 2,7,8
 90 691 90 691 91 697 c 128,-1,9
 92 703 92 703 97.5 707 c 128,-1,10
 103 711 103 711 110 711 c 0,11,12
 119 711 119 711 124 706.5 c 128,-1,13
 129 702 129 702 133 692 c 2,14,-1
 346 240 l 1,15,-1
 334 240 l 1,16,-1
 644 699 l 2,17,18
 649 706 649 706 655 708.5 c 128,-1,19
 661 711 661 711 666 711 c 0,20,21
 673 711 673 711 678 707 c 128,-1,22
 683 703 683 703 684 696 c 128,-1,23
 685 689 685 689 679 680 c 2,24,-1
 224 6 l 2,25,26
 220 -1 220 -1 213.5 -3.5 c 128,-1,27
 207 -6 207 -6 202 -6 c 0,0,1
EndSplineSet
EndChar

StartChar: uni0424
Encoding: 1060 1060 562
Width: 810
GlyphClass: 1
Flags: W
LayerCount: 2
Fore
SplineSet
362 -26 m 0,0,1
 352 -26 352 -26 347.5 -19 c 128,-1,2
 343 -12 343 -12 345 -1 c 2,3,-1
 357 71 l 1,4,-1
 374 57 l 1,5,-1
 370 57 l 2,6,7
 285 57 285 57 220 89 c 128,-1,8
 155 121 155 121 118.5 179.5 c 128,-1,9
 82 238 82 238 82 317 c 0,10,11
 82 381 82 381 106.5 441.5 c 128,-1,12
 131 502 131 502 176.5 551 c 128,-1,13
 222 600 222 600 286.5 629 c 128,-1,14
 351 658 351 658 430 658 c 2,15,-1
 464 658 l 1,16,-1
 447 644 l 1,17,-1
 459 716 l 2,18,19
 461 726 461 726 466.5 731 c 128,-1,20
 472 736 472 736 482 736 c 0,21,22
 491 736 491 736 496.5 730.5 c 128,-1,23
 502 725 502 725 500 712 c 2,24,-1
 489 644 l 1,25,-1
 473 658 l 1,26,-1
 477 658 l 2,27,28
 562 658 562 658 627 626 c 128,-1,29
 692 594 692 594 728.5 536 c 128,-1,30
 765 478 765 478 765 398 c 0,31,32
 765 334 765 334 740.5 273.5 c 128,-1,33
 716 213 716 213 670.5 164 c 128,-1,34
 625 115 625 115 561 86 c 128,-1,35
 497 57 497 57 417 57 c 2,36,-1
 383 57 l 1,37,-1
 399 71 l 1,38,-1
 387 -2 l 2,39,40
 385 -15 385 -15 379 -20.5 c 128,-1,41
 373 -26 373 -26 362 -26 c 0,0,1
358 82 m 1,42,-1
 445 633 l 1,43,-1
 457 619 l 1,44,-1
 427 619 l 2,45,46
 358 619 358 619 303 593.5 c 128,-1,47
 248 568 248 568 208.5 525 c 128,-1,48
 169 482 169 482 148 427.5 c 128,-1,49
 127 373 127 373 127 316 c 0,50,51
 127 246 127 246 157.5 197 c 128,-1,52
 188 148 188 148 243.5 122 c 128,-1,53
 299 96 299 96 373 96 c 2,54,-1
 375 96 l 1,55,-1
 358 82 l 1,42,-1
400 82 m 1,56,-1
 390 96 l 1,57,-1
 420 96 l 2,58,59
 489 96 489 96 544 121.5 c 128,-1,60
 599 147 599 147 638.5 190 c 128,-1,61
 678 233 678 233 699 287.5 c 128,-1,62
 720 342 720 342 720 399 c 0,63,64
 720 469 720 469 690 517.5 c 128,-1,65
 660 566 660 566 605.5 592 c 128,-1,66
 551 618 551 618 478 619 c 2,67,-1
 474 619 l 1,68,-1
 487 633 l 1,69,-1
 400 82 l 1,56,-1
EndSplineSet
EndChar

StartChar: uni0427
Encoding: 1063 1063 564
Width: 657
GlyphClass: 2
Flags: W
AnchorPoint: "Anchor-5" 311 295 basechar 0
AnchorPoint: "Anchor-0" 379 705 basechar 0
LayerCount: 2
Fore
SplineSet
500 -6 m 0,0,1
 490 -6 490 -6 486 0.5 c 128,-1,2
 482 7 482 7 483 19 c 2,3,-1
 530 318 l 1,4,5
 491 297 491 297 438.5 286.5 c 128,-1,6
 386 276 386 276 334 276 c 0,7,8
 247 276 247 276 192.5 308 c 128,-1,9
 138 340 138 340 118 403 c 128,-1,10
 98 466 98 466 112 559 c 2,11,-1
 133 690 l 2,12,13
 135 701 135 701 141 706 c 128,-1,14
 147 711 147 711 157 711 c 256,15,16
 167 711 167 711 171.5 704 c 128,-1,17
 176 697 176 697 174 686 c 2,18,-1
 154 565 l 2,19,20
 133 438 133 438 178 377.5 c 128,-1,21
 223 317 223 317 334 317 c 0,22,23
 386 317 386 317 439 327.5 c 128,-1,24
 492 338 492 338 538 364 c 1,25,-1
 590 690 l 2,26,27
 592 701 592 701 598 706 c 128,-1,28
 604 711 604 711 614 711 c 256,29,30
 624 711 624 711 628.5 704.5 c 128,-1,31
 633 698 633 698 631 686 c 2,32,-1
 524 15 l 2,33,34
 523 5 523 5 517 -0.5 c 128,-1,35
 511 -6 511 -6 500 -6 c 0,0,1
EndSplineSet
EndChar

StartChar: uni0426
Encoding: 1062 1062 565
Width: 773
GlyphClass: 1
Flags: W
LayerCount: 2
Fore
SplineSet
667 -156 m 0,0,1
 658 -156 658 -156 654 -149 c 128,-1,2
 650 -142 650 -142 651 -131 c 2,3,-1
 672 0 l 1,4,-1
 85 0 l 2,5,6
 72 0 72 0 66 7 c 128,-1,7
 60 14 60 14 62 27 c 2,8,-1
 168 689 l 2,9,10
 170 700 170 700 176 705.5 c 128,-1,11
 182 711 182 711 192 711 c 256,12,13
 202 711 202 711 206.5 704.5 c 128,-1,14
 211 698 211 698 209 685 c 2,15,-1
 107 39 l 1,16,-1
 576 39 l 1,17,-1
 679 689 l 2,18,19
 681 700 681 700 687 705.5 c 128,-1,20
 693 711 693 711 703 711 c 256,21,22
 713 711 713 711 717.5 704.5 c 128,-1,23
 722 698 722 698 720 685 c 2,24,-1
 616 26 l 1,25,-1
 607 39 l 1,26,-1
 691 39 l 2,27,28
 704 39 704 39 710 32 c 128,-1,29
 716 25 716 25 714 12 c 2,30,-1
 690 -135 l 2,31,32
 687 -156 687 -156 667 -156 c 0,0,1
EndSplineSet
EndChar

StartChar: uni0428
Encoding: 1064 1064 566
Width: 1038
GlyphClass: 1
Flags: W
LayerCount: 2
Fore
SplineSet
85 0 m 2,0,1
 72 0 72 0 66.5 7 c 128,-1,2
 61 14 61 14 63 27 c 2,3,-1
 168 689 l 2,4,5
 170 700 170 700 176 705.5 c 128,-1,6
 182 711 182 711 192 711 c 256,7,8
 202 711 202 711 206.5 704.5 c 128,-1,9
 211 698 211 698 209 685 c 2,10,-1
 107 39 l 1,11,-1
 467 39 l 1,12,-1
 570 689 l 2,13,14
 572 700 572 700 578 705.5 c 128,-1,15
 584 711 584 711 594 711 c 256,16,17
 604 711 604 711 608.5 704.5 c 128,-1,18
 613 698 613 698 611 685 c 2,19,-1
 509 39 l 1,20,-1
 868 39 l 1,21,-1
 971 689 l 2,22,23
 973 700 973 700 979 705.5 c 128,-1,24
 985 711 985 711 995 711 c 256,25,26
 1005 711 1005 711 1009.5 704.5 c 128,-1,27
 1014 698 1014 698 1012 685 c 2,28,-1
 907 23 l 2,29,30
 905 11 905 11 898 5.5 c 128,-1,31
 891 0 891 0 880 0 c 2,32,-1
 85 0 l 2,0,1
EndSplineSet
EndChar

StartChar: uni0429
Encoding: 1065 1065 567
Width: 1064
GlyphClass: 1
Flags: W
LayerCount: 2
Fore
SplineSet
958 -156 m 0,0,1
 949 -156 949 -156 945 -149 c 128,-1,2
 941 -142 941 -142 942 -131 c 2,3,-1
 963 0 l 1,4,-1
 85 0 l 2,5,6
 72 0 72 0 66.5 7 c 128,-1,7
 61 14 61 14 63 27 c 2,8,-1
 168 689 l 2,9,10
 170 700 170 700 176 705.5 c 128,-1,11
 182 711 182 711 192 711 c 256,12,13
 202 711 202 711 206.5 704.5 c 128,-1,14
 211 698 211 698 209 685 c 2,15,-1
 107 39 l 1,16,-1
 467 39 l 1,17,-1
 570 689 l 2,18,19
 572 700 572 700 578 705.5 c 128,-1,20
 584 711 584 711 594 711 c 256,21,22
 604 711 604 711 608.5 704.5 c 128,-1,23
 613 698 613 698 611 685 c 2,24,-1
 509 39 l 1,25,-1
 869 39 l 1,26,-1
 972 689 l 2,27,28
 974 700 974 700 980 705.5 c 128,-1,29
 986 711 986 711 996 711 c 256,30,31
 1006 711 1006 711 1010.5 704.5 c 128,-1,32
 1015 698 1015 698 1013 685 c 2,33,-1
 909 26 l 1,34,-1
 900 39 l 1,35,-1
 982 39 l 2,36,37
 995 39 995 39 1001 32 c 128,-1,38
 1007 25 1007 25 1005 12 c 2,39,-1
 981 -135 l 2,40,41
 980 -145 980 -145 974 -150.5 c 128,-1,42
 968 -156 968 -156 958 -156 c 0,0,1
EndSplineSet
EndChar

StartChar: uni040F
Encoding: 1039 1039 568
Width: 746
GlyphClass: 1
Flags: W
LayerCount: 2
Fore
SplineSet
310 -156 m 0,0,1
 301 -156 301 -156 297 -149 c 128,-1,2
 293 -142 293 -142 294 -131 c 2,3,-1
 315 0 l 1,4,-1
 84 0 l 2,5,6
 71 0 71 0 65.5 7 c 128,-1,7
 60 14 60 14 62 27 c 2,8,-1
 167 689 l 2,9,10
 169 700 169 700 175 705.5 c 128,-1,11
 181 711 181 711 191 711 c 256,12,13
 201 711 201 711 206 704.5 c 128,-1,14
 211 698 211 698 209 685 c 2,15,-1
 107 39 l 1,16,-1
 576 39 l 1,17,-1
 679 689 l 2,18,19
 681 700 681 700 687 705.5 c 128,-1,20
 693 711 693 711 703 711 c 256,21,22
 713 711 713 711 717.5 704.5 c 128,-1,23
 722 698 722 698 720 685 c 2,24,-1
 615 23 l 2,25,26
 613 11 613 11 606 5.5 c 128,-1,27
 599 0 599 0 588 0 c 2,28,-1
 355 0 l 1,29,-1
 333 -135 l 2,30,31
 332 -145 332 -145 326 -150.5 c 128,-1,32
 320 -156 320 -156 310 -156 c 0,0,1
EndSplineSet
EndChar

StartChar: uni042C
Encoding: 1068 1068 569
Width: 649
GlyphClass: 1
Flags: W
LayerCount: 2
Fore
SplineSet
85 0 m 2,0,1
 72 0 72 0 66 7 c 128,-1,2
 60 14 60 14 62 27 c 2,3,-1
 167 689 l 2,4,5
 169 700 169 700 175 705.5 c 128,-1,6
 181 711 181 711 191 711 c 256,7,8
 201 711 201 711 205.5 703.5 c 128,-1,9
 210 696 210 696 208 684 c 2,10,-1
 160 379 l 1,11,-1
 379 379 l 2,12,13
 448 379 448 379 494 358 c 128,-1,14
 540 337 540 337 563.5 299 c 128,-1,15
 587 261 587 261 587 209 c 0,16,17
 587 105 587 105 525 52.5 c 128,-1,18
 463 0 463 0 345 0 c 2,19,-1
 85 0 l 2,0,1
106 39 m 1,20,-1
 349 39 l 2,21,22
 446 39 446 39 494.5 81.5 c 128,-1,23
 543 124 543 124 543 208 c 0,24,25
 543 273 543 273 500.5 306.5 c 128,-1,26
 458 340 458 340 378 340 c 2,27,-1
 154 340 l 1,28,-1
 106 39 l 1,20,-1
EndSplineSet
EndChar

StartChar: uni042B
Encoding: 1067 1067 570
Width: 813
GlyphClass: 2
Flags: W
AnchorPoint: "Anchor-0" 480 705 basechar 0
LayerCount: 2
Fore
SplineSet
85 0 m 2,0,1
 72 0 72 0 66 7 c 128,-1,2
 60 14 60 14 62 27 c 2,3,-1
 167 689 l 2,4,5
 169 700 169 700 175 705.5 c 128,-1,6
 181 711 181 711 191 711 c 256,7,8
 201 711 201 711 205.5 703 c 128,-1,9
 210 695 210 695 208 683 c 2,10,-1
 160 379 l 1,11,-1
 351 379 l 2,12,13
 420 379 420 379 466 358 c 128,-1,14
 512 337 512 337 535.5 299 c 128,-1,15
 559 261 559 261 559 209 c 0,16,17
 559 105 559 105 497 52.5 c 128,-1,18
 435 0 435 0 317 0 c 2,19,-1
 85 0 l 2,0,1
106 39 m 1,20,-1
 321 39 l 2,21,22
 418 39 418 39 466.5 81.5 c 128,-1,23
 515 124 515 124 515 208 c 0,24,25
 515 273 515 273 472.5 306.5 c 128,-1,26
 430 340 430 340 350 340 c 2,27,-1
 154 340 l 1,28,-1
 106 39 l 1,20,-1
656 -6 m 0,29,30
 646 -6 646 -6 641.5 0.5 c 128,-1,31
 637 7 637 7 639 20 c 2,32,-1
 745 689 l 2,33,34
 747 700 747 700 753 705.5 c 128,-1,35
 759 711 759 711 769 711 c 256,36,37
 779 711 779 711 783.5 704.5 c 128,-1,38
 788 698 788 698 786 685 c 2,39,-1
 680 16 l 2,40,41
 679 6 679 6 673 0 c 128,-1,42
 667 -6 667 -6 656 -6 c 0,29,30
EndSplineSet
EndChar

StartChar: uni042A
Encoding: 1066 1066 571
Width: 776
GlyphClass: 1
Flags: W
LayerCount: 2
Fore
SplineSet
212 0 m 2,0,1
 199 0 199 0 193 7 c 128,-1,2
 187 14 187 14 189 27 c 2,3,-1
 291 666 l 1,4,-1
 94 666 l 2,5,6
 83 666 83 666 77.5 671 c 128,-1,7
 72 676 72 676 73 686 c 0,8,9
 75 695 75 695 80.5 700 c 128,-1,10
 86 705 86 705 96 705 c 2,11,-1
 312 705 l 2,12,13
 325 705 325 705 330.5 697 c 128,-1,14
 336 689 336 689 334 676 c 2,15,-1
 287 379 l 1,16,-1
 505 379 l 2,17,18
 574 379 574 379 620 358 c 128,-1,19
 666 337 666 337 689.5 299 c 128,-1,20
 713 261 713 261 713 209 c 0,21,22
 713 105 713 105 651 52.5 c 128,-1,23
 589 0 589 0 471 0 c 2,24,-1
 212 0 l 2,0,1
233 39 m 1,25,-1
 475 39 l 2,26,27
 572 39 572 39 620.5 81.5 c 128,-1,28
 669 124 669 124 669 208 c 0,29,30
 669 273 669 273 626.5 306.5 c 128,-1,31
 584 340 584 340 504 340 c 2,32,-1
 281 340 l 1,33,-1
 233 39 l 1,25,-1
EndSplineSet
EndChar

StartChar: uni0409
Encoding: 1033 1033 572
Width: 1126
GlyphClass: 1
Flags: W
LayerCount: 2
Fore
SplineSet
562 0 m 2,0,1
 549 0 549 0 543 7 c 128,-1,2
 537 14 537 14 539 27 c 2,3,-1
 640 666 l 1,4,-1
 303 666 l 1,5,-1
 271 465 l 2,6,7
 253 352 253 352 229 273 c 128,-1,8
 205 194 205 194 174.5 141 c 128,-1,9
 144 88 144 88 105 53.5 c 128,-1,10
 66 19 66 19 18 -5 c 0,11,12
 11 -8 11 -8 5 -8 c 128,-1,13
 -1 -8 -1 -8 -5 -4.5 c 128,-1,14
 -9 -1 -9 -1 -11 5 c 0,15,16
 -14 14 -14 14 -10.5 21 c 128,-1,17
 -7 28 -7 28 3 33 c 0,18,19
 40 51 40 51 73.5 78.5 c 128,-1,20
 107 106 107 106 136.5 153.5 c 128,-1,21
 166 201 166 201 190.5 279 c 128,-1,22
 215 357 215 357 233 475 c 2,23,-1
 265 682 l 2,24,25
 267 694 267 694 274 699.5 c 128,-1,26
 281 705 281 705 292 705 c 2,27,-1
 661 705 l 2,28,29
 674 705 674 705 680 698 c 128,-1,30
 686 691 686 691 684 678 c 2,31,-1
 636 379 l 1,32,-1
 856 379 l 2,33,34
 925 379 925 379 971 358 c 128,-1,35
 1017 337 1017 337 1040.5 299 c 128,-1,36
 1064 261 1064 261 1064 209 c 0,37,38
 1064 105 1064 105 1002 52.5 c 128,-1,39
 940 0 940 0 822 0 c 2,40,-1
 562 0 l 2,0,1
583 39 m 1,41,-1
 826 39 l 2,42,43
 923 39 923 39 971.5 81.5 c 128,-1,44
 1020 124 1020 124 1020 208 c 0,45,46
 1020 273 1020 273 977.5 306.5 c 128,-1,47
 935 340 935 340 855 340 c 2,48,-1
 630 340 l 1,49,-1
 583 39 l 1,41,-1
EndSplineSet
EndChar

StartChar: uni040A
Encoding: 1034 1034 573
Width: 1165
GlyphClass: 1
Flags: W
LayerCount: 2
Fore
SplineSet
78 -6 m 0,0,1
 68 -6 68 -6 63.5 0.5 c 128,-1,2
 59 7 59 7 61 20 c 2,3,-1
 168 689 l 2,4,5
 170 700 170 700 176 705.5 c 128,-1,6
 182 711 182 711 192 711 c 256,7,8
 202 711 202 711 206.5 704.5 c 128,-1,9
 211 698 211 698 209 685 c 2,10,-1
 160 377 l 1,11,-1
 634 377 l 1,12,-1
 684 689 l 2,13,14
 686 700 686 700 692 705.5 c 128,-1,15
 698 711 698 711 708 711 c 256,16,17
 718 711 718 711 722.5 704.5 c 128,-1,18
 727 698 727 698 725 685 c 2,19,-1
 676 379 l 1,20,-1
 895 379 l 2,21,22
 964 379 964 379 1010 358 c 128,-1,23
 1056 337 1056 337 1079.5 299 c 128,-1,24
 1103 261 1103 261 1103 209 c 0,25,26
 1103 105 1103 105 1041 52.5 c 128,-1,27
 979 0 979 0 861 0 c 2,28,-1
 601 0 l 2,29,30
 588 0 588 0 582 7 c 128,-1,31
 576 14 576 14 578 27 c 2,32,-1
 628 338 l 1,33,-1
 154 338 l 1,34,-1
 103 16 l 2,35,36
 102 6 102 6 95.5 0 c 128,-1,37
 89 -6 89 -6 78 -6 c 0,0,1
622 39 m 1,38,-1
 865 39 l 2,39,40
 962 39 962 39 1010.5 81.5 c 128,-1,41
 1059 124 1059 124 1059 208 c 0,42,43
 1059 273 1059 273 1016.5 306.5 c 128,-1,44
 974 340 974 340 894 340 c 2,45,-1
 670 340 l 1,46,-1
 622 39 l 1,38,-1
EndSplineSet
EndChar

StartChar: uni0404
Encoding: 1028 1028 575
Width: 667
GlyphClass: 2
Flags: W
AnchorPoint: "Anchor-2" 341 0 basechar 0
AnchorPoint: "Anchor-0" 455 705 basechar 0
LayerCount: 2
Fore
SplineSet
373 -8 m 0,0,1
 286 -8 286 -8 220.5 25.5 c 128,-1,2
 155 59 155 59 119 128 c 128,-1,3
 83 197 83 197 83 305 c 0,4,5
 83 392 83 392 107.5 466.5 c 128,-1,6
 132 541 132 541 178 596 c 128,-1,7
 224 651 224 651 288.5 682 c 128,-1,8
 353 713 353 713 433 713 c 0,9,10
 501 713 501 713 557 691.5 c 128,-1,11
 613 670 613 670 655 626 c 0,12,13
 661 620 661 620 662 613 c 128,-1,14
 663 606 663 606 660 600 c 128,-1,15
 657 594 657 594 651.5 590.5 c 128,-1,16
 646 587 646 587 639 588.5 c 128,-1,17
 632 590 632 590 624 597 c 0,18,19
 585 637 585 637 537 654.5 c 128,-1,20
 489 672 489 672 430 672 c 0,21,22
 347 672 347 672 283 633 c 128,-1,23
 219 594 219 594 180 524.5 c 128,-1,24
 141 455 141 455 131 363 c 1,25,-1
 121 377 l 1,26,-1
 497 377 l 2,27,28
 509 377 509 377 515.5 372.5 c 128,-1,29
 522 368 522 368 520 358 c 0,30,31
 519 348 519 348 512.5 343 c 128,-1,32
 506 338 506 338 495 338 c 2,33,-1
 119 338 l 1,34,-1
 130 352 l 1,35,36
 124 253 124 253 145.5 181.5 c 128,-1,37
 167 110 167 110 223.5 71.5 c 128,-1,38
 280 33 280 33 376 33 c 0,39,40
 426 33 426 33 473 49.5 c 128,-1,41
 520 66 520 66 567 110 c 0,42,43
 575 117 575 117 582 117.5 c 128,-1,44
 589 118 589 118 594 114.5 c 128,-1,45
 599 111 599 111 601.5 105 c 128,-1,46
 604 99 604 99 602.5 91.5 c 128,-1,47
 601 84 601 84 594 78 c 0,48,49
 549 35 549 35 493.5 13.5 c 128,-1,50
 438 -8 438 -8 373 -8 c 0,0,1
EndSplineSet
EndChar

StartChar: uni042D
Encoding: 1069 1069 576
Width: 667
GlyphClass: 2
Flags: W
AnchorPoint: "Anchor-2" 253 0 basechar 0
AnchorPoint: "Anchor-0" 365 705 basechar 0
LayerCount: 2
Fore
SplineSet
268 -8 m 0,0,1
 201 -8 201 -8 145.5 13.5 c 128,-1,2
 90 35 90 35 47 79 c 0,3,4
 41 85 41 85 40 92 c 128,-1,5
 39 99 39 99 42 105 c 128,-1,6
 45 111 45 111 50.5 114.5 c 128,-1,7
 56 118 56 118 63.5 117 c 128,-1,8
 71 116 71 116 78 108 c 0,9,10
 117 69 117 69 164.5 51 c 128,-1,11
 212 33 212 33 271 33 c 0,12,13
 356 33 356 33 420 72.5 c 128,-1,14
 484 112 484 112 523.5 182.5 c 128,-1,15
 563 253 563 253 572 345 c 1,16,-1
 578 338 l 1,17,-1
 206 338 l 2,18,19
 194 338 194 338 188 342.5 c 128,-1,20
 182 347 182 347 183 357 c 0,21,22
 185 368 185 368 191.5 372.5 c 128,-1,23
 198 377 198 377 208 377 c 2,24,-1
 581 377 l 1,25,-1
 573 368 l 1,26,27
 578 459 578 459 557 527.5 c 128,-1,28
 536 596 536 596 482.5 634 c 128,-1,29
 429 672 429 672 336 672 c 0,30,31
 282 672 282 672 233 655.5 c 128,-1,32
 184 639 184 639 135 595 c 0,33,34
 128 588 128 588 120.5 587.5 c 128,-1,35
 113 587 113 587 108 591 c 128,-1,36
 103 595 103 595 100.5 601 c 128,-1,37
 98 607 98 607 99.5 614 c 128,-1,38
 101 621 101 621 108 627 c 0,39,40
 156 671 156 671 212.5 692 c 128,-1,41
 269 713 269 713 339 713 c 0,42,43
 424 713 424 713 486.5 680 c 128,-1,44
 549 647 549 647 584 577.5 c 128,-1,45
 619 508 619 508 619 400 c 0,46,47
 619 313 619 313 594.5 238.5 c 128,-1,48
 570 164 570 164 524 109 c 128,-1,49
 478 54 478 54 413.5 23 c 128,-1,50
 349 -8 349 -8 268 -8 c 0,0,1
EndSplineSet
EndChar

StartChar: uni040B
Encoding: 1035 1035 580
Width: 833
GlyphClass: 1
Flags: W
LayerCount: 2
Fore
SplineSet
253 -6 m 0,0,1
 243 -6 243 -6 238.5 0.5 c 128,-1,2
 234 7 234 7 236 19 c 2,3,-1
 339 666 l 1,4,-1
 89 666 l 2,5,6
 79 666 79 666 73 670.5 c 128,-1,7
 67 675 67 675 67 683 c 0,8,9
 67 694 67 694 74 699.5 c 128,-1,10
 81 705 81 705 91 705 c 2,11,-1
 637 705 l 2,12,13
 648 705 648 705 653.5 701 c 128,-1,14
 659 697 659 697 659 689 c 0,15,16
 659 678 659 678 652.5 672 c 128,-1,17
 646 666 646 666 635 666 c 2,18,-1
 381 666 l 1,19,-1
 337 387 l 1,20,21
 376 408 376 408 428.5 418.5 c 128,-1,22
 481 429 481 429 533 429 c 0,23,24
 620 429 620 429 674.5 397 c 128,-1,25
 729 365 729 365 749.5 302.5 c 128,-1,26
 770 240 770 240 755 146 c 2,27,-1
 734 15 l 2,28,29
 733 5 733 5 727 -0.5 c 128,-1,30
 721 -6 721 -6 710 -6 c 0,31,32
 700 -6 700 -6 696 1 c 128,-1,33
 692 8 692 8 693 19 c 2,34,-1
 713 140 l 2,35,36
 734 268 734 268 689 328 c 128,-1,37
 644 388 644 388 533 388 c 0,38,39
 481 388 481 388 428 377.5 c 128,-1,40
 375 367 375 367 329 341 c 1,41,-1
 277 15 l 2,42,43
 276 5 276 5 270 -0.5 c 128,-1,44
 264 -6 264 -6 253 -6 c 0,0,1
EndSplineSet
EndChar

StartChar: uni042E
Encoding: 1070 1070 581
Width: 984
GlyphClass: 1
Flags: W
AnchorPoint: "Anchor-0" 533 676 basechar 0
LayerCount: 2
Fore
SplineSet
590 -8 m 0,0,1
 491 -8 491 -8 427.5 36 c 128,-1,2
 364 80 364 80 336 158 c 128,-1,3
 308 236 308 236 317 338 c 1,4,-1
 154 338 l 1,5,-1
 103 16 l 2,6,7
 102 6 102 6 96 0 c 128,-1,8
 90 -6 90 -6 79 -6 c 0,9,10
 69 -6 69 -6 64.5 0.5 c 128,-1,11
 60 7 60 7 62 20 c 2,12,-1
 168 689 l 2,13,14
 170 700 170 700 175.5 705.5 c 128,-1,15
 181 711 181 711 191 711 c 256,16,17
 201 711 201 711 206 704.5 c 128,-1,18
 211 698 211 698 209 685 c 2,19,-1
 160 377 l 1,20,-1
 321 377 l 1,21,22
 334 474 334 474 376.5 550 c 128,-1,23
 419 626 419 626 491 669.5 c 128,-1,24
 563 713 563 713 662 713 c 0,25,26
 746 713 746 713 808 679 c 128,-1,27
 870 645 870 645 903.5 579 c 128,-1,28
 937 513 937 513 937 416 c 0,29,30
 937 327 937 327 915 250 c 128,-1,31
 893 173 893 173 849 115 c 128,-1,32
 805 57 805 57 740.5 24.5 c 128,-1,33
 676 -8 676 -8 590 -8 c 0,0,1
592 33 m 0,34,35
 690 33 690 33 756.5 83.5 c 128,-1,36
 823 134 823 134 857.5 221 c 128,-1,37
 892 308 892 308 892 416 c 0,38,39
 892 546 892 546 830.5 609 c 128,-1,40
 769 672 769 672 659 672 c 0,41,42
 562 672 562 672 495.5 621.5 c 128,-1,43
 429 571 429 571 394.5 484.5 c 128,-1,44
 360 398 360 398 360 289 c 0,45,46
 360 159 360 159 421.5 96 c 128,-1,47
 483 33 483 33 592 33 c 0,34,35
EndSplineSet
EndChar

StartChar: uni042F
Encoding: 1071 1071 582
Width: 654
GlyphClass: 1
Flags: W
AnchorPoint: "Anchor-0" 404 696 basechar 0
LayerCount: 2
Fore
SplineSet
497 -6 m 0,0,1
 487 -6 487 -6 482.5 0.5 c 128,-1,2
 478 7 478 7 480 19 c 2,3,-1
 527 312 l 1,4,-1
 380 312 l 2,5,6
 341 312 341 312 312.5 305 c 128,-1,7
 284 298 284 298 261 279.5 c 128,-1,8
 238 261 238 261 214 226 c 2,9,-1
 61 4 l 2,10,11
 56 -3 56 -3 50 -5 c 128,-1,12
 44 -7 44 -7 38 -5 c 128,-1,13
 32 -3 32 -3 28 1.5 c 128,-1,14
 24 6 24 6 23.5 12.5 c 128,-1,15
 23 19 23 19 28 26 c 2,16,-1
 178 242 l 2,17,18
 210 288 210 288 236 307.5 c 128,-1,19
 262 327 262 327 300 327 c 2,20,-1
 319 327 l 1,21,-1
 334 316 l 1,22,23
 223 316 223 316 168.5 366 c 128,-1,24
 114 416 114 416 114 501 c 0,25,26
 114 569 114 569 146.5 614 c 128,-1,27
 179 659 179 659 235 682 c 128,-1,28
 291 705 291 705 362 705 c 2,29,-1
 604 705 l 2,30,31
 617 705 617 705 623 698 c 128,-1,32
 629 691 629 691 627 678 c 2,33,-1
 521 13 l 2,34,35
 520 3 520 3 514 -1.5 c 128,-1,36
 508 -6 508 -6 497 -6 c 0,0,1
334 351 m 2,37,-1
 533 351 l 1,38,-1
 583 666 l 1,39,-1
 352 666 l 2,40,41
 261 666 261 666 209.5 622 c 128,-1,42
 158 578 158 578 158 498 c 0,43,44
 158 425 158 425 200.5 388 c 128,-1,45
 243 351 243 351 334 351 c 2,37,-1
EndSplineSet
EndChar

StartChar: uni0402
Encoding: 1026 1026 583
Width: 817
GlyphClass: 1
Flags: W
LayerCount: 2
Fore
SplineSet
505 -188 m 0,0,1
 478 -188 478 -188 453 -183.5 c 128,-1,2
 428 -179 428 -179 409 -172 c 0,3,4
 402 -170 402 -170 398.5 -164.5 c 128,-1,5
 395 -159 395 -159 395.5 -153 c 128,-1,6
 396 -147 396 -147 399 -142 c 128,-1,7
 402 -137 402 -137 408.5 -135 c 128,-1,8
 415 -133 415 -133 423 -136 c 0,9,10
 440 -142 440 -142 460 -145.5 c 128,-1,11
 480 -149 480 -149 504 -149 c 0,12,13
 575 -149 575 -149 619.5 -101.5 c 128,-1,14
 664 -54 664 -54 680 42 c 2,15,-1
 696 140 l 2,16,17
 717 268 717 268 672.5 328 c 128,-1,18
 628 388 628 388 521 388 c 0,19,20
 469 388 469 388 421.5 377.5 c 128,-1,21
 374 367 374 367 329 341 c 1,22,-1
 277 15 l 2,23,24
 276 5 276 5 270 -0.5 c 128,-1,25
 264 -6 264 -6 253 -6 c 0,26,27
 243 -6 243 -6 238.5 0.5 c 128,-1,28
 234 7 234 7 236 19 c 2,29,-1
 339 666 l 1,30,-1
 89 666 l 2,31,32
 79 666 79 666 73 670.5 c 128,-1,33
 67 675 67 675 67 683 c 0,34,35
 67 694 67 694 74 699.5 c 128,-1,36
 81 705 81 705 91 705 c 2,37,-1
 637 705 l 2,38,39
 648 705 648 705 653.5 701 c 128,-1,40
 659 697 659 697 659 689 c 0,41,42
 659 678 659 678 652.5 672 c 128,-1,43
 646 666 646 666 635 666 c 2,44,-1
 381 666 l 1,45,-1
 337 387 l 1,46,47
 375 408 375 408 422 418.5 c 128,-1,48
 469 429 469 429 521 429 c 0,49,50
 584 429 584 429 630 411 c 128,-1,51
 676 393 676 393 703.5 357.5 c 128,-1,52
 731 322 731 322 740 269 c 128,-1,53
 749 216 749 216 738 146 c 2,54,-1
 722 43 l 2,55,56
 710 -33 710 -33 682 -84.5 c 128,-1,57
 654 -136 654 -136 610 -162 c 128,-1,58
 566 -188 566 -188 505 -188 c 0,0,1
EndSplineSet
EndChar

StartChar: uni0462
Encoding: 1122 1122 584
Width: 707
GlyphClass: 1
Flags: W
LayerCount: 2
Fore
SplineSet
143 0 m 2,0,1
 130 0 130 0 124 7 c 128,-1,2
 118 14 118 14 120 27 c 2,3,-1
 203 548 l 1,4,-1
 47 548 l 2,5,6
 36 548 36 548 30.5 553 c 128,-1,7
 25 558 25 558 26 568 c 0,8,9
 29 587 29 587 49 587 c 2,10,-1
 218 587 l 1,11,-1
 206 567 l 1,12,-1
 225 689 l 2,13,14
 227 700 227 700 233 705.5 c 128,-1,15
 239 711 239 711 249 711 c 256,16,17
 259 711 259 711 263.5 704 c 128,-1,18
 268 697 268 697 266 685 c 2,19,-1
 248 567 l 1,20,-1
 242 587 l 1,21,-1
 473 587 l 2,22,23
 484 587 484 587 490 582.5 c 128,-1,24
 496 578 496 578 494 568 c 0,25,26
 491 548 491 548 471 548 c 2,27,-1
 245 548 l 1,28,-1
 218 379 l 1,29,-1
 437 379 l 2,30,31
 540 379 540 379 592.5 333 c 128,-1,32
 645 287 645 287 645 209 c 0,33,34
 645 105 645 105 583 52.5 c 128,-1,35
 521 0 521 0 403 0 c 2,36,-1
 143 0 l 2,0,1
164 39 m 1,37,-1
 407 39 l 2,38,39
 504 39 504 39 552.5 81.5 c 128,-1,40
 601 124 601 124 601 208 c 0,41,42
 601 273 601 273 558.5 306.5 c 128,-1,43
 516 340 516 340 436 340 c 2,44,-1
 212 340 l 1,45,-1
 164 39 l 1,37,-1
EndSplineSet
EndChar

StartChar: uni046A
Encoding: 1130 1130 585
Width: 908
GlyphClass: 1
Flags: W
LayerCount: 2
Fore
SplineSet
415 -6 m 0,0,1
 404 -6 404 -6 400 0.5 c 128,-1,2
 396 7 396 7 397 18 c 2,3,-1
 448 339 l 1,4,-1
 356 339 l 2,5,6
 295 339 295 339 249.5 308.5 c 128,-1,7
 204 278 204 278 160 210 c 2,8,-1
 30 7 l 2,9,10
 25 0 25 0 18.5 -3.5 c 128,-1,11
 12 -7 12 -7 5.5 -6 c 128,-1,12
 -1 -5 -1 -5 -5.5 -0.5 c 128,-1,13
 -10 4 -10 4 -10 11 c 128,-1,14
 -10 18 -10 18 -4 27 c 2,15,-1
 132 239 l 2,16,17
 163 287 163 287 195.5 317.5 c 128,-1,18
 228 348 228 348 266.5 363 c 128,-1,19
 305 378 305 378 351 378 c 2,20,-1
 444 378 l 1,21,-1
 434 365 l 1,22,-1
 222 666 l 2,23,24
 215 677 215 677 215 685.5 c 128,-1,25
 215 694 215 694 222.5 699.5 c 128,-1,26
 230 705 230 705 243 705 c 2,27,-1
 803 705 l 2,28,29
 817 705 817 705 824 699.5 c 128,-1,30
 831 694 831 694 830 685 c 128,-1,31
 829 676 829 676 819 666 c 2,32,-1
 512 365 l 1,33,-1
 506 378 l 1,34,-1
 596 378 l 2,35,36
 643 378 643 378 677.5 360.5 c 128,-1,37
 712 343 712 343 736.5 311.5 c 128,-1,38
 761 280 761 280 774 239 c 2,39,-1
 846 21 l 2,40,41
 849 13 849 13 846.5 7 c 128,-1,42
 844 1 844 1 838.5 -2.5 c 128,-1,43
 833 -6 833 -6 826.5 -5.5 c 128,-1,44
 820 -5 820 -5 814.5 -1 c 128,-1,45
 809 3 809 3 806 12 c 2,46,-1
 742 210 l 2,47,48
 720 280 720 280 681.5 309.5 c 128,-1,49
 643 339 643 339 584 339 c 2,50,-1
 490 339 l 1,51,-1
 438 14 l 2,52,53
 437 4 437 4 431 -1 c 128,-1,54
 425 -6 425 -6 415 -6 c 0,0,1
474 382 m 1,55,-1
 788 694 l 1,56,-1
 784 666 l 1,57,-1
 251 666 l 1,58,-1
 255 694 l 1,59,-1
 472 382 l 1,60,-1
 474 382 l 1,55,-1
EndSplineSet
EndChar

StartChar: uni0474
Encoding: 1140 1140 587
Width: 719
GlyphClass: 1
Flags: W
LayerCount: 2
Fore
SplineSet
293 -6 m 256,0,1
 282 -6 282 -6 275.5 0 c 128,-1,2
 269 6 269 6 266 18 c 2,3,-1
 88 679 l 2,4,5
 86 687 86 687 88 693 c 128,-1,6
 90 699 90 699 95 702 c 128,-1,7
 100 705 100 705 107 705 c 0,8,9
 116 705 116 705 121 700 c 128,-1,10
 126 695 126 695 129 685 c 2,11,-1
 308 24 l 1,12,-1
 284 24 l 1,13,-1
 575 533 l 2,14,15
 612 597 612 597 644 636 c 128,-1,16
 676 675 676 675 714 693.5 c 128,-1,17
 752 712 752 712 806 713 c 0,18,19
 815 713 815 713 820.5 709.5 c 128,-1,20
 826 706 826 706 827.5 700.5 c 128,-1,21
 829 695 829 695 827.5 689.5 c 128,-1,22
 826 684 826 684 822 680 c 128,-1,23
 818 676 818 676 811 676 c 0,24,25
 772 675 772 675 740.5 661 c 128,-1,26
 709 647 709 647 681 616 c 128,-1,27
 653 585 653 585 622 532 c 2,28,-1
 324 14 l 2,29,30
 318 4 318 4 311 -1 c 128,-1,31
 304 -6 304 -6 293 -6 c 256,0,1
EndSplineSet
EndChar

StartChar: uni0496
Encoding: 1174 1174 588
Width: 966
GlyphClass: 1
Flags: W
LayerCount: 2
Fore
SplineSet
885 -155 m 0,0,1
 877 -155 877 -155 872 -149.5 c 128,-1,2
 867 -144 867 -144 868 -132 c 2,3,-1
 891 19 l 1,4,-1
 897 0 l 1,5,-1
 848 0 l 2,6,7
 841 0 841 0 834.5 3.5 c 128,-1,8
 828 7 828 7 825 15 c 2,9,-1
 762 210 l 2,10,11
 740 280 740 280 701.5 309.5 c 128,-1,12
 663 339 663 339 604 339 c 2,13,-1
 500 339 l 1,14,-1
 448 15 l 2,15,16
 447 5 447 5 441 -0.5 c 128,-1,17
 435 -6 435 -6 424 -6 c 0,18,19
 414 -6 414 -6 410 0.5 c 128,-1,20
 406 7 406 7 407 19 c 2,21,-1
 458 339 l 1,22,-1
 356 339 l 2,23,24
 295 339 295 339 249.5 309 c 128,-1,25
 204 279 204 279 160 210 c 2,26,-1
 30 7 l 2,27,28
 25 0 25 0 18.5 -3.5 c 128,-1,29
 12 -7 12 -7 5.5 -6 c 128,-1,30
 -1 -5 -1 -5 -5.5 -0.5 c 128,-1,31
 -10 4 -10 4 -10 11 c 128,-1,32
 -10 18 -10 18 -4 27 c 2,33,-1
 132 239 l 2,34,35
 173 303 173 303 220 337.5 c 128,-1,36
 267 372 267 372 324 376 c 1,37,-1
 311 359 l 1,38,-1
 142 683 l 2,39,40
 138 690 138 690 139.5 696.5 c 128,-1,41
 141 703 141 703 145.5 706.5 c 128,-1,42
 150 710 150 710 156 710.5 c 128,-1,43
 162 711 162 711 168 708.5 c 128,-1,44
 174 706 174 706 178 698 c 2,45,-1
 353 363 l 1,46,-1
 334 378 l 1,47,-1
 464 378 l 1,48,-1
 514 690 l 2,49,50
 516 701 516 701 522 706 c 128,-1,51
 528 711 528 711 538 711 c 256,52,53
 548 711 548 711 552.5 704.5 c 128,-1,54
 557 698 557 698 555 686 c 2,55,-1
 506 378 l 1,56,-1
 623 378 l 1,57,-1
 606 363 l 1,58,-1
 889 700 l 2,59,60
 895 707 895 707 902 709 c 128,-1,61
 909 711 909 711 915 709 c 128,-1,62
 921 707 921 707 925 702.5 c 128,-1,63
 929 698 929 698 928 691 c 128,-1,64
 927 684 927 684 920 675 c 2,65,-1
 654 359 l 1,66,-1
 633 376 l 1,67,68
 670 373 670 373 701.5 356.5 c 128,-1,69
 733 340 733 340 756.5 310.5 c 128,-1,70
 780 281 780 281 794 239 c 2,71,-1
 866 21 l 1,72,-1
 848 39 l 1,73,-1
 907 39 l 2,74,75
 920 39 920 39 926.5 33 c 128,-1,76
 933 27 933 27 931 13 c 2,77,-1
 907 -135 l 2,78,79
 906 -145 906 -145 900.5 -150 c 128,-1,80
 895 -155 895 -155 885 -155 c 0,0,1
EndSplineSet
EndChar

StartChar: uni0498
Encoding: 1176 1176 589
Width: 645
GlyphClass: 2
Flags: W
AnchorPoint: "Anchor-2" 289 0 basechar 0
AnchorPoint: "Anchor-0" 393 705 basechar 0
LayerCount: 2
Fore
SplineSet
265 -156 m 0,0,1
 256 -156 256 -156 252 -149.5 c 128,-1,2
 248 -143 248 -143 249 -132 c 2,3,-1
 271 13 l 1,4,-1
 311 13 l 1,5,-1
 288 -136 l 2,6,7
 287 -146 287 -146 281 -151 c 128,-1,8
 275 -156 275 -156 265 -156 c 0,0,1
306 -8 m 0,9,10
 222 -8 222 -8 158 11.5 c 128,-1,11
 94 31 94 31 41 74 c 0,12,13
 34 80 34 80 32 87 c 128,-1,14
 30 94 30 94 32 100.5 c 128,-1,15
 34 107 34 107 39 111 c 128,-1,16
 44 115 44 115 51.5 115 c 128,-1,17
 59 115 59 115 67 108 c 0,18,19
 103 80 103 80 140.5 63.5 c 128,-1,20
 178 47 178 47 220 40 c 128,-1,21
 262 33 262 33 311 33 c 0,22,23
 368 33 368 33 416 49 c 128,-1,24
 464 65 464 65 493 102.5 c 128,-1,25
 522 140 522 140 522 204 c 0,26,27
 522 270 522 270 480 303.5 c 128,-1,28
 438 337 438 337 358 337 c 2,29,-1
 206 337 l 2,30,31
 195 337 195 337 189 342 c 128,-1,32
 183 347 183 347 184 357 c 0,33,34
 186 366 186 366 192 371 c 128,-1,35
 198 376 198 376 208 376 c 2,36,-1
 365 376 l 2,37,38
 454 376 454 376 506.5 419 c 128,-1,39
 559 462 559 462 559 543 c 0,40,41
 559 589 559 589 535 617 c 128,-1,42
 511 645 511 645 471 658.5 c 128,-1,43
 431 672 431 672 382 672 c 0,44,45
 320 672 320 672 261 654 c 128,-1,46
 202 636 202 636 152 598 c 0,47,48
 143 591 143 591 135.5 590.5 c 128,-1,49
 128 590 128 590 123 594 c 128,-1,50
 118 598 118 598 116.5 604.5 c 128,-1,51
 115 611 115 611 117 618 c 128,-1,52
 119 625 119 625 126 630 c 0,53,54
 181 671 181 671 248 692 c 128,-1,55
 315 713 315 713 382 713 c 0,56,57
 442 713 442 713 492 695 c 128,-1,58
 542 677 542 677 572.5 640 c 128,-1,59
 603 603 603 603 603 545 c 0,60,61
 603 462 603 462 553.5 411 c 128,-1,62
 504 360 504 360 421 349 c 1,63,-1
 421 363 l 1,64,65
 488 353 488 353 527 310.5 c 128,-1,66
 566 268 566 268 566 203 c 0,67,68
 566 127 566 127 530.5 80.5 c 128,-1,69
 495 34 495 34 436 13 c 128,-1,70
 377 -8 377 -8 306 -8 c 0,9,10
EndSplineSet
Substitution2: "'locl' Localized Forms in Cyrillic lookup 17 subtable" uni0498.loclCHU
Substitution2: "'locl' Localized Forms in Cyrillic lookup 16 subtable" uni0498.loclBSH
AlternateSubs2: "'aalt' Access All Alternates lookup 1 subtable" uni0498.loclBSH uni0498.loclCHU
EndChar

StartChar: uni049A
Encoding: 1178 1178 590
Width: 649
GlyphClass: 1
Flags: W
LayerCount: 2
Fore
SplineSet
567 -155 m 0,0,1
 559 -155 559 -155 554 -149.5 c 128,-1,2
 549 -144 549 -144 550 -132 c 2,3,-1
 573 19 l 1,4,-1
 589 0 l 1,5,-1
 531 0 l 2,6,7
 524 0 524 0 517 4.5 c 128,-1,8
 510 9 510 9 507 18 c 2,9,-1
 445 210 l 2,10,11
 423 280 423 280 384.5 309.5 c 128,-1,12
 346 339 346 339 287 339 c 2,13,-1
 154 339 l 1,14,-1
 103 19 l 2,15,16
 101 7 101 7 95 0.5 c 128,-1,17
 89 -6 89 -6 78 -6 c 0,18,19
 68 -6 68 -6 63.5 0.5 c 128,-1,20
 59 7 59 7 61 19 c 2,21,-1
 168 692 l 2,22,23
 170 703 170 703 176 707 c 128,-1,24
 182 711 182 711 192 711 c 256,25,26
 202 711 202 711 206.5 704.5 c 128,-1,27
 211 698 211 698 209 686 c 2,28,-1
 160 378 l 1,29,-1
 306 378 l 1,30,-1
 289 363 l 1,31,-1
 572 700 l 2,32,33
 578 707 578 707 585 709 c 128,-1,34
 592 711 592 711 598 709 c 128,-1,35
 604 707 604 707 608 702.5 c 128,-1,36
 612 698 612 698 611 691 c 128,-1,37
 610 684 610 684 603 675 c 2,38,-1
 337 359 l 1,39,-1
 316 376 l 1,40,41
 372 372 372 372 414 337 c 128,-1,42
 456 302 456 302 477 239 c 2,43,-1
 549 21 l 1,44,-1
 524 39 l 1,45,-1
 589 39 l 2,46,47
 602 39 602 39 608.5 33 c 128,-1,48
 615 27 615 27 613 13 c 2,49,-1
 589 -135 l 2,50,51
 588 -145 588 -145 582.5 -150 c 128,-1,52
 577 -155 577 -155 567 -155 c 0,0,1
EndSplineSet
EndChar

StartChar: uni049C
Encoding: 1180 1180 591
Width: 621
GlyphClass: 1
Flags: W
LayerCount: 2
Fore
SplineSet
78 -6 m 0,0,1
 68 -6 68 -6 63.5 0.5 c 128,-1,2
 59 7 59 7 61 19 c 2,3,-1
 168 690 l 2,4,5
 170 701 170 701 176 706 c 128,-1,6
 182 711 182 711 192 711 c 256,7,8
 202 711 202 711 206.5 704.5 c 128,-1,9
 211 698 211 698 209 686 c 2,10,-1
 160 378 l 1,11,-1
 241 378 l 1,12,-1
 266 537 l 2,13,14
 269 555 269 555 287 555 c 0,15,16
 295 555 295 555 299.5 549.5 c 128,-1,17
 304 544 304 544 302 534 c 2,18,-1
 277 378 l 1,19,-1
 315 378 l 1,20,-1
 298 363 l 1,21,-1
 581 700 l 2,22,23
 587 707 587 707 594 709 c 128,-1,24
 601 711 601 711 607 709 c 128,-1,25
 613 707 613 707 617 702.5 c 128,-1,26
 621 698 621 698 620 691 c 128,-1,27
 619 684 619 684 612 675 c 2,28,-1
 347 359 l 1,29,-1
 325 376 l 1,30,31
 363 373 363 373 394.5 356.5 c 128,-1,32
 426 340 426 340 450 310.5 c 128,-1,33
 474 281 474 281 487 239 c 2,34,-1
 559 21 l 2,35,36
 562 13 562 13 559.5 7 c 128,-1,37
 557 1 557 1 551.5 -2.5 c 128,-1,38
 546 -6 546 -6 539.5 -5.5 c 128,-1,39
 533 -5 533 -5 527.5 -1 c 128,-1,40
 522 3 522 3 519 12 c 2,41,-1
 455 210 l 2,42,43
 433 280 433 280 394.5 309.5 c 128,-1,44
 356 339 356 339 297 339 c 2,45,-1
 267 339 l 1,46,-1
 272 347 l 1,47,-1
 246 180 l 2,48,49
 243 162 243 162 225 162 c 256,50,51
 207 162 207 162 210 183 c 2,52,-1
 235 339 l 1,53,-1
 153 339 l 1,54,-1
 102 15 l 2,55,56
 101 5 101 5 95 -0.5 c 128,-1,57
 89 -6 89 -6 78 -6 c 0,0,1
EndSplineSet
EndChar

StartChar: uni049E
Encoding: 1182 1182 592
Width: 632
GlyphClass: 1
Flags: W
LayerCount: 2
Fore
SplineSet
109 -6 m 0,0,1
 99 -6 99 -6 94.5 0.5 c 128,-1,2
 90 7 90 7 92 19 c 2,3,-1
 176 549 l 1,4,-1
 53 549 l 2,5,6
 42 549 42 549 36.5 554 c 128,-1,7
 31 559 31 559 32 568 c 0,8,9
 34 577 34 577 39.5 582 c 128,-1,10
 45 587 45 587 55 587 c 2,11,-1
 186 587 l 1,12,-1
 179 569 l 1,13,-1
 198 690 l 2,14,15
 200 701 200 701 206 706 c 128,-1,16
 212 711 212 711 222 711 c 256,17,18
 232 711 232 711 236.5 704.5 c 128,-1,19
 241 698 241 698 239 686 c 2,20,-1
 221 569 l 1,21,-1
 218 587 l 1,22,-1
 345 587 l 2,23,24
 356 587 356 587 362 582 c 128,-1,25
 368 577 368 577 366 568 c 0,26,27
 365 559 365 559 359 554 c 128,-1,28
 353 549 353 549 343 549 c 2,29,-1
 218 549 l 1,30,-1
 190 378 l 1,31,-1
 326 378 l 1,32,-1
 310 363 l 1,33,-1
 593 700 l 2,34,35
 599 707 599 707 606 709 c 128,-1,36
 613 711 613 711 619 709 c 128,-1,37
 625 707 625 707 629 702.5 c 128,-1,38
 633 698 633 698 632 691 c 128,-1,39
 631 684 631 684 624 675 c 2,40,-1
 358 359 l 1,41,-1
 336 376 l 1,42,43
 373 373 373 373 405 356.5 c 128,-1,44
 437 340 437 340 461 310.5 c 128,-1,45
 485 281 485 281 498 239 c 2,46,-1
 570 21 l 2,47,48
 573 13 573 13 570.5 7 c 128,-1,49
 568 1 568 1 562.5 -2.5 c 128,-1,50
 557 -6 557 -6 550.5 -5.5 c 128,-1,51
 544 -5 544 -5 538.5 -1 c 128,-1,52
 533 3 533 3 530 12 c 2,53,-1
 466 210 l 2,54,55
 444 280 444 280 405.5 309.5 c 128,-1,56
 367 339 367 339 307 339 c 2,57,-1
 184 339 l 1,58,-1
 133 15 l 2,59,60
 132 5 132 5 126 -0.5 c 128,-1,61
 120 -6 120 -6 109 -6 c 0,0,1
EndSplineSet
EndChar

StartChar: uni04A0
Encoding: 1184 1184 593
Width: 738
GlyphClass: 1
Flags: W
LayerCount: 2
Fore
SplineSet
205 -6 m 0,0,1
 195 -6 195 -6 190.5 0.5 c 128,-1,2
 186 7 186 7 188 19 c 2,3,-1
 291 667 l 1,4,-1
 88 667 l 2,5,6
 78 667 78 667 72.5 671.5 c 128,-1,7
 67 676 67 676 67 683 c 0,8,9
 67 694 67 694 73.5 699.5 c 128,-1,10
 80 705 80 705 90 705 c 2,11,-1
 318 705 l 2,12,13
 328 705 328 705 332.5 698.5 c 128,-1,14
 337 692 337 692 335 680 c 2,15,-1
 287 378 l 1,16,-1
 433 378 l 1,17,-1
 416 363 l 1,18,-1
 699 700 l 2,19,20
 705 707 705 707 712 709 c 128,-1,21
 719 711 719 711 725 709 c 128,-1,22
 731 707 731 707 735 702.5 c 128,-1,23
 739 698 739 698 738 691 c 128,-1,24
 737 684 737 684 730 675 c 2,25,-1
 464 359 l 1,26,-1
 443 376 l 1,27,28
 499 372 499 372 541 337 c 128,-1,29
 583 302 583 302 604 239 c 2,30,-1
 676 21 l 2,31,32
 679 13 679 13 676.5 7 c 128,-1,33
 674 1 674 1 668.5 -2.5 c 128,-1,34
 663 -6 663 -6 656.5 -5.5 c 128,-1,35
 650 -5 650 -5 644.5 -1 c 128,-1,36
 639 3 639 3 636 12 c 2,37,-1
 572 210 l 2,38,39
 550 280 550 280 511.5 309.5 c 128,-1,40
 473 339 473 339 414 339 c 2,41,-1
 281 339 l 1,42,-1
 230 19 l 2,43,44
 228 7 228 7 222 0.5 c 128,-1,45
 216 -6 216 -6 205 -6 c 0,0,1
EndSplineSet
EndChar

StartChar: uni04A2
Encoding: 1186 1186 594
Width: 789
GlyphClass: 1
Flags: W
LayerCount: 2
Fore
SplineSet
675 -155 m 0,0,1
 667 -155 667 -155 661.5 -149.5 c 128,-1,2
 656 -144 656 -144 658 -132 c 2,3,-1
 679 0 l 1,4,-1
 597 0 l 2,5,6
 587 0 587 0 582.5 6.5 c 128,-1,7
 578 13 578 13 580 26 c 2,8,-1
 629 338 l 1,9,-1
 153 338 l 1,10,-1
 102 16 l 2,11,12
 101 6 101 6 95 0 c 128,-1,13
 89 -6 89 -6 78 -6 c 0,14,15
 68 -6 68 -6 63.5 0.5 c 128,-1,16
 59 7 59 7 61 20 c 2,17,-1
 167 689 l 2,18,19
 169 700 169 700 174.5 705.5 c 128,-1,20
 180 711 180 711 190 711 c 256,21,22
 200 711 200 711 205 704.5 c 128,-1,23
 210 698 210 698 208 685 c 2,24,-1
 159 377 l 1,25,-1
 635 377 l 1,26,-1
 684 689 l 2,27,28
 686 700 686 700 691.5 705.5 c 128,-1,29
 697 711 697 711 707 711 c 256,30,31
 717 711 717 711 722 704.5 c 128,-1,32
 727 698 727 698 725 685 c 2,33,-1
 621 20 l 1,34,-1
 604 39 l 1,35,-1
 697 39 l 2,36,37
 710 39 710 39 716.5 34 c 128,-1,38
 723 29 723 29 721 15 c 2,39,-1
 697 -135 l 2,40,41
 696 -145 696 -145 690.5 -150 c 128,-1,42
 685 -155 685 -155 675 -155 c 0,0,1
EndSplineSet
EndChar

StartChar: uni04A4
Encoding: 1188 1188 595
Width: 927
GlyphClass: 1
Flags: W
LayerCount: 2
Fore
SplineSet
79 -6 m 0,0,1
 69 -6 69 -6 64.5 0.5 c 128,-1,2
 60 7 60 7 62 20 c 2,3,-1
 168 689 l 2,4,5
 170 700 170 700 175.5 705.5 c 128,-1,6
 181 711 181 711 191 711 c 256,7,8
 201 711 201 711 206 704.5 c 128,-1,9
 211 698 211 698 209 685 c 2,10,-1
 160 377 l 1,11,-1
 634 377 l 1,12,-1
 682 682 l 2,13,14
 684 694 684 694 691 699.5 c 128,-1,15
 698 705 698 705 709 705 c 2,16,-1
 978 705 l 2,17,18
 989 705 989 705 994.5 701 c 128,-1,19
 1000 697 1000 697 1000 689 c 0,20,21
 1000 678 1000 678 993.5 672 c 128,-1,22
 987 666 987 666 976 666 c 2,23,-1
 722 666 l 1,24,-1
 618 16 l 2,25,26
 617 6 617 6 611.5 0 c 128,-1,27
 606 -6 606 -6 595 -6 c 0,28,29
 585 -6 585 -6 580.5 0.5 c 128,-1,30
 576 7 576 7 578 20 c 2,31,-1
 628 338 l 1,32,-1
 154 338 l 1,33,-1
 103 16 l 2,34,35
 102 6 102 6 96 0 c 128,-1,36
 90 -6 90 -6 79 -6 c 0,0,1
EndSplineSet
EndChar

StartChar: uni0524
Encoding: 1316 1316 596
Width: 784
GlyphClass: 1
Flags: W
LayerCount: 2
Fore
SplineSet
667 -155 m 0,0,1
 659 -155 659 -155 653.5 -149.5 c 128,-1,2
 648 -144 648 -144 650 -132 c 2,3,-1
 671 0 l 1,4,-1
 591 0 l 2,5,6
 581 0 581 0 576.5 6.5 c 128,-1,7
 572 13 572 13 574 26 c 2,8,-1
 675 666 l 1,9,-1
 206 666 l 1,10,-1
 102 16 l 2,11,12
 101 6 101 6 95 0 c 128,-1,13
 89 -6 89 -6 78 -6 c 0,14,15
 68 -6 68 -6 63.5 0.5 c 128,-1,16
 59 7 59 7 61 20 c 2,17,-1
 166 682 l 2,18,19
 168 694 168 694 175 699.5 c 128,-1,20
 182 705 182 705 193 705 c 2,21,-1
 696 705 l 2,22,23
 709 705 709 705 715 698 c 128,-1,24
 721 691 721 691 719 678 c 2,25,-1
 615 20 l 1,26,-1
 598 39 l 1,27,-1
 689 39 l 2,28,29
 702 39 702 39 708.5 34 c 128,-1,30
 715 29 715 29 713 15 c 2,31,-1
 689 -135 l 2,32,33
 688 -145 688 -145 682.5 -150 c 128,-1,34
 677 -155 677 -155 667 -155 c 0,0,1
EndSplineSet
EndChar

StartChar: uni04A8
Encoding: 1192 1192 597
Width: 780
GlyphClass: 1
Flags: W
LayerCount: 2
Fore
SplineSet
363 -8 m 0,0,1
 282 -8 282 -8 218.5 26 c 128,-1,2
 155 60 155 60 118.5 126.5 c 128,-1,3
 82 193 82 193 82 289 c 256,4,5
 82 385 82 385 106.5 463 c 128,-1,6
 131 541 131 541 177 597 c 128,-1,7
 223 653 223 653 287.5 683 c 128,-1,8
 352 713 352 713 433 713 c 0,9,10
 448 713 448 713 466 711 c 128,-1,11
 484 709 484 709 497 706 c 0,12,13
 511 703 511 703 515 696 c 128,-1,14
 519 689 519 689 517 679 c 0,15,16
 516 673 516 673 511.5 669.5 c 128,-1,17
 507 666 507 666 501.5 665.5 c 128,-1,18
 496 665 496 665 489 666 c 0,19,20
 476 669 476 669 459.5 670.5 c 128,-1,21
 443 672 443 672 430 672 c 0,22,23
 337 672 337 672 269 625.5 c 128,-1,24
 201 579 201 579 164 493 c 128,-1,25
 127 407 127 407 127 289 c 0,26,27
 127 203 127 203 157.5 146 c 128,-1,28
 188 89 188 89 242 61 c 128,-1,29
 296 33 296 33 366 33 c 0,30,31
 439 33 439 33 496 62 c 128,-1,32
 553 91 553 91 592 140.5 c 128,-1,33
 631 190 631 190 651.5 253 c 128,-1,34
 672 316 672 316 672 384 c 0,35,36
 672 446 672 446 644.5 480 c 128,-1,37
 617 514 617 514 564 514 c 0,38,39
 507 514 507 514 470 479 c 128,-1,40
 433 444 433 444 414.5 389.5 c 128,-1,41
 396 335 396 335 396 275 c 0,42,43
 396 201 396 201 424 146.5 c 128,-1,44
 452 92 452 92 503 62.5 c 128,-1,45
 554 33 554 33 623 33 c 0,46,47
 653 33 653 33 681.5 38 c 128,-1,48
 710 43 710 43 735 54 c 0,49,50
 744 58 744 58 750.5 57 c 128,-1,51
 757 56 757 56 761 51 c 128,-1,52
 765 46 765 46 765.5 39.5 c 128,-1,53
 766 33 766 33 763 27 c 128,-1,54
 760 21 760 21 752 17 c 0,55,56
 727 4 727 4 695.5 -2 c 128,-1,57
 664 -8 664 -8 626 -8 c 0,58,59
 566 -8 566 -8 516 12.5 c 128,-1,60
 466 33 466 33 429.5 70.5 c 128,-1,61
 393 108 393 108 372.5 158.5 c 128,-1,62
 352 209 352 209 352 269 c 0,63,64
 352 345 352 345 376 410 c 128,-1,65
 400 475 400 475 447.5 515 c 128,-1,66
 495 555 495 555 565 555 c 0,67,68
 612 555 612 555 645.5 534.5 c 128,-1,69
 679 514 679 514 697.5 476 c 128,-1,70
 716 438 716 438 716 386 c 0,71,72
 716 306 716 306 690.5 235 c 128,-1,73
 665 164 665 164 617.5 109 c 128,-1,74
 570 54 570 54 505.5 23 c 128,-1,75
 441 -8 441 -8 363 -8 c 0,0,1
EndSplineSet
EndChar

StartChar: uni04AA
Encoding: 1194 1194 598
Width: 667
GlyphClass: 2
Flags: W
AnchorPoint: "Anchor-2" 364 0 basechar 0
AnchorPoint: "Anchor-0" 433 705 basechar 0
LayerCount: 2
Fore
SplineSet
340 -156 m 0,0,1
 331 -156 331 -156 327 -149.5 c 128,-1,2
 323 -143 323 -143 324 -132 c 2,3,-1
 346 13 l 1,4,-1
 386 13 l 1,5,-1
 363 -136 l 2,6,7
 362 -146 362 -146 356 -151 c 128,-1,8
 350 -156 350 -156 340 -156 c 0,0,1
373 -8 m 0,9,10
 286 -8 286 -8 220.5 25.5 c 128,-1,11
 155 59 155 59 119 128 c 128,-1,12
 83 197 83 197 83 305 c 0,13,14
 83 392 83 392 107.5 466.5 c 128,-1,15
 132 541 132 541 178 596 c 128,-1,16
 224 651 224 651 288.5 682 c 128,-1,17
 353 713 353 713 433 713 c 0,18,19
 500 713 500 713 556 691 c 128,-1,20
 612 669 612 669 652 629 c 0,21,22
 658 623 658 623 659.5 615.5 c 128,-1,23
 661 608 661 608 658 602 c 128,-1,24
 655 596 655 596 649.5 592.5 c 128,-1,25
 644 589 644 589 637 590 c 128,-1,26
 630 591 630 591 623 598 c 0,27,28
 584 637 584 637 537 654.5 c 128,-1,29
 490 672 490 672 430 672 c 0,30,31
 338 672 338 672 270 624.5 c 128,-1,32
 202 577 202 577 165 494 c 128,-1,33
 128 411 128 411 128 304 c 0,34,35
 128 207 128 207 158.5 147 c 128,-1,36
 189 87 189 87 244.5 60 c 128,-1,37
 300 33 300 33 376 33 c 0,38,39
 430 33 430 33 475.5 50 c 128,-1,40
 521 67 521 67 564 107 c 0,41,42
 571 114 571 114 578 114.5 c 128,-1,43
 585 115 585 115 590.5 111.5 c 128,-1,44
 596 108 596 108 598.5 102 c 128,-1,45
 601 96 601 96 599.5 88.5 c 128,-1,46
 598 81 598 81 591 75 c 0,47,48
 543 32 543 32 490.5 12 c 128,-1,49
 438 -8 438 -8 373 -8 c 0,9,10
EndSplineSet
Substitution2: "'locl' Localized Forms in Cyrillic lookup 17 subtable" uni04AA.loclCHU
Substitution2: "'locl' Localized Forms in Cyrillic lookup 16 subtable" uni04AA.loclBSH
AlternateSubs2: "'aalt' Access All Alternates lookup 1 subtable" uni04AA.loclBSH uni04AA.loclCHU
EndChar

StartChar: uni04AC
Encoding: 1196 1196 599
Width: 566
GlyphClass: 1
Flags: W
LayerCount: 2
Fore
SplineSet
321 -156 m 0,0,1
 312 -156 312 -156 308 -149 c 128,-1,2
 304 -142 304 -142 305 -131 c 2,3,-1
 326 0 l 1,4,-1
 251 0 l 2,5,6
 238 0 238 0 232 7 c 128,-1,7
 226 14 226 14 228 27 c 2,8,-1
 329 666 l 1,9,-1
 89 666 l 2,10,11
 79 666 79 666 73 670.5 c 128,-1,12
 67 675 67 675 67 683 c 0,13,14
 67 694 67 694 74 699.5 c 128,-1,15
 81 705 81 705 91 705 c 2,16,-1
 617 705 l 2,17,18
 628 705 628 705 633.5 701 c 128,-1,19
 639 697 639 697 639 689 c 0,20,21
 639 678 639 678 632.5 672 c 128,-1,22
 626 666 626 666 615 666 c 2,23,-1
 371 666 l 1,24,-1
 269 21 l 1,25,-1
 250 39 l 1,26,-1
 345 39 l 2,27,28
 358 39 358 39 364 32 c 128,-1,29
 370 25 370 25 368 12 c 2,30,-1
 344 -135 l 2,31,32
 341 -156 341 -156 321 -156 c 0,0,1
EndSplineSet
EndChar

StartChar: uni04B2
Encoding: 1202 1202 602
Width: 669
GlyphClass: 1
Flags: W
LayerCount: 2
Fore
SplineSet
562 -155 m 0,0,1
 554 -155 554 -155 549 -149.5 c 128,-1,2
 544 -144 544 -144 545 -132 c 2,3,-1
 568 19 l 1,4,-1
 584 0 l 1,5,-1
 539 0 l 2,6,7
 530 0 530 0 524.5 3.5 c 128,-1,8
 519 7 519 7 513 17 c 2,9,-1
 325 342 l 1,10,-1
 344 342 l 1,11,-1
 44 6 l 2,12,13
 39 0 39 0 34 -3 c 128,-1,14
 29 -6 29 -6 21 -6 c 0,15,16
 14 -6 14 -6 8.5 -1.5 c 128,-1,17
 3 3 3 3 3 11 c 128,-1,18
 3 19 3 19 10 27 c 2,19,-1
 315 368 l 1,20,-1
 315 357 l 1,21,-1
 130 678 l 2,22,23
 125 688 125 688 125 695 c 128,-1,24
 125 702 125 702 130.5 706.5 c 128,-1,25
 136 711 136 711 144 711 c 0,26,27
 153 711 153 711 157.5 707 c 128,-1,28
 162 703 162 703 166 695 c 2,29,-1
 343 387 l 1,30,-1
 333 387 l 1,31,-1
 608 699 l 2,32,33
 613 705 613 705 619 708 c 128,-1,34
 625 711 625 711 632 711 c 256,35,36
 639 711 639 711 644.5 706.5 c 128,-1,37
 650 702 650 702 650.5 694.5 c 128,-1,38
 651 687 651 687 643 678 c 2,39,-1
 354 352 l 1,40,-1
 354 371 l 1,41,-1
 555 23 l 1,42,-1
 527 39 l 1,43,-1
 584 39 l 2,44,45
 597 39 597 39 603.5 33 c 128,-1,46
 610 27 610 27 608 13 c 2,47,-1
 584 -135 l 2,48,49
 583 -145 583 -145 577.5 -150 c 128,-1,50
 572 -155 572 -155 562 -155 c 0,0,1
EndSplineSet
EndChar

StartChar: uni04B4
Encoding: 1204 1204 603
Width: 900
GlyphClass: 1
Flags: W
LayerCount: 2
Fore
SplineSet
794 -156 m 0,0,1
 785 -156 785 -156 781 -149 c 128,-1,2
 777 -142 777 -142 778 -131 c 2,3,-1
 799 0 l 1,4,-1
 211 0 l 2,5,6
 198 0 198 0 192 7 c 128,-1,7
 186 14 186 14 188 27 c 2,8,-1
 290 666 l 1,9,-1
 89 666 l 2,10,11
 79 666 79 666 73 670.5 c 128,-1,12
 67 675 67 675 67 683 c 0,13,14
 67 694 67 694 74 699.5 c 128,-1,15
 81 705 81 705 91 705 c 2,16,-1
 539 705 l 2,17,18
 550 705 550 705 555.5 701 c 128,-1,19
 561 697 561 697 561 689 c 0,20,21
 561 678 561 678 554.5 672 c 128,-1,22
 548 666 548 666 537 666 c 2,23,-1
 332 666 l 1,24,-1
 233 39 l 1,25,-1
 703 39 l 1,26,-1
 806 689 l 2,27,28
 808 700 808 700 814 705.5 c 128,-1,29
 820 711 820 711 830 711 c 256,30,31
 840 711 840 711 844.5 704.5 c 128,-1,32
 849 698 849 698 847 685 c 2,33,-1
 742 20 l 1,34,-1
 728 39 l 1,35,-1
 818 39 l 2,36,37
 831 39 831 39 837 32 c 128,-1,38
 843 25 843 25 841 12 c 2,39,-1
 817 -135 l 2,40,41
 814 -156 814 -156 794 -156 c 0,0,1
EndSplineSet
EndChar

StartChar: uni04B6
Encoding: 1206 1206 604
Width: 695
GlyphClass: 1
Flags: W
LayerCount: 2
Fore
SplineSet
530 318 m 1,0,1
 491 297 491 297 438.5 286.5 c 128,-1,2
 386 276 386 276 334 276 c 0,3,4
 247 276 247 276 192.5 308 c 128,-1,5
 138 340 138 340 118 403 c 128,-1,6
 98 466 98 466 112 559 c 2,7,-1
 133 690 l 2,8,9
 135 701 135 701 141 706 c 128,-1,10
 147 711 147 711 157 711 c 256,11,12
 167 711 167 711 171.5 704 c 128,-1,13
 176 697 176 697 174 686 c 2,14,-1
 154 565 l 2,15,16
 133 438 133 438 178 377.5 c 128,-1,17
 223 317 223 317 334 317 c 0,18,19
 386 317 386 317 439 327.5 c 128,-1,20
 492 338 492 338 538 364 c 1,21,-1
 590 690 l 2,22,23
 592 701 592 701 598 706 c 128,-1,24
 604 711 604 711 614 711 c 256,25,26
 624 711 624 711 628.5 704.5 c 128,-1,27
 633 698 633 698 631 686 c 2,28,-1
 525 20 l 1,29,-1
 508 39 l 1,30,-1
 601 39 l 2,31,32
 614 39 614 39 620.5 34 c 128,-1,33
 627 29 627 29 625 15 c 2,34,-1
 601 -135 l 2,35,36
 600 -145 600 -145 594.5 -150 c 128,-1,37
 589 -155 589 -155 579 -155 c 0,38,39
 571 -155 571 -155 565.5 -149.5 c 128,-1,40
 560 -144 560 -144 562 -132 c 2,41,-1
 583 0 l 1,42,-1
 501 0 l 2,43,44
 491 0 491 0 486.5 6.5 c 128,-1,45
 482 13 482 13 484 26 c 2,46,-1
 530 318 l 1,0,1
EndSplineSet
EndChar

StartChar: uni04B8
Encoding: 1208 1208 605
Width: 657
GlyphClass: 1
Flags: W
LayerCount: 2
Fore
SplineSet
500 -6 m 0,0,1
 490 -6 490 -6 485.5 0.5 c 128,-1,2
 481 7 481 7 483 19 c 2,3,-1
 530 318 l 1,4,5
 492 298 492 298 440.5 287.5 c 128,-1,6
 389 277 389 277 338 276 c 1,7,-1
 344 284 l 1,8,-1
 319 127 l 2,9,10
 316 109 316 109 298 109 c 0,11,12
 290 109 290 109 286 114 c 128,-1,13
 282 119 282 119 283 128 c 2,14,-1
 308 282 l 1,15,-1
 314 276 l 1,16,17
 234 280 234 280 184.5 313 c 128,-1,18
 135 346 135 346 116.5 407.5 c 128,-1,19
 98 469 98 469 112 559 c 2,20,-1
 133 690 l 2,21,22
 135 701 135 701 141 706 c 128,-1,23
 147 711 147 711 157 711 c 256,24,25
 167 711 167 711 171.5 704 c 128,-1,26
 176 697 176 697 174 686 c 2,27,-1
 154 565 l 2,28,29
 134 441 134 441 176 380.5 c 128,-1,30
 218 320 218 320 323 317 c 1,31,-1
 312 309 l 1,32,-1
 340 486 l 2,33,34
 343 504 343 504 361 504 c 0,35,36
 369 504 369 504 373.5 499.5 c 128,-1,37
 378 495 378 495 376 485 c 2,38,-1
 348 307 l 1,39,-1
 344 317 l 1,40,41
 394 318 394 318 444 328.5 c 128,-1,42
 494 339 494 339 538 364 c 1,43,-1
 590 690 l 2,44,45
 592 701 592 701 598 706 c 128,-1,46
 604 711 604 711 614 711 c 256,47,48
 624 711 624 711 628.5 704.5 c 128,-1,49
 633 698 633 698 631 686 c 2,50,-1
 524 15 l 2,51,52
 523 5 523 5 517 -0.5 c 128,-1,53
 511 -6 511 -6 500 -6 c 0,0,1
EndSplineSet
EndChar

StartChar: uni04BA
Encoding: 1210 1210 606
Width: 657
GlyphClass: 2
Flags: W
LayerCount: 2
Fore
SplineSet
78 -6 m 0,0,1
 68 -6 68 -6 63.5 0.5 c 128,-1,2
 59 7 59 7 61 19 c 2,3,-1
 168 690 l 2,4,5
 170 701 170 701 176 706 c 128,-1,6
 182 711 182 711 192 711 c 256,7,8
 202 711 202 711 206.5 704.5 c 128,-1,9
 211 698 211 698 209 686 c 2,10,-1
 162 387 l 1,11,12
 201 408 201 408 253.5 418.5 c 128,-1,13
 306 429 306 429 358 429 c 0,14,15
 445 429 445 429 499.5 397 c 128,-1,16
 554 365 554 365 574.5 302.5 c 128,-1,17
 595 240 595 240 580 146 c 2,18,-1
 559 15 l 2,19,20
 558 5 558 5 552 -0.5 c 128,-1,21
 546 -6 546 -6 535 -6 c 0,22,23
 525 -6 525 -6 521 1 c 128,-1,24
 517 8 517 8 518 19 c 2,25,-1
 538 140 l 2,26,27
 559 268 559 268 514 328 c 128,-1,28
 469 388 469 388 358 388 c 0,29,30
 306 388 306 388 253.5 377.5 c 128,-1,31
 201 367 201 367 154 341 c 1,32,-1
 102 15 l 2,33,34
 101 5 101 5 95 -0.5 c 128,-1,35
 89 -6 89 -6 78 -6 c 0,0,1
EndSplineSet
EndChar

StartChar: uni0526
Encoding: 1318 1318 607
Width: 695
GlyphClass: 1
Flags: W
LayerCount: 2
Fore
SplineSet
538 140 m 2,0,1
 558 268 558 268 513.5 328 c 128,-1,2
 469 388 469 388 358 388 c 0,3,4
 306 388 306 388 253.5 377.5 c 128,-1,5
 201 367 201 367 154 341 c 1,6,-1
 102 15 l 2,7,8
 101 5 101 5 95 -0.5 c 128,-1,9
 89 -6 89 -6 78 -6 c 0,10,11
 68 -6 68 -6 63.5 0.5 c 128,-1,12
 59 7 59 7 61 19 c 2,13,-1
 168 690 l 2,14,15
 170 701 170 701 176 706 c 128,-1,16
 182 711 182 711 192 711 c 256,17,18
 202 711 202 711 206.5 704.5 c 128,-1,19
 211 698 211 698 209 686 c 2,20,-1
 162 387 l 1,21,22
 201 408 201 408 253.5 418.5 c 128,-1,23
 306 429 306 429 358 429 c 0,24,25
 445 429 445 429 499.5 397 c 128,-1,26
 554 365 554 365 575 302.5 c 128,-1,27
 596 240 596 240 581 146 c 2,28,-1
 561 20 l 1,29,-1
 544 39 l 1,30,-1
 637 39 l 2,31,32
 650 39 650 39 656.5 34 c 128,-1,33
 663 29 663 29 661 15 c 2,34,-1
 637 -135 l 2,35,36
 636 -145 636 -145 630.5 -150 c 128,-1,37
 625 -155 625 -155 615 -155 c 0,38,39
 607 -155 607 -155 601.5 -149.5 c 128,-1,40
 596 -144 596 -144 598 -132 c 2,41,-1
 619 0 l 1,42,-1
 537 0 l 2,43,44
 527 0 527 0 522.5 6.5 c 128,-1,45
 518 13 518 13 520 26 c 2,46,-1
 538 140 l 2,0,1
EndSplineSet
EndChar

StartChar: uni04BC
Encoding: 1212 1212 608
Width: 888
GlyphClass: 2
Flags: W
AnchorPoint: "Anchor-3" 537 0 basechar 0
LayerCount: 2
Fore
SplineSet
507 -8 m 0,0,1
 409 -8 409 -8 341 39 c 128,-1,2
 273 86 273 86 241.5 165 c 128,-1,3
 210 244 210 244 221 341 c 1,4,-1
 229 329 l 1,5,-1
 209 329 l 2,6,7
 156 329 156 329 121.5 345.5 c 128,-1,8
 87 362 87 362 72.5 396.5 c 128,-1,9
 58 431 58 431 66 483 c 2,10,-1
 73 526 l 2,11,12
 76 548 76 548 97 548 c 0,13,14
 107 548 107 548 111.5 541.5 c 128,-1,15
 116 535 116 535 114 522 c 0,16,17
 113 515 113 515 111.5 504.5 c 128,-1,18
 110 494 110 494 108 486 c 0,19,20
 98 425 98 425 123.5 396.5 c 128,-1,21
 149 368 149 368 207 368 c 2,22,-1
 233 368 l 1,23,-1
 222 353 l 1,24,25
 230 435 230 435 256.5 501.5 c 128,-1,26
 283 568 283 568 328 615 c 128,-1,27
 373 662 373 662 434 687.5 c 128,-1,28
 495 713 495 713 571 713 c 0,29,30
 636 713 636 713 685 693.5 c 128,-1,31
 734 674 734 674 767.5 639.5 c 128,-1,32
 801 605 801 605 819.5 559.5 c 128,-1,33
 838 514 838 514 843 462 c 128,-1,34
 848 410 848 410 840 356 c 0,35,36
 839 346 839 346 835 340 c 128,-1,37
 831 334 831 334 825 331.5 c 128,-1,38
 819 329 819 329 810 329 c 2,39,-1
 256 329 l 1,40,-1
 266 341 l 1,41,42
 256 253 256 253 282 183 c 128,-1,43
 308 113 308 113 367 73 c 128,-1,44
 426 33 426 33 514 33 c 0,45,46
 588 33 588 33 643.5 51 c 128,-1,47
 699 69 699 69 746 104 c 0,48,49
 755 111 755 111 762.5 111.5 c 128,-1,50
 770 112 770 112 774.5 107.5 c 128,-1,51
 779 103 779 103 781 96.5 c 128,-1,52
 783 90 783 90 780.5 83 c 128,-1,53
 778 76 778 76 770 70 c 0,54,55
 717 30 717 30 649 11 c 128,-1,56
 581 -8 581 -8 507 -8 c 0,0,1
565 672 m 0,57,58
 477 672 477 672 414 631 c 128,-1,59
 351 590 351 590 314 518 c 128,-1,60
 277 446 277 446 267 354 c 1,61,-1
 260 368 l 1,62,-1
 810 368 l 1,63,-1
 796 352 l 1,64,65
 808 440 808 440 790 512.5 c 128,-1,66
 772 585 772 585 717.5 628.5 c 128,-1,67
 663 672 663 672 565 672 c 0,57,58
EndSplineSet
EndChar

StartChar: uni04C3
Encoding: 1219 1219 612
Width: 641
GlyphClass: 1
Flags: W
LayerCount: 2
Fore
SplineSet
330 -188 m 0,0,1
 303 -188 303 -188 278.5 -183.5 c 128,-1,2
 254 -179 254 -179 234 -172 c 0,3,4
 227 -170 227 -170 223.5 -164.5 c 128,-1,5
 220 -159 220 -159 220.5 -153 c 128,-1,6
 221 -147 221 -147 224 -142 c 128,-1,7
 227 -137 227 -137 233.5 -135 c 128,-1,8
 240 -133 240 -133 248 -136 c 0,9,10
 265 -142 265 -142 285 -145.5 c 128,-1,11
 305 -149 305 -149 329 -149 c 0,12,13
 400 -149 400 -149 445 -102 c 128,-1,14
 490 -55 490 -55 506 41 c 2,15,-1
 514 90 l 2,16,17
 529 178 529 178 511.5 233 c 128,-1,18
 494 288 494 288 445 313.5 c 128,-1,19
 396 339 396 339 314 339 c 2,20,-1
 153 339 l 1,21,-1
 102 15 l 2,22,23
 101 5 101 5 95 -0.5 c 128,-1,24
 89 -6 89 -6 78 -6 c 0,25,26
 68 -6 68 -6 63.5 0.5 c 128,-1,27
 59 7 59 7 61 19 c 2,28,-1
 167 690 l 2,29,30
 169 701 169 701 175 706 c 128,-1,31
 181 711 181 711 191 711 c 256,32,33
 201 711 201 711 205.5 704.5 c 128,-1,34
 210 698 210 698 208 686 c 2,35,-1
 159 378 l 1,36,-1
 317 378 l 1,37,-1
 291 363 l 1,38,-1
 574 700 l 2,39,40
 580 707 580 707 587 709 c 128,-1,41
 594 711 594 711 600 709 c 128,-1,42
 606 707 606 707 609.5 702.5 c 128,-1,43
 613 698 613 698 612 691 c 128,-1,44
 611 684 611 684 604 675 c 2,45,-1
 338 359 l 1,46,-1
 327 377 l 1,47,48
 416 377 416 377 472.5 345.5 c 128,-1,49
 529 314 529 314 551 252 c 128,-1,50
 573 190 573 190 557 96 c 2,51,-1
 548 42 l 2,52,53
 536 -34 536 -34 507 -85 c 128,-1,54
 478 -136 478 -136 434 -162 c 128,-1,55
 390 -188 390 -188 330 -188 c 0,0,1
EndSplineSet
EndChar

StartChar: uni04C5
Encoding: 1221 1221 613
Width: 769
GlyphClass: 1
Flags: W
LayerCount: 2
Fore
SplineSet
620 -144 m 2,0,1
 617 -151 617 -151 611.5 -154 c 128,-1,2
 606 -157 606 -157 600.5 -156 c 128,-1,3
 595 -155 595 -155 591 -152 c 128,-1,4
 587 -149 587 -149 586 -143.5 c 128,-1,5
 585 -138 585 -138 588 -131 c 2,6,-1
 660 17 l 1,7,-1
 660 0 l 1,8,-1
 576 0 l 2,9,10
 566 0 566 0 561 6.5 c 128,-1,11
 556 13 556 13 558 26 c 2,12,-1
 659 666 l 1,13,-1
 302 666 l 1,14,-1
 270 465 l 2,15,16
 252 352 252 352 228 273 c 128,-1,17
 204 194 204 194 173.5 141 c 128,-1,18
 143 88 143 88 104 53.5 c 128,-1,19
 65 19 65 19 17 -5 c 0,20,21
 7 -10 7 -10 -1 -7 c 128,-1,22
 -9 -4 -9 -4 -12 5 c 256,23,24
 -15 14 -15 14 -11.5 21 c 128,-1,25
 -8 28 -8 28 2 33 c 0,26,27
 39 51 39 51 72.5 78.5 c 128,-1,28
 106 106 106 106 135 153.5 c 128,-1,29
 164 201 164 201 188.5 279 c 128,-1,30
 213 357 213 357 232 475 c 2,31,-1
 264 679 l 2,32,33
 266 691 266 691 273 698 c 128,-1,34
 280 705 280 705 291 705 c 2,35,-1
 680 705 l 2,36,37
 693 705 693 705 699 698 c 128,-1,38
 705 691 705 691 703 678 c 2,39,-1
 599 22 l 1,40,-1
 583 39 l 1,41,-1
 674 39 l 2,42,43
 690 39 690 39 696 30.5 c 128,-1,44
 702 22 702 22 694 6 c 2,45,-1
 620 -144 l 2,0,1
EndSplineSet
EndChar

StartChar: uni04C7
Encoding: 1223 1223 614
Width: 751
GlyphClass: 1
Flags: W
LayerCount: 2
Fore
SplineSet
419 -192 m 0,0,1
 409 -192 409 -192 403.5 -186.5 c 128,-1,2
 398 -181 398 -181 398 -173 c 128,-1,3
 398 -165 398 -165 402.5 -159.5 c 128,-1,4
 407 -154 407 -154 417 -154 c 0,5,6
 484 -154 484 -154 522 -122.5 c 128,-1,7
 560 -91 560 -91 571 -22 c 2,8,-1
 628 338 l 1,9,-1
 154 338 l 1,10,-1
 103 16 l 2,11,12
 102 6 102 6 96 0 c 128,-1,13
 90 -6 90 -6 79 -6 c 0,14,15
 69 -6 69 -6 64.5 0.5 c 128,-1,16
 60 7 60 7 62 20 c 2,17,-1
 168 689 l 2,18,19
 170 700 170 700 175.5 705.5 c 128,-1,20
 181 711 181 711 191 711 c 256,21,22
 201 711 201 711 206 704.5 c 128,-1,23
 211 698 211 698 209 685 c 2,24,-1
 160 377 l 1,25,-1
 634 377 l 1,26,-1
 683 689 l 2,27,28
 685 700 685 700 690.5 705.5 c 128,-1,29
 696 711 696 711 706 711 c 256,30,31
 716 711 716 711 721 704.5 c 128,-1,32
 726 698 726 698 724 685 c 2,33,-1
 612 -26 l 2,34,35
 603 -82 603 -82 578 -119 c 128,-1,36
 553 -156 553 -156 513.5 -174 c 128,-1,37
 474 -192 474 -192 419 -192 c 0,0,1
EndSplineSet
EndChar

StartChar: uni04C9
Encoding: 1225 1225 615
Width: 789
GlyphClass: 1
Flags: W
LayerCount: 2
Fore
SplineSet
641 -144 m 2,0,1
 638 -151 638 -151 632.5 -154 c 128,-1,2
 627 -157 627 -157 621.5 -156 c 128,-1,3
 616 -155 616 -155 612 -152 c 128,-1,4
 608 -149 608 -149 607 -143.5 c 128,-1,5
 606 -138 606 -138 609 -131 c 2,6,-1
 681 17 l 1,7,-1
 681 0 l 1,8,-1
 597 0 l 2,9,10
 587 0 587 0 582 6.5 c 128,-1,11
 577 13 577 13 579 26 c 2,12,-1
 629 338 l 1,13,-1
 153 338 l 1,14,-1
 102 16 l 2,15,16
 101 6 101 6 95 0 c 128,-1,17
 89 -6 89 -6 78 -6 c 0,18,19
 68 -6 68 -6 63.5 0.5 c 128,-1,20
 59 7 59 7 61 20 c 2,21,-1
 167 689 l 2,22,23
 169 700 169 700 174.5 705.5 c 128,-1,24
 180 711 180 711 190 711 c 256,25,26
 200 711 200 711 205 704.5 c 128,-1,27
 210 698 210 698 208 685 c 2,28,-1
 159 377 l 1,29,-1
 635 377 l 1,30,-1
 684 689 l 2,31,32
 686 700 686 700 691.5 705.5 c 128,-1,33
 697 711 697 711 707 711 c 256,34,35
 717 711 717 711 722 704.5 c 128,-1,36
 727 698 727 698 725 685 c 2,37,-1
 620 22 l 1,38,-1
 604 39 l 1,39,-1
 695 39 l 2,40,41
 711 39 711 39 717 30.5 c 128,-1,42
 723 22 723 22 715 6 c 2,43,-1
 641 -144 l 2,0,1
EndSplineSet
EndChar

StartChar: uni04CB
Encoding: 1227 1227 616
Width: 695
GlyphClass: 1
Flags: W
LayerCount: 2
Fore
SplineSet
376 -156 m 256,0,1
 366 -156 366 -156 362 -150 c 128,-1,2
 358 -144 358 -144 359 -134 c 2,3,-1
 382 14 l 2,4,5
 384 26 384 26 391.5 32.5 c 128,-1,6
 399 39 399 39 411 39 c 2,7,-1
 505 39 l 1,8,-1
 483 20 l 1,9,-1
 530 318 l 1,10,11
 491 297 491 297 438.5 286.5 c 128,-1,12
 386 276 386 276 334 276 c 0,13,14
 247 276 247 276 192.5 308 c 128,-1,15
 138 340 138 340 118 403 c 128,-1,16
 98 466 98 466 112 559 c 2,17,-1
 133 690 l 2,18,19
 135 701 135 701 141 706 c 128,-1,20
 147 711 147 711 157 711 c 256,21,22
 167 711 167 711 171.5 704 c 128,-1,23
 176 697 176 697 174 686 c 2,24,-1
 154 565 l 2,25,26
 133 438 133 438 178 377.5 c 128,-1,27
 223 317 223 317 334 317 c 0,28,29
 386 317 386 317 439 327.5 c 128,-1,30
 492 338 492 338 538 364 c 1,31,-1
 590 690 l 2,32,33
 592 701 592 701 598 706 c 128,-1,34
 604 711 604 711 614 711 c 256,35,36
 624 711 624 711 628.5 704.5 c 128,-1,37
 633 698 633 698 631 686 c 2,38,-1
 525 22 l 2,39,40
 523 9 523 9 517 4.5 c 128,-1,41
 511 0 511 0 501 0 c 2,42,-1
 420 0 l 1,43,-1
 399 -134 l 2,44,45
 398 -144 398 -144 392 -150 c 128,-1,46
 386 -156 386 -156 376 -156 c 256,0,1
EndSplineSet
EndChar

StartChar: uni04CD
Encoding: 1229 1229 617
Width: 882
GlyphClass: 1
Flags: W
LayerCount: 2
Fore
SplineSet
732 -144 m 2,0,1
 729 -151 729 -151 723.5 -154 c 128,-1,2
 718 -157 718 -157 712.5 -156 c 128,-1,3
 707 -155 707 -155 703 -152 c 128,-1,4
 699 -149 699 -149 698 -143.5 c 128,-1,5
 697 -138 697 -138 700 -131 c 2,6,-1
 772 17 l 1,7,-1
 772 0 l 1,8,-1
 692 0 l 2,9,10
 682 0 682 0 677 6.5 c 128,-1,11
 672 13 672 13 674 26 c 2,12,-1
 774 665 l 1,13,-1
 799 665 l 1,14,-1
 425 117 l 2,15,16
 421 110 421 110 416 107 c 128,-1,17
 411 104 411 104 403 104 c 0,18,19
 394 104 394 104 389 108.5 c 128,-1,20
 384 113 384 113 381 122 c 2,21,-1
 184 666 l 1,22,-1
 204 666 l 1,23,-1
 102 19 l 2,24,25
 101 10 101 10 96.5 5 c 128,-1,26
 92 0 92 0 82 0 c 0,27,28
 73 0 73 0 68 6 c 128,-1,29
 63 12 63 12 64 23 c 2,30,-1
 170 691 l 2,31,32
 172 702 172 702 177 706.5 c 128,-1,33
 182 711 182 711 191 711 c 256,34,35
 200 711 200 711 204.5 706.5 c 128,-1,36
 209 702 209 702 212 693 c 2,37,-1
 416 127 l 1,38,-1
 389 127 l 1,39,-1
 778 697 l 2,40,41
 783 704 783 704 788 707.5 c 128,-1,42
 793 711 793 711 801 711 c 0,43,44
 810 711 810 711 814.5 704.5 c 128,-1,45
 819 698 819 698 817 687 c 2,46,-1
 711 22 l 1,47,-1
 695 39 l 1,48,-1
 786 39 l 2,49,50
 802 39 802 39 808 30.5 c 128,-1,51
 814 22 814 22 806 6 c 2,52,-1
 732 -144 l 2,0,1
EndSplineSet
EndChar

StartChar: uni04E0
Encoding: 1248 1248 626
Width: 645
GlyphClass: 1
Flags: W
LayerCount: 2
Fore
SplineSet
306 -8 m 0,0,1
 222 -8 222 -8 158 11.5 c 128,-1,2
 94 31 94 31 41 74 c 0,3,4
 34 80 34 80 32 87 c 128,-1,5
 30 94 30 94 32 100.5 c 128,-1,6
 34 107 34 107 39 111 c 128,-1,7
 44 115 44 115 51.5 115 c 128,-1,8
 59 115 59 115 67 108 c 0,9,10
 121 65 121 65 179 49 c 128,-1,11
 237 33 237 33 311 33 c 0,12,13
 368 33 368 33 416 49 c 128,-1,14
 464 65 464 65 493 102.5 c 128,-1,15
 522 140 522 140 522 204 c 0,16,17
 522 248 522 248 502.5 277.5 c 128,-1,18
 483 307 483 307 443 322 c 128,-1,19
 403 337 403 337 340 337 c 2,20,-1
 243 337 l 2,21,22
 237 337 237 337 232.5 340.5 c 128,-1,23
 228 344 228 344 226.5 349.5 c 128,-1,24
 225 355 225 355 227 361.5 c 128,-1,25
 229 368 229 368 236 374 c 2,26,-1
 570 686 l 1,27,-1
 572 666 l 1,28,-1
 143 666 l 2,29,30
 133 666 133 666 128 670.5 c 128,-1,31
 123 675 123 675 123 682 c 0,32,33
 123 695 123 695 130.5 700 c 128,-1,34
 138 705 138 705 146 705 c 2,35,-1
 601 705 l 2,36,37
 609 705 609 705 614 701.5 c 128,-1,38
 619 698 619 698 620.5 693 c 128,-1,39
 622 688 622 688 619.5 681.5 c 128,-1,40
 617 675 617 675 610 669 c 2,41,-1
 281 361 l 1,42,-1
 279 376 l 1,43,-1
 347 376 l 2,44,45
 426 376 426 376 474 353 c 128,-1,46
 522 330 522 330 544 291 c 128,-1,47
 566 252 566 252 566 203 c 0,48,49
 566 127 566 127 530.5 80.5 c 128,-1,50
 495 34 495 34 436 13 c 128,-1,51
 377 -8 377 -8 306 -8 c 0,0,1
EndSplineSet
EndChar

StartChar: uni04E8
Encoding: 1256 1256 630
Width: 751
GlyphClass: 2
Flags: W
AnchorPoint: "Anchor-5" 393 353 basechar 0
AnchorPoint: "Anchor-3" 401 0 basechar 0
AnchorPoint: "Anchor-2" 350 0 basechar 0
AnchorPoint: "Anchor-1" 487 705 basechar 0
AnchorPoint: "Anchor-0" 440 705 basechar 0
LayerCount: 2
Fore
SplineSet
107 339 m 1,0,-1
 113 377 l 1,1,-1
 688 377 l 1,2,-1
 682 339 l 1,3,-1
 107 339 l 1,0,-1
357 -8 m 0,4,5
 273 -8 273 -8 211.5 26 c 128,-1,6
 150 60 150 60 116 126.5 c 128,-1,7
 82 193 82 193 82 289 c 0,8,9
 82 378 82 378 104 455 c 128,-1,10
 126 532 126 532 170 590 c 128,-1,11
 214 648 214 648 279 680.5 c 128,-1,12
 344 713 344 713 429 713 c 0,13,14
 513 713 513 713 575 679 c 128,-1,15
 637 645 637 645 670.5 579 c 128,-1,16
 704 513 704 513 704 416 c 0,17,18
 704 327 704 327 682 250 c 128,-1,19
 660 173 660 173 616 115 c 128,-1,20
 572 57 572 57 507.5 24.5 c 128,-1,21
 443 -8 443 -8 357 -8 c 0,4,5
359 33 m 0,22,23
 457 33 457 33 523.5 83.5 c 128,-1,24
 590 134 590 134 624.5 221 c 128,-1,25
 659 308 659 308 659 416 c 0,26,27
 659 546 659 546 597.5 609 c 128,-1,28
 536 672 536 672 426 672 c 0,29,30
 329 672 329 672 262.5 621.5 c 128,-1,31
 196 571 196 571 161.5 484.5 c 128,-1,32
 127 398 127 398 127 289 c 0,33,34
 127 159 127 159 188.5 96 c 128,-1,35
 250 33 250 33 359 33 c 0,22,23
EndSplineSet
EndChar

StartChar: uni04FA
Encoding: 1274 1274 638
Width: 558
GlyphClass: 1
Flags: W
LayerCount: 2
Fore
SplineSet
43 -179 m 2,0,1
 32 -180 32 -180 26.5 -175 c 128,-1,2
 21 -170 21 -170 20 -161 c 256,3,4
 19 -152 19 -152 25 -147 c 128,-1,5
 31 -142 31 -142 41 -141 c 2,6,-1
 66 -139 l 2,7,8
 119 -134 119 -134 150 -100.5 c 128,-1,9
 181 -67 181 -67 191 0 c 1,10,-1
 115 0 l 2,11,12
 102 0 102 0 96 7 c 128,-1,13
 90 14 90 14 92 27 c 2,14,-1
 142 338 l 1,15,-1
 62 338 l 2,16,17
 52 338 52 338 46.5 342.5 c 128,-1,18
 41 347 41 347 41 354 c 0,19,20
 41 365 41 365 47.5 370.5 c 128,-1,21
 54 376 54 376 64 376 c 2,22,-1
 148 376 l 1,23,-1
 197 683 l 2,24,25
 199 695 199 695 206 700 c 128,-1,26
 213 705 213 705 224 705 c 2,27,-1
 604 705 l 2,28,29
 615 705 615 705 620.5 701 c 128,-1,30
 626 697 626 697 626 689 c 0,31,32
 626 678 626 678 619.5 672 c 128,-1,33
 613 666 613 666 602 666 c 2,34,-1
 236 666 l 1,35,-1
 190 376 l 1,36,-1
 360 376 l 2,37,38
 370 376 370 376 375.5 372 c 128,-1,39
 381 368 381 368 381 360 c 0,40,41
 381 350 381 350 375 344 c 128,-1,42
 369 338 369 338 358 338 c 2,43,-1
 184 338 l 1,44,-1
 134 21 l 1,45,-1
 122 39 l 1,46,-1
 210 39 l 2,47,48
 223 39 223 39 229 32 c 128,-1,49
 235 25 235 25 233 12 c 2,50,-1
 231 0 l 2,51,52
 222 -57 222 -57 201 -95 c 128,-1,53
 180 -133 180 -133 147.5 -153.5 c 128,-1,54
 115 -174 115 -174 71 -177 c 2,55,-1
 43 -179 l 2,0,1
EndSplineSet
EndChar

StartChar: uni04FC
Encoding: 1276 1276 639
Width: 631
GlyphClass: 1
Flags: W
LayerCount: 2
Fore
SplineSet
368 -180 m 0,0,1
 358 -181 358 -181 351.5 -177 c 128,-1,2
 345 -173 345 -173 343 -165 c 0,3,4
 342 -157 342 -157 346.5 -151 c 128,-1,5
 351 -145 351 -145 363 -144 c 0,6,7
 433 -136 433 -136 463 -103 c 128,-1,8
 493 -70 493 -70 493 -11 c 0,9,10
 493 15 493 15 483 51.5 c 128,-1,11
 473 88 473 88 448 131 c 2,12,-1
 325 342 l 1,13,-1
 344 342 l 1,14,-1
 44 6 l 2,15,16
 39 0 39 0 34 -3 c 128,-1,17
 29 -6 29 -6 21 -6 c 0,18,19
 14 -6 14 -6 8.5 -1.5 c 128,-1,20
 3 3 3 3 3 11 c 128,-1,21
 3 19 3 19 10 27 c 2,22,-1
 315 368 l 1,23,-1
 315 357 l 1,24,-1
 130 678 l 2,25,26
 125 688 125 688 125 695 c 128,-1,27
 125 702 125 702 130.5 706.5 c 128,-1,28
 136 711 136 711 144 711 c 0,29,30
 153 711 153 711 157.5 707 c 128,-1,31
 162 703 162 703 166 695 c 2,32,-1
 343 387 l 1,33,-1
 333 387 l 1,34,-1
 608 699 l 2,35,36
 613 705 613 705 619 708 c 128,-1,37
 625 711 625 711 632 711 c 256,38,39
 639 711 639 711 644.5 706.5 c 128,-1,40
 650 702 650 702 650.5 694.5 c 128,-1,41
 651 687 651 687 643 678 c 2,42,-1
 354 352 l 1,43,-1
 354 371 l 1,44,-1
 487 141 l 2,45,46
 512 98 512 98 522.5 57.5 c 128,-1,47
 533 17 533 17 533 -12 c 0,48,49
 533 -90 533 -90 490.5 -129.5 c 128,-1,50
 448 -169 448 -169 368 -180 c 0,0,1
EndSplineSet
EndChar

StartChar: uni0510
Encoding: 1296 1296 641
Width: 645
GlyphClass: 1
Flags: W
LayerCount: 2
Fore
SplineSet
304 -8 m 0,0,1
 227 -8 227 -8 172 11 c 128,-1,2
 117 30 117 30 88 68 c 128,-1,3
 59 106 59 106 59 161 c 256,4,5
 59 216 59 216 83 260 c 128,-1,6
 107 304 107 304 150.5 332.5 c 128,-1,7
 194 361 194 361 253 367 c 1,8,-1
 251 353 l 1,9,10
 193 366 193 366 160.5 402.5 c 128,-1,11
 128 439 128 439 128 500 c 0,12,13
 128 566 128 566 162.5 614 c 128,-1,14
 197 662 197 662 257.5 687.5 c 128,-1,15
 318 713 318 713 395 713 c 0,16,17
 438 713 438 713 477.5 705 c 128,-1,18
 517 697 517 697 553.5 679.5 c 128,-1,19
 590 662 590 662 623 631 c 0,20,21
 630 625 630 625 632 617.5 c 128,-1,22
 634 610 634 610 631 603.5 c 128,-1,23
 628 597 628 597 622.5 593 c 128,-1,24
 617 589 617 589 609.5 590 c 128,-1,25
 602 591 602 591 594 598 c 0,26,27
 545 644 545 644 495.5 658 c 128,-1,28
 446 672 446 672 390 672 c 0,29,30
 292 672 292 672 232 627 c 128,-1,31
 172 582 172 582 172 503 c 0,32,33
 172 439 172 439 213.5 407.5 c 128,-1,34
 255 376 255 376 335 376 c 2,35,-1
 475 376 l 2,36,37
 486 376 486 376 492.5 371 c 128,-1,38
 499 366 499 366 497 356 c 0,39,40
 496 347 496 347 490 342 c 128,-1,41
 484 337 484 337 473 337 c 2,42,-1
 314 337 l 2,43,44
 214 337 214 337 158 292.5 c 128,-1,45
 102 248 102 248 102 167 c 0,46,47
 102 98 102 98 153.5 65.5 c 128,-1,48
 205 33 205 33 302 33 c 0,49,50
 378 33 378 33 438 51 c 128,-1,51
 498 69 498 69 549 109 c 0,52,53
 558 116 558 116 566 116.5 c 128,-1,54
 574 117 574 117 579.5 113.5 c 128,-1,55
 585 110 585 110 587 103.5 c 128,-1,56
 589 97 589 97 587.5 90 c 128,-1,57
 586 83 586 83 579 78 c 0,58,59
 525 35 525 35 456 13.5 c 128,-1,60
 387 -8 387 -8 304 -8 c 0,0,1
EndSplineSet
EndChar

